M48
; DRILL file {KiCad 5.1.10-88a1d61d58~88~ubuntu18.04.1} date Sat Jun  5 11:20:49 2021
; FORMAT={-:-/ absolute / inch / decimal}
; #@! TF.CreationDate,2021-06-05T11:20:49+02:00
; #@! TF.GenerationSoftware,Kicad,Pcbnew,5.1.10-88a1d61d58~88~ubuntu18.04.1
; #@! TF.FileFunction,Plated,1,2,PTH
FMAT,2
INCH
T1C0.0157
T2C0.0315
T3C0.0394
T4C0.0433
%
G90
G05
T1
X4.077Y-3.3724
X4.0846Y-3.7874
X4.187Y-3.9331
X4.187Y-4.0591
X4.187Y-4.1181
X4.1909Y-4.3189
X4.2073Y-2.3232
X4.2397Y-4.2072
X4.2421Y-3.9685
X4.252Y-3.6969
X4.2539Y-3.7756
X4.2719Y-3.0224
X4.2776Y-4.1142
X4.2817Y-4.2085
X4.297Y-4.0081
X4.3155Y-2.2508
X4.5813Y-2.3232
X4.6295Y-3.3725
X4.6895Y-2.2508
X4.7126Y-3.7874
X4.815Y-3.9331
X4.815Y-4.0591
X4.815Y-4.1181
X4.8189Y-4.3189
X4.8244Y-3.0225
X4.8676Y-4.2072
X4.8701Y-3.9685
X4.8799Y-3.6969
X4.8819Y-3.7756
X4.9055Y-4.1142
X4.9096Y-4.2085
X4.925Y-4.0081
X5.1807Y-3.3725
X5.3425Y-3.7874
X5.3756Y-3.0225
X5.4449Y-3.9331
X5.4449Y-4.0591
X5.4449Y-4.1181
X5.4488Y-4.3189
X5.4975Y-4.2072
X5.5Y-3.9685
X5.5098Y-3.6969
X5.5118Y-3.7756
X5.5354Y-4.1142
X5.5396Y-4.2085
X5.5549Y-4.0081
X5.7306Y-3.2424
X5.7306Y-3.3924
X5.9254Y-3.0924
X5.9254Y-3.2424
X5.9724Y-3.7874
X6.0748Y-3.9331
X6.0748Y-4.0591
X6.0748Y-4.1181
X6.0787Y-4.3189
X6.1275Y-4.2072
X6.1299Y-3.9685
X6.1398Y-3.6969
X6.1417Y-3.7756
X6.1654Y-4.1142
X6.1695Y-4.2085
X6.1848Y-4.0081
X6.2817Y-3.2424
X6.2817Y-3.3924
X6.4766Y-3.0924
X6.4766Y-3.2424
X6.6024Y-3.7874
X6.7047Y-3.9331
X6.7047Y-4.0591
X6.7047Y-4.1181
X6.7087Y-4.3189
X6.7574Y-4.2072
X6.7598Y-3.9685
X6.7697Y-3.6969
X6.7717Y-3.7756
X6.7953Y-4.1142
X6.7994Y-4.2085
X6.8148Y-4.0081
X6.8329Y-3.2424
X6.8329Y-3.3924
X7.0278Y-3.0924
X7.0278Y-3.2424
X7.2323Y-3.7874
X7.3346Y-3.9331
X7.3346Y-4.0591
X7.3346Y-4.1181
X7.3386Y-4.3189
X7.3867Y-2.001
X7.3867Y-2.4931
X7.3867Y-2.9852
X7.3867Y-3.4774
X7.3873Y-4.2072
X7.3898Y-3.9685
X7.3996Y-3.6969
X7.4016Y-3.7756
X7.4252Y-4.1142
X7.4293Y-4.2085
X7.4447Y-4.0081
X7.5815Y-1.851
X7.5815Y-1.901
X7.5815Y-2.3431
X7.5815Y-2.3931
X7.5815Y-2.8352
X7.5815Y-2.8852
X7.5815Y-3.3274
X7.5815Y-3.3774
T2
X3.977Y-2.8424
X3.977Y-2.9424
X3.977Y-3.0424
X3.977Y-3.1424
X3.977Y-3.2424
X3.977Y-3.3424
X3.977Y-3.4424
X3.977Y-3.5424
X4.0413Y-3.8622
X4.0413Y-3.9622
X4.0413Y-4.0622
X4.0413Y-4.1622
X4.0413Y-4.2622
X4.0413Y-4.3622
X4.0413Y-4.4622
X4.0413Y-4.5622
X4.1319Y-3.8622
X4.1319Y-3.9622
X4.1319Y-4.0622
X4.1319Y-4.1622
X4.1319Y-4.2622
X4.1319Y-4.3622
X4.1319Y-4.4622
X4.1319Y-4.5622
X4.1358Y-4.6654
X4.3327Y-4.6654
X4.3413Y-3.8622
X4.3413Y-3.9622
X4.3413Y-4.0622
X4.3413Y-4.1622
X4.3413Y-4.2622
X4.3413Y-4.3622
X4.3413Y-4.4622
X4.3413Y-4.5622
X4.377Y-2.8424
X4.377Y-2.9424
X4.377Y-3.0424
X4.377Y-3.1424
X4.377Y-3.2424
X4.377Y-3.3424
X4.377Y-3.4424
X4.377Y-3.5424
X4.4319Y-3.8622
X4.4319Y-3.9622
X4.4319Y-4.0622
X4.4319Y-4.1622
X4.4319Y-4.2622
X4.4319Y-4.3622
X4.4319Y-4.4622
X4.4319Y-4.5622
X4.5295Y-2.8425
X4.5295Y-2.9425
X4.5295Y-3.0425
X4.5295Y-3.1425
X4.5295Y-3.2425
X4.5295Y-3.3425
X4.5295Y-3.4425
X4.5295Y-3.5425
X4.6693Y-3.8622
X4.6693Y-3.9622
X4.6693Y-4.0622
X4.6693Y-4.1622
X4.6693Y-4.2622
X4.6693Y-4.3622
X4.6693Y-4.4622
X4.6693Y-4.5622
X4.7598Y-3.8622
X4.7598Y-3.9622
X4.7598Y-4.0622
X4.7598Y-4.1622
X4.7598Y-4.2622
X4.7598Y-4.3622
X4.7598Y-4.4622
X4.7598Y-4.5622
X4.7638Y-4.6654
X4.9295Y-2.8425
X4.9295Y-2.9425
X4.9295Y-3.0425
X4.9295Y-3.1425
X4.9295Y-3.2425
X4.9295Y-3.3425
X4.9295Y-3.4425
X4.9295Y-3.5425
X4.9606Y-4.6654
X4.9693Y-3.8622
X4.9693Y-3.9622
X4.9693Y-4.0622
X4.9693Y-4.1622
X4.9693Y-4.2622
X4.9693Y-4.3622
X4.9693Y-4.4622
X4.9693Y-4.5622
X5.0598Y-3.8622
X5.0598Y-3.9622
X5.0598Y-4.0622
X5.0598Y-4.1622
X5.0598Y-4.2622
X5.0598Y-4.3622
X5.0598Y-4.4622
X5.0598Y-4.5622
X5.0807Y-2.8425
X5.0807Y-2.9425
X5.0807Y-3.0425
X5.0807Y-3.1425
X5.0807Y-3.2425
X5.0807Y-3.3425
X5.0807Y-3.4425
X5.0807Y-3.5425
X5.2992Y-3.8622
X5.2992Y-3.9622
X5.2992Y-4.0622
X5.2992Y-4.1622
X5.2992Y-4.2622
X5.2992Y-4.3622
X5.2992Y-4.4622
X5.2992Y-4.5622
X5.3898Y-3.8622
X5.3898Y-3.9622
X5.3898Y-4.0622
X5.3898Y-4.1622
X5.3898Y-4.2622
X5.3898Y-4.3622
X5.3898Y-4.4622
X5.3898Y-4.5622
X5.3937Y-4.6654
X5.4807Y-2.8425
X5.4807Y-2.9425
X5.4807Y-3.0425
X5.4807Y-3.1425
X5.4807Y-3.2425
X5.4807Y-3.3425
X5.4807Y-3.4425
X5.4807Y-3.5425
X5.5906Y-4.6654
X5.5992Y-3.8622
X5.5992Y-3.9622
X5.5992Y-4.0622
X5.5992Y-4.1622
X5.5992Y-4.2622
X5.5992Y-4.3622
X5.5992Y-4.4622
X5.5992Y-4.5622
X5.6306Y-2.9424
X5.6306Y-3.0424
X5.6306Y-3.1424
X5.6306Y-3.2424
X5.6306Y-3.3424
X5.6306Y-3.4424
X5.6306Y-3.5424
X5.6898Y-3.8622
X5.6898Y-3.9622
X5.6898Y-4.0622
X5.6898Y-4.1622
X5.6898Y-4.2622
X5.6898Y-4.3622
X5.6898Y-4.4622
X5.6898Y-4.5622
X5.9291Y-3.8622
X5.9291Y-3.9622
X5.9291Y-4.0622
X5.9291Y-4.1622
X5.9291Y-4.2622
X5.9291Y-4.3622
X5.9291Y-4.4622
X5.9291Y-4.5622
X6.0197Y-3.8622
X6.0197Y-3.9622
X6.0197Y-4.0622
X6.0197Y-4.1622
X6.0197Y-4.2622
X6.0197Y-4.3622
X6.0197Y-4.4622
X6.0197Y-4.5622
X6.0236Y-4.6654
X6.0306Y-2.9424
X6.0306Y-3.0424
X6.0306Y-3.1424
X6.0306Y-3.2424
X6.0306Y-3.3424
X6.0306Y-3.4424
X6.0306Y-3.5424
X6.1817Y-2.9424
X6.1817Y-3.0424
X6.1817Y-3.1424
X6.1817Y-3.2424
X6.1817Y-3.3424
X6.1817Y-3.4424
X6.1817Y-3.5424
X6.2205Y-4.6654
X6.2291Y-3.8622
X6.2291Y-3.9622
X6.2291Y-4.0622
X6.2291Y-4.1622
X6.2291Y-4.2622
X6.2291Y-4.3622
X6.2291Y-4.4622
X6.2291Y-4.5622
X6.3197Y-3.8622
X6.3197Y-3.9622
X6.3197Y-4.0622
X6.3197Y-4.1622
X6.3197Y-4.2622
X6.3197Y-4.3622
X6.3197Y-4.4622
X6.3197Y-4.5622
X6.5591Y-3.8622
X6.5591Y-3.9622
X6.5591Y-4.0622
X6.5591Y-4.1622
X6.5591Y-4.2622
X6.5591Y-4.3622
X6.5591Y-4.4622
X6.5591Y-4.5622
X6.5817Y-2.9424
X6.5817Y-3.0424
X6.5817Y-3.1424
X6.5817Y-3.2424
X6.5817Y-3.3424
X6.5817Y-3.4424
X6.5817Y-3.5424
X6.6496Y-3.8622
X6.6496Y-3.9622
X6.6496Y-4.0622
X6.6496Y-4.1622
X6.6496Y-4.2622
X6.6496Y-4.3622
X6.6496Y-4.4622
X6.6496Y-4.5622
X6.6535Y-4.6654
X6.7329Y-2.9424
X6.7329Y-3.0424
X6.7329Y-3.1424
X6.7329Y-3.2424
X6.7329Y-3.3424
X6.7329Y-3.4424
X6.7329Y-3.5424
X6.8504Y-4.6654
X6.8591Y-3.8622
X6.8591Y-3.9622
X6.8591Y-4.0622
X6.8591Y-4.1622
X6.8591Y-4.2622
X6.8591Y-4.3622
X6.8591Y-4.4622
X6.8591Y-4.5622
X6.9496Y-3.8622
X6.9496Y-3.9622
X6.9496Y-4.0622
X6.9496Y-4.1622
X6.9496Y-4.2622
X6.9496Y-4.3622
X6.9496Y-4.4622
X6.9496Y-4.5622
X7.1329Y-2.9424
X7.1329Y-3.0424
X7.1329Y-3.1424
X7.1329Y-3.2424
X7.1329Y-3.3424
X7.1329Y-3.4424
X7.1329Y-3.5424
X7.189Y-3.8622
X7.189Y-3.9622
X7.189Y-4.0622
X7.189Y-4.1622
X7.189Y-4.2622
X7.189Y-4.3622
X7.189Y-4.4622
X7.189Y-4.5622
X7.2795Y-3.8622
X7.2795Y-3.9622
X7.2795Y-4.0622
X7.2795Y-4.1622
X7.2795Y-4.2622
X7.2795Y-4.3622
X7.2795Y-4.4622
X7.2795Y-4.5622
X7.2835Y-4.6654
X7.2841Y-1.766
X7.2841Y-1.866
X7.2841Y-1.966
X7.2841Y-2.066
X7.2841Y-2.2581
X7.2841Y-2.3581
X7.2841Y-2.4581
X7.2841Y-2.5581
X7.2841Y-2.7502
X7.2841Y-2.8502
X7.2841Y-2.9502
X7.2841Y-3.0502
X7.2841Y-3.2424
X7.2841Y-3.3424
X7.2841Y-3.4424
X7.2841Y-3.5424
X7.4803Y-4.6654
X7.489Y-3.8622
X7.489Y-3.9622
X7.489Y-4.0622
X7.489Y-4.1622
X7.489Y-4.2622
X7.489Y-4.3622
X7.489Y-4.4622
X7.489Y-4.5622
X7.5795Y-3.8622
X7.5795Y-3.9622
X7.5795Y-4.0622
X7.5795Y-4.1622
X7.5795Y-4.2622
X7.5795Y-4.3622
X7.5795Y-4.4622
X7.5795Y-4.5622
X7.6841Y-1.766
X7.6841Y-1.866
X7.6841Y-1.966
X7.6841Y-2.066
X7.6841Y-2.2581
X7.6841Y-2.3581
X7.6841Y-2.4581
X7.6841Y-2.5581
X7.6841Y-2.7502
X7.6841Y-2.8502
X7.6841Y-2.9502
X7.6841Y-3.0502
X7.6841Y-3.2424
X7.6841Y-3.3424
X7.6841Y-3.4424
X7.6841Y-3.5424
T3
X4.4173Y-2.0882
X4.4173Y-2.1882
X4.4173Y-2.2882
X4.4173Y-2.3882
X4.4173Y-2.4882
X4.7913Y-2.0882
X4.7913Y-2.1882
X4.7913Y-2.2882
X4.7913Y-2.3882
X4.7913Y-2.4882
X4.9913Y-2.5284
X5.0913Y-2.5284
X5.1913Y-2.5284
X5.3828Y-1.6001
X5.3828Y-1.7001
X5.3828Y-1.8001
X5.385Y-2.5284
X5.485Y-2.5284
X5.585Y-2.5284
X5.8287Y-2.745
X5.9287Y-2.745
X6.0287Y-2.745
X6.2292Y-1.6485
X6.2292Y-1.7485
X6.2292Y-1.8485
X6.3405Y-2.745
X6.4405Y-2.745
X6.5405Y-2.745
X6.8523Y-2.745
X6.9523Y-2.745
X7.0523Y-2.745
X7.0954Y-1.6485
X7.0954Y-1.7485
X7.0954Y-1.8485
T4
X4.0026Y-2.4813
X4.0026Y-2.5813
X4.0026Y-2.6813
X4.147Y-1.6101
X4.147Y-1.7101
X4.147Y-1.8101
X4.462Y-1.6101
X4.462Y-1.7101
X4.462Y-1.8101
X4.7642Y-1.5975
X4.7642Y-1.6975
X4.7642Y-1.7975
T0
M30
