%TF.GenerationSoftware,KiCad,Pcbnew,5.1.10-88a1d61d58~88~ubuntu18.04.1*%
%TF.CreationDate,2021-06-05T11:20:38+02:00*%
%TF.ProjectId,panel2,70616e65-6c32-42e6-9b69-6361645f7063,rev?*%
%TF.SameCoordinates,Original*%
%TF.FileFunction,Soldermask,Top*%
%TF.FilePolarity,Negative*%
%FSLAX46Y46*%
G04 Gerber Fmt 4.6, Leading zero omitted, Abs format (unit mm)*
G04 Created by KiCad (PCBNEW 5.1.10-88a1d61d58~88~ubuntu18.04.1) date 2021-06-05 11:20:38*
%MOMM*%
%LPD*%
G01*
G04 APERTURE LIST*
%ADD10C,2.100000*%
%ADD11O,1.700000X1.700000*%
%ADD12R,1.700000X1.700000*%
%ADD13R,6.400000X5.800000*%
%ADD14R,2.200000X1.200000*%
%ADD15R,5.800000X6.400000*%
%ADD16R,1.200000X2.200000*%
%ADD17R,9.400000X10.800000*%
%ADD18R,4.600000X1.100000*%
%ADD19R,10.800000X9.400000*%
%ADD20R,1.100000X4.600000*%
%ADD21O,1.600000X1.600000*%
%ADD22R,1.600000X1.600000*%
%ADD23C,1.600000*%
%ADD24R,0.900000X0.800000*%
G04 APERTURE END LIST*
D10*
%TO.C,23*%
X101666000Y-68104000D03*
X101666000Y-65564000D03*
X101666000Y-63024000D03*
%TD*%
%TO.C,SOT*%
G36*
G01*
X103452000Y-64914000D02*
X103452000Y-64314000D01*
G75*
G02*
X103522000Y-64244000I70000J0D01*
G01*
X104822000Y-64244000D01*
G75*
G02*
X104892000Y-64314000I0J-70000D01*
G01*
X104892000Y-64914000D01*
G75*
G02*
X104822000Y-64984000I-70000J0D01*
G01*
X103522000Y-64984000D01*
G75*
G02*
X103452000Y-64914000I0J70000D01*
G01*
G37*
G36*
G01*
X103452000Y-66814000D02*
X103452000Y-66214000D01*
G75*
G02*
X103522000Y-66144000I70000J0D01*
G01*
X104822000Y-66144000D01*
G75*
G02*
X104892000Y-66214000I0J-70000D01*
G01*
X104892000Y-66814000D01*
G75*
G02*
X104822000Y-66884000I-70000J0D01*
G01*
X103522000Y-66884000D01*
G75*
G02*
X103452000Y-66814000I0J70000D01*
G01*
G37*
G36*
G01*
X105552000Y-65864000D02*
X105552000Y-65264000D01*
G75*
G02*
X105622000Y-65194000I70000J0D01*
G01*
X106922000Y-65194000D01*
G75*
G02*
X106992000Y-65264000I0J-70000D01*
G01*
X106992000Y-65864000D01*
G75*
G02*
X106922000Y-65934000I-70000J0D01*
G01*
X105622000Y-65934000D01*
G75*
G02*
X105552000Y-65864000I0J70000D01*
G01*
G37*
%TD*%
%TO.C,23*%
X105334000Y-40896000D03*
X105334000Y-43436000D03*
X105334000Y-45976000D03*
%TD*%
%TO.C,SOT*%
G36*
G01*
X103548000Y-44086000D02*
X103548000Y-44686000D01*
G75*
G02*
X103478000Y-44756000I-70000J0D01*
G01*
X102178000Y-44756000D01*
G75*
G02*
X102108000Y-44686000I0J70000D01*
G01*
X102108000Y-44086000D01*
G75*
G02*
X102178000Y-44016000I70000J0D01*
G01*
X103478000Y-44016000D01*
G75*
G02*
X103548000Y-44086000I0J-70000D01*
G01*
G37*
G36*
G01*
X103548000Y-42186000D02*
X103548000Y-42786000D01*
G75*
G02*
X103478000Y-42856000I-70000J0D01*
G01*
X102178000Y-42856000D01*
G75*
G02*
X102108000Y-42786000I0J70000D01*
G01*
X102108000Y-42186000D01*
G75*
G02*
X102178000Y-42116000I70000J0D01*
G01*
X103478000Y-42116000D01*
G75*
G02*
X103548000Y-42186000I0J-70000D01*
G01*
G37*
G36*
G01*
X101448000Y-43136000D02*
X101448000Y-43736000D01*
G75*
G02*
X101378000Y-43806000I-70000J0D01*
G01*
X100078000Y-43806000D01*
G75*
G02*
X100008000Y-43736000I0J70000D01*
G01*
X100008000Y-43136000D01*
G75*
G02*
X100078000Y-43066000I70000J0D01*
G01*
X101378000Y-43066000D01*
G75*
G02*
X101448000Y-43136000I0J-70000D01*
G01*
G37*
%TD*%
%TO.C,23*%
X113334000Y-40896000D03*
X113334000Y-43436000D03*
X113334000Y-45976000D03*
%TD*%
%TO.C,SOT*%
G36*
G01*
X111548000Y-44086000D02*
X111548000Y-44686000D01*
G75*
G02*
X111478000Y-44756000I-70000J0D01*
G01*
X110178000Y-44756000D01*
G75*
G02*
X110108000Y-44686000I0J70000D01*
G01*
X110108000Y-44086000D01*
G75*
G02*
X110178000Y-44016000I70000J0D01*
G01*
X111478000Y-44016000D01*
G75*
G02*
X111548000Y-44086000I0J-70000D01*
G01*
G37*
G36*
G01*
X111548000Y-42186000D02*
X111548000Y-42786000D01*
G75*
G02*
X111478000Y-42856000I-70000J0D01*
G01*
X110178000Y-42856000D01*
G75*
G02*
X110108000Y-42786000I0J70000D01*
G01*
X110108000Y-42186000D01*
G75*
G02*
X110178000Y-42116000I70000J0D01*
G01*
X111478000Y-42116000D01*
G75*
G02*
X111548000Y-42186000I0J-70000D01*
G01*
G37*
G36*
G01*
X109448000Y-43136000D02*
X109448000Y-43736000D01*
G75*
G02*
X109378000Y-43806000I-70000J0D01*
G01*
X108078000Y-43806000D01*
G75*
G02*
X108008000Y-43736000I0J70000D01*
G01*
X108008000Y-43136000D01*
G75*
G02*
X108078000Y-43066000I70000J0D01*
G01*
X109378000Y-43066000D01*
G75*
G02*
X109448000Y-43136000I0J-70000D01*
G01*
G37*
%TD*%
D11*
%TO.C,REF\u002A\u002A*%
X112200000Y-53040000D03*
X112200000Y-55580000D03*
X112200000Y-58120000D03*
X112200000Y-60660000D03*
D12*
X112200000Y-63200000D03*
%TD*%
%TO.C, *%
G36*
G01*
X107438000Y-59440000D02*
X106388000Y-59440000D01*
G75*
G02*
X106318000Y-59370000I0J70000D01*
G01*
X106318000Y-58770000D01*
G75*
G02*
X106388000Y-58700000I70000J0D01*
G01*
X107438000Y-58700000D01*
G75*
G02*
X107508000Y-58770000I0J-70000D01*
G01*
X107508000Y-59370000D01*
G75*
G02*
X107438000Y-59440000I-70000J0D01*
G01*
G37*
G36*
G01*
X107438000Y-57540000D02*
X106388000Y-57540000D01*
G75*
G02*
X106318000Y-57470000I0J70000D01*
G01*
X106318000Y-56870000D01*
G75*
G02*
X106388000Y-56800000I70000J0D01*
G01*
X107438000Y-56800000D01*
G75*
G02*
X107508000Y-56870000I0J-70000D01*
G01*
X107508000Y-57470000D01*
G75*
G02*
X107438000Y-57540000I-70000J0D01*
G01*
G37*
G36*
G01*
X110138000Y-57540000D02*
X109088000Y-57540000D01*
G75*
G02*
X109018000Y-57470000I0J70000D01*
G01*
X109018000Y-56870000D01*
G75*
G02*
X109088000Y-56800000I70000J0D01*
G01*
X110138000Y-56800000D01*
G75*
G02*
X110208000Y-56870000I0J-70000D01*
G01*
X110208000Y-57470000D01*
G75*
G02*
X110138000Y-57540000I-70000J0D01*
G01*
G37*
G36*
G01*
X110138000Y-58490000D02*
X109088000Y-58490000D01*
G75*
G02*
X109018000Y-58420000I0J70000D01*
G01*
X109018000Y-57820000D01*
G75*
G02*
X109088000Y-57750000I70000J0D01*
G01*
X110138000Y-57750000D01*
G75*
G02*
X110208000Y-57820000I0J-70000D01*
G01*
X110208000Y-58420000D01*
G75*
G02*
X110138000Y-58490000I-70000J0D01*
G01*
G37*
G36*
G01*
X110138000Y-59440000D02*
X109088000Y-59440000D01*
G75*
G02*
X109018000Y-59370000I0J70000D01*
G01*
X109018000Y-58770000D01*
G75*
G02*
X109088000Y-58700000I70000J0D01*
G01*
X110138000Y-58700000D01*
G75*
G02*
X110208000Y-58770000I0J-70000D01*
G01*
X110208000Y-59370000D01*
G75*
G02*
X110138000Y-59440000I-70000J0D01*
G01*
G37*
%TD*%
D11*
%TO.C,REF\u002A\u002A*%
X121700000Y-53040000D03*
X121700000Y-55580000D03*
X121700000Y-58120000D03*
X121700000Y-60660000D03*
D12*
X121700000Y-63200000D03*
%TD*%
%TO.C, *%
G36*
G01*
X116938000Y-59440000D02*
X115888000Y-59440000D01*
G75*
G02*
X115818000Y-59370000I0J70000D01*
G01*
X115818000Y-58770000D01*
G75*
G02*
X115888000Y-58700000I70000J0D01*
G01*
X116938000Y-58700000D01*
G75*
G02*
X117008000Y-58770000I0J-70000D01*
G01*
X117008000Y-59370000D01*
G75*
G02*
X116938000Y-59440000I-70000J0D01*
G01*
G37*
G36*
G01*
X116938000Y-57540000D02*
X115888000Y-57540000D01*
G75*
G02*
X115818000Y-57470000I0J70000D01*
G01*
X115818000Y-56870000D01*
G75*
G02*
X115888000Y-56800000I70000J0D01*
G01*
X116938000Y-56800000D01*
G75*
G02*
X117008000Y-56870000I0J-70000D01*
G01*
X117008000Y-57470000D01*
G75*
G02*
X116938000Y-57540000I-70000J0D01*
G01*
G37*
G36*
G01*
X119638000Y-57540000D02*
X118588000Y-57540000D01*
G75*
G02*
X118518000Y-57470000I0J70000D01*
G01*
X118518000Y-56870000D01*
G75*
G02*
X118588000Y-56800000I70000J0D01*
G01*
X119638000Y-56800000D01*
G75*
G02*
X119708000Y-56870000I0J-70000D01*
G01*
X119708000Y-57470000D01*
G75*
G02*
X119638000Y-57540000I-70000J0D01*
G01*
G37*
G36*
G01*
X119638000Y-58490000D02*
X118588000Y-58490000D01*
G75*
G02*
X118518000Y-58420000I0J70000D01*
G01*
X118518000Y-57820000D01*
G75*
G02*
X118588000Y-57750000I70000J0D01*
G01*
X119638000Y-57750000D01*
G75*
G02*
X119708000Y-57820000I0J-70000D01*
G01*
X119708000Y-58420000D01*
G75*
G02*
X119638000Y-58490000I-70000J0D01*
G01*
G37*
G36*
G01*
X119638000Y-59440000D02*
X118588000Y-59440000D01*
G75*
G02*
X118518000Y-59370000I0J70000D01*
G01*
X118518000Y-58770000D01*
G75*
G02*
X118588000Y-58700000I70000J0D01*
G01*
X119638000Y-58700000D01*
G75*
G02*
X119708000Y-58770000I0J-70000D01*
G01*
X119708000Y-59370000D01*
G75*
G02*
X119638000Y-59440000I-70000J0D01*
G01*
G37*
%TD*%
D13*
%TO.C,DPAK*%
X127256000Y-43182000D03*
D14*
X133556000Y-40902000D03*
X133556000Y-45462000D03*
%TD*%
D11*
%TO.C,MAF*%
X136722000Y-40642000D03*
X136722000Y-43182000D03*
D12*
X136722000Y-45722000D03*
%TD*%
D15*
%TO.C,DPAK*%
X129318000Y-54756000D03*
D16*
X131598000Y-61056000D03*
X127038000Y-61056000D03*
%TD*%
D11*
%TO.C,MAF*%
X131858000Y-64222000D03*
X129318000Y-64222000D03*
D12*
X126778000Y-64222000D03*
%TD*%
D15*
%TO.C,DPAK*%
X139318000Y-54756000D03*
D16*
X141598000Y-61056000D03*
X137038000Y-61056000D03*
%TD*%
D11*
%TO.C,MAF*%
X141858000Y-64222000D03*
X139318000Y-64222000D03*
D12*
X136778000Y-64222000D03*
%TD*%
D11*
%TO.C,D2PAK*%
X158222000Y-41872000D03*
X158222000Y-44412000D03*
D12*
X158222000Y-46952000D03*
%TD*%
D17*
%TO.C,MAF*%
X144687000Y-44412000D03*
D18*
X153837000Y-41872000D03*
X153837000Y-46952000D03*
%TD*%
D11*
%TO.C,D2PAK*%
X180222000Y-41872000D03*
X180222000Y-44412000D03*
D12*
X180222000Y-46952000D03*
%TD*%
D17*
%TO.C,MAF*%
X166687000Y-44412000D03*
D18*
X175837000Y-41872000D03*
X175837000Y-46952000D03*
%TD*%
D11*
%TO.C,D2PAK*%
X153128000Y-69722000D03*
X150588000Y-69722000D03*
D12*
X148048000Y-69722000D03*
%TD*%
D19*
%TO.C,MAF*%
X150588000Y-56187000D03*
D20*
X153128000Y-65337000D03*
X148048000Y-65337000D03*
%TD*%
D11*
%TO.C,D2PAK*%
X166128000Y-69722000D03*
X163588000Y-69722000D03*
D12*
X161048000Y-69722000D03*
%TD*%
D19*
%TO.C,MAF*%
X163588000Y-56187000D03*
D20*
X166128000Y-65337000D03*
X161048000Y-65337000D03*
%TD*%
D11*
%TO.C,D2PAK*%
X179128000Y-69722000D03*
X176588000Y-69722000D03*
D12*
X174048000Y-69722000D03*
%TD*%
D19*
%TO.C,MAF*%
X176588000Y-56187000D03*
D20*
X179128000Y-65337000D03*
X174048000Y-65337000D03*
%TD*%
%TO.C,8*%
G36*
G01*
X191596000Y-47165000D02*
X191596000Y-46865000D01*
G75*
G02*
X191746000Y-46715000I150000J0D01*
G01*
X193396000Y-46715000D01*
G75*
G02*
X193546000Y-46865000I0J-150000D01*
G01*
X193546000Y-47165000D01*
G75*
G02*
X193396000Y-47315000I-150000J0D01*
G01*
X191746000Y-47315000D01*
G75*
G02*
X191596000Y-47165000I0J150000D01*
G01*
G37*
G36*
G01*
X191596000Y-48435000D02*
X191596000Y-48135000D01*
G75*
G02*
X191746000Y-47985000I150000J0D01*
G01*
X193396000Y-47985000D01*
G75*
G02*
X193546000Y-48135000I0J-150000D01*
G01*
X193546000Y-48435000D01*
G75*
G02*
X193396000Y-48585000I-150000J0D01*
G01*
X191746000Y-48585000D01*
G75*
G02*
X191596000Y-48435000I0J150000D01*
G01*
G37*
G36*
G01*
X191596000Y-49705000D02*
X191596000Y-49405000D01*
G75*
G02*
X191746000Y-49255000I150000J0D01*
G01*
X193396000Y-49255000D01*
G75*
G02*
X193546000Y-49405000I0J-150000D01*
G01*
X193546000Y-49705000D01*
G75*
G02*
X193396000Y-49855000I-150000J0D01*
G01*
X191746000Y-49855000D01*
G75*
G02*
X191596000Y-49705000I0J150000D01*
G01*
G37*
G36*
G01*
X191596000Y-50975000D02*
X191596000Y-50675000D01*
G75*
G02*
X191746000Y-50525000I150000J0D01*
G01*
X193396000Y-50525000D01*
G75*
G02*
X193546000Y-50675000I0J-150000D01*
G01*
X193546000Y-50975000D01*
G75*
G02*
X193396000Y-51125000I-150000J0D01*
G01*
X191746000Y-51125000D01*
G75*
G02*
X191596000Y-50975000I0J150000D01*
G01*
G37*
G36*
G01*
X186646000Y-50975000D02*
X186646000Y-50675000D01*
G75*
G02*
X186796000Y-50525000I150000J0D01*
G01*
X188446000Y-50525000D01*
G75*
G02*
X188596000Y-50675000I0J-150000D01*
G01*
X188596000Y-50975000D01*
G75*
G02*
X188446000Y-51125000I-150000J0D01*
G01*
X186796000Y-51125000D01*
G75*
G02*
X186646000Y-50975000I0J150000D01*
G01*
G37*
G36*
G01*
X186646000Y-49705000D02*
X186646000Y-49405000D01*
G75*
G02*
X186796000Y-49255000I150000J0D01*
G01*
X188446000Y-49255000D01*
G75*
G02*
X188596000Y-49405000I0J-150000D01*
G01*
X188596000Y-49705000D01*
G75*
G02*
X188446000Y-49855000I-150000J0D01*
G01*
X186796000Y-49855000D01*
G75*
G02*
X186646000Y-49705000I0J150000D01*
G01*
G37*
G36*
G01*
X186646000Y-48435000D02*
X186646000Y-48135000D01*
G75*
G02*
X186796000Y-47985000I150000J0D01*
G01*
X188446000Y-47985000D01*
G75*
G02*
X188596000Y-48135000I0J-150000D01*
G01*
X188596000Y-48435000D01*
G75*
G02*
X188446000Y-48585000I-150000J0D01*
G01*
X186796000Y-48585000D01*
G75*
G02*
X186646000Y-48435000I0J150000D01*
G01*
G37*
G36*
G01*
X186646000Y-47165000D02*
X186646000Y-46865000D01*
G75*
G02*
X186796000Y-46715000I150000J0D01*
G01*
X188446000Y-46715000D01*
G75*
G02*
X188596000Y-46865000I0J-150000D01*
G01*
X188596000Y-47165000D01*
G75*
G02*
X188446000Y-47315000I-150000J0D01*
G01*
X186796000Y-47315000D01*
G75*
G02*
X186646000Y-47165000I0J150000D01*
G01*
G37*
%TD*%
D21*
%TO.C,MAF*%
X195176000Y-44856000D03*
X185016000Y-52476000D03*
X195176000Y-47396000D03*
X185016000Y-49936000D03*
X195176000Y-49936000D03*
X185016000Y-47396000D03*
X195176000Y-52476000D03*
D22*
X185016000Y-44856000D03*
%TD*%
%TO.C,8*%
G36*
G01*
X191596000Y-59665000D02*
X191596000Y-59365000D01*
G75*
G02*
X191746000Y-59215000I150000J0D01*
G01*
X193396000Y-59215000D01*
G75*
G02*
X193546000Y-59365000I0J-150000D01*
G01*
X193546000Y-59665000D01*
G75*
G02*
X193396000Y-59815000I-150000J0D01*
G01*
X191746000Y-59815000D01*
G75*
G02*
X191596000Y-59665000I0J150000D01*
G01*
G37*
G36*
G01*
X191596000Y-60935000D02*
X191596000Y-60635000D01*
G75*
G02*
X191746000Y-60485000I150000J0D01*
G01*
X193396000Y-60485000D01*
G75*
G02*
X193546000Y-60635000I0J-150000D01*
G01*
X193546000Y-60935000D01*
G75*
G02*
X193396000Y-61085000I-150000J0D01*
G01*
X191746000Y-61085000D01*
G75*
G02*
X191596000Y-60935000I0J150000D01*
G01*
G37*
G36*
G01*
X191596000Y-62205000D02*
X191596000Y-61905000D01*
G75*
G02*
X191746000Y-61755000I150000J0D01*
G01*
X193396000Y-61755000D01*
G75*
G02*
X193546000Y-61905000I0J-150000D01*
G01*
X193546000Y-62205000D01*
G75*
G02*
X193396000Y-62355000I-150000J0D01*
G01*
X191746000Y-62355000D01*
G75*
G02*
X191596000Y-62205000I0J150000D01*
G01*
G37*
G36*
G01*
X191596000Y-63475000D02*
X191596000Y-63175000D01*
G75*
G02*
X191746000Y-63025000I150000J0D01*
G01*
X193396000Y-63025000D01*
G75*
G02*
X193546000Y-63175000I0J-150000D01*
G01*
X193546000Y-63475000D01*
G75*
G02*
X193396000Y-63625000I-150000J0D01*
G01*
X191746000Y-63625000D01*
G75*
G02*
X191596000Y-63475000I0J150000D01*
G01*
G37*
G36*
G01*
X186646000Y-63475000D02*
X186646000Y-63175000D01*
G75*
G02*
X186796000Y-63025000I150000J0D01*
G01*
X188446000Y-63025000D01*
G75*
G02*
X188596000Y-63175000I0J-150000D01*
G01*
X188596000Y-63475000D01*
G75*
G02*
X188446000Y-63625000I-150000J0D01*
G01*
X186796000Y-63625000D01*
G75*
G02*
X186646000Y-63475000I0J150000D01*
G01*
G37*
G36*
G01*
X186646000Y-62205000D02*
X186646000Y-61905000D01*
G75*
G02*
X186796000Y-61755000I150000J0D01*
G01*
X188446000Y-61755000D01*
G75*
G02*
X188596000Y-61905000I0J-150000D01*
G01*
X188596000Y-62205000D01*
G75*
G02*
X188446000Y-62355000I-150000J0D01*
G01*
X186796000Y-62355000D01*
G75*
G02*
X186646000Y-62205000I0J150000D01*
G01*
G37*
G36*
G01*
X186646000Y-60935000D02*
X186646000Y-60635000D01*
G75*
G02*
X186796000Y-60485000I150000J0D01*
G01*
X188446000Y-60485000D01*
G75*
G02*
X188596000Y-60635000I0J-150000D01*
G01*
X188596000Y-60935000D01*
G75*
G02*
X188446000Y-61085000I-150000J0D01*
G01*
X186796000Y-61085000D01*
G75*
G02*
X186646000Y-60935000I0J150000D01*
G01*
G37*
G36*
G01*
X186646000Y-59665000D02*
X186646000Y-59365000D01*
G75*
G02*
X186796000Y-59215000I150000J0D01*
G01*
X188446000Y-59215000D01*
G75*
G02*
X188596000Y-59365000I0J-150000D01*
G01*
X188596000Y-59665000D01*
G75*
G02*
X188446000Y-59815000I-150000J0D01*
G01*
X186796000Y-59815000D01*
G75*
G02*
X186646000Y-59665000I0J150000D01*
G01*
G37*
%TD*%
D21*
%TO.C,MAF*%
X195176000Y-57356000D03*
X185016000Y-64976000D03*
X195176000Y-59896000D03*
X185016000Y-62436000D03*
X195176000Y-62436000D03*
X185016000Y-59896000D03*
X195176000Y-64976000D03*
D22*
X185016000Y-57356000D03*
%TD*%
%TO.C,8*%
G36*
G01*
X191596000Y-72165000D02*
X191596000Y-71865000D01*
G75*
G02*
X191746000Y-71715000I150000J0D01*
G01*
X193396000Y-71715000D01*
G75*
G02*
X193546000Y-71865000I0J-150000D01*
G01*
X193546000Y-72165000D01*
G75*
G02*
X193396000Y-72315000I-150000J0D01*
G01*
X191746000Y-72315000D01*
G75*
G02*
X191596000Y-72165000I0J150000D01*
G01*
G37*
G36*
G01*
X191596000Y-73435000D02*
X191596000Y-73135000D01*
G75*
G02*
X191746000Y-72985000I150000J0D01*
G01*
X193396000Y-72985000D01*
G75*
G02*
X193546000Y-73135000I0J-150000D01*
G01*
X193546000Y-73435000D01*
G75*
G02*
X193396000Y-73585000I-150000J0D01*
G01*
X191746000Y-73585000D01*
G75*
G02*
X191596000Y-73435000I0J150000D01*
G01*
G37*
G36*
G01*
X191596000Y-74705000D02*
X191596000Y-74405000D01*
G75*
G02*
X191746000Y-74255000I150000J0D01*
G01*
X193396000Y-74255000D01*
G75*
G02*
X193546000Y-74405000I0J-150000D01*
G01*
X193546000Y-74705000D01*
G75*
G02*
X193396000Y-74855000I-150000J0D01*
G01*
X191746000Y-74855000D01*
G75*
G02*
X191596000Y-74705000I0J150000D01*
G01*
G37*
G36*
G01*
X191596000Y-75975000D02*
X191596000Y-75675000D01*
G75*
G02*
X191746000Y-75525000I150000J0D01*
G01*
X193396000Y-75525000D01*
G75*
G02*
X193546000Y-75675000I0J-150000D01*
G01*
X193546000Y-75975000D01*
G75*
G02*
X193396000Y-76125000I-150000J0D01*
G01*
X191746000Y-76125000D01*
G75*
G02*
X191596000Y-75975000I0J150000D01*
G01*
G37*
G36*
G01*
X186646000Y-75975000D02*
X186646000Y-75675000D01*
G75*
G02*
X186796000Y-75525000I150000J0D01*
G01*
X188446000Y-75525000D01*
G75*
G02*
X188596000Y-75675000I0J-150000D01*
G01*
X188596000Y-75975000D01*
G75*
G02*
X188446000Y-76125000I-150000J0D01*
G01*
X186796000Y-76125000D01*
G75*
G02*
X186646000Y-75975000I0J150000D01*
G01*
G37*
G36*
G01*
X186646000Y-74705000D02*
X186646000Y-74405000D01*
G75*
G02*
X186796000Y-74255000I150000J0D01*
G01*
X188446000Y-74255000D01*
G75*
G02*
X188596000Y-74405000I0J-150000D01*
G01*
X188596000Y-74705000D01*
G75*
G02*
X188446000Y-74855000I-150000J0D01*
G01*
X186796000Y-74855000D01*
G75*
G02*
X186646000Y-74705000I0J150000D01*
G01*
G37*
G36*
G01*
X186646000Y-73435000D02*
X186646000Y-73135000D01*
G75*
G02*
X186796000Y-72985000I150000J0D01*
G01*
X188446000Y-72985000D01*
G75*
G02*
X188596000Y-73135000I0J-150000D01*
G01*
X188596000Y-73435000D01*
G75*
G02*
X188446000Y-73585000I-150000J0D01*
G01*
X186796000Y-73585000D01*
G75*
G02*
X186646000Y-73435000I0J150000D01*
G01*
G37*
G36*
G01*
X186646000Y-72165000D02*
X186646000Y-71865000D01*
G75*
G02*
X186796000Y-71715000I150000J0D01*
G01*
X188446000Y-71715000D01*
G75*
G02*
X188596000Y-71865000I0J-150000D01*
G01*
X188596000Y-72165000D01*
G75*
G02*
X188446000Y-72315000I-150000J0D01*
G01*
X186796000Y-72315000D01*
G75*
G02*
X186646000Y-72165000I0J150000D01*
G01*
G37*
%TD*%
D21*
%TO.C,MAF*%
X195176000Y-69856000D03*
X185016000Y-77476000D03*
X195176000Y-72396000D03*
X185016000Y-74936000D03*
X195176000Y-74936000D03*
X185016000Y-72396000D03*
X195176000Y-77476000D03*
D22*
X185016000Y-69856000D03*
%TD*%
%TO.C,8*%
G36*
G01*
X191596000Y-84665000D02*
X191596000Y-84365000D01*
G75*
G02*
X191746000Y-84215000I150000J0D01*
G01*
X193396000Y-84215000D01*
G75*
G02*
X193546000Y-84365000I0J-150000D01*
G01*
X193546000Y-84665000D01*
G75*
G02*
X193396000Y-84815000I-150000J0D01*
G01*
X191746000Y-84815000D01*
G75*
G02*
X191596000Y-84665000I0J150000D01*
G01*
G37*
G36*
G01*
X191596000Y-85935000D02*
X191596000Y-85635000D01*
G75*
G02*
X191746000Y-85485000I150000J0D01*
G01*
X193396000Y-85485000D01*
G75*
G02*
X193546000Y-85635000I0J-150000D01*
G01*
X193546000Y-85935000D01*
G75*
G02*
X193396000Y-86085000I-150000J0D01*
G01*
X191746000Y-86085000D01*
G75*
G02*
X191596000Y-85935000I0J150000D01*
G01*
G37*
G36*
G01*
X191596000Y-87205000D02*
X191596000Y-86905000D01*
G75*
G02*
X191746000Y-86755000I150000J0D01*
G01*
X193396000Y-86755000D01*
G75*
G02*
X193546000Y-86905000I0J-150000D01*
G01*
X193546000Y-87205000D01*
G75*
G02*
X193396000Y-87355000I-150000J0D01*
G01*
X191746000Y-87355000D01*
G75*
G02*
X191596000Y-87205000I0J150000D01*
G01*
G37*
G36*
G01*
X191596000Y-88475000D02*
X191596000Y-88175000D01*
G75*
G02*
X191746000Y-88025000I150000J0D01*
G01*
X193396000Y-88025000D01*
G75*
G02*
X193546000Y-88175000I0J-150000D01*
G01*
X193546000Y-88475000D01*
G75*
G02*
X193396000Y-88625000I-150000J0D01*
G01*
X191746000Y-88625000D01*
G75*
G02*
X191596000Y-88475000I0J150000D01*
G01*
G37*
G36*
G01*
X186646000Y-88475000D02*
X186646000Y-88175000D01*
G75*
G02*
X186796000Y-88025000I150000J0D01*
G01*
X188446000Y-88025000D01*
G75*
G02*
X188596000Y-88175000I0J-150000D01*
G01*
X188596000Y-88475000D01*
G75*
G02*
X188446000Y-88625000I-150000J0D01*
G01*
X186796000Y-88625000D01*
G75*
G02*
X186646000Y-88475000I0J150000D01*
G01*
G37*
G36*
G01*
X186646000Y-87205000D02*
X186646000Y-86905000D01*
G75*
G02*
X186796000Y-86755000I150000J0D01*
G01*
X188446000Y-86755000D01*
G75*
G02*
X188596000Y-86905000I0J-150000D01*
G01*
X188596000Y-87205000D01*
G75*
G02*
X188446000Y-87355000I-150000J0D01*
G01*
X186796000Y-87355000D01*
G75*
G02*
X186646000Y-87205000I0J150000D01*
G01*
G37*
G36*
G01*
X186646000Y-85935000D02*
X186646000Y-85635000D01*
G75*
G02*
X186796000Y-85485000I150000J0D01*
G01*
X188446000Y-85485000D01*
G75*
G02*
X188596000Y-85635000I0J-150000D01*
G01*
X188596000Y-85935000D01*
G75*
G02*
X188446000Y-86085000I-150000J0D01*
G01*
X186796000Y-86085000D01*
G75*
G02*
X186646000Y-85935000I0J150000D01*
G01*
G37*
G36*
G01*
X186646000Y-84665000D02*
X186646000Y-84365000D01*
G75*
G02*
X186796000Y-84215000I150000J0D01*
G01*
X188446000Y-84215000D01*
G75*
G02*
X188596000Y-84365000I0J-150000D01*
G01*
X188596000Y-84665000D01*
G75*
G02*
X188446000Y-84815000I-150000J0D01*
G01*
X186796000Y-84815000D01*
G75*
G02*
X186646000Y-84665000I0J150000D01*
G01*
G37*
%TD*%
D21*
%TO.C,MAF*%
X195176000Y-82356000D03*
X185016000Y-89976000D03*
X195176000Y-84896000D03*
X185016000Y-87436000D03*
X195176000Y-87436000D03*
X185016000Y-84896000D03*
X195176000Y-89976000D03*
D22*
X185016000Y-82356000D03*
%TD*%
%TO.C,14*%
G36*
G01*
X177531000Y-78696000D02*
X177531000Y-78396000D01*
G75*
G02*
X177681000Y-78246000I150000J0D01*
G01*
X179331000Y-78246000D01*
G75*
G02*
X179481000Y-78396000I0J-150000D01*
G01*
X179481000Y-78696000D01*
G75*
G02*
X179331000Y-78846000I-150000J0D01*
G01*
X177681000Y-78846000D01*
G75*
G02*
X177531000Y-78696000I0J150000D01*
G01*
G37*
G36*
G01*
X177531000Y-79966000D02*
X177531000Y-79666000D01*
G75*
G02*
X177681000Y-79516000I150000J0D01*
G01*
X179331000Y-79516000D01*
G75*
G02*
X179481000Y-79666000I0J-150000D01*
G01*
X179481000Y-79966000D01*
G75*
G02*
X179331000Y-80116000I-150000J0D01*
G01*
X177681000Y-80116000D01*
G75*
G02*
X177531000Y-79966000I0J150000D01*
G01*
G37*
G36*
G01*
X177531000Y-81236000D02*
X177531000Y-80936000D01*
G75*
G02*
X177681000Y-80786000I150000J0D01*
G01*
X179331000Y-80786000D01*
G75*
G02*
X179481000Y-80936000I0J-150000D01*
G01*
X179481000Y-81236000D01*
G75*
G02*
X179331000Y-81386000I-150000J0D01*
G01*
X177681000Y-81386000D01*
G75*
G02*
X177531000Y-81236000I0J150000D01*
G01*
G37*
G36*
G01*
X177531000Y-82506000D02*
X177531000Y-82206000D01*
G75*
G02*
X177681000Y-82056000I150000J0D01*
G01*
X179331000Y-82056000D01*
G75*
G02*
X179481000Y-82206000I0J-150000D01*
G01*
X179481000Y-82506000D01*
G75*
G02*
X179331000Y-82656000I-150000J0D01*
G01*
X177681000Y-82656000D01*
G75*
G02*
X177531000Y-82506000I0J150000D01*
G01*
G37*
G36*
G01*
X177531000Y-83776000D02*
X177531000Y-83476000D01*
G75*
G02*
X177681000Y-83326000I150000J0D01*
G01*
X179331000Y-83326000D01*
G75*
G02*
X179481000Y-83476000I0J-150000D01*
G01*
X179481000Y-83776000D01*
G75*
G02*
X179331000Y-83926000I-150000J0D01*
G01*
X177681000Y-83926000D01*
G75*
G02*
X177531000Y-83776000I0J150000D01*
G01*
G37*
G36*
G01*
X177531000Y-85046000D02*
X177531000Y-84746000D01*
G75*
G02*
X177681000Y-84596000I150000J0D01*
G01*
X179331000Y-84596000D01*
G75*
G02*
X179481000Y-84746000I0J-150000D01*
G01*
X179481000Y-85046000D01*
G75*
G02*
X179331000Y-85196000I-150000J0D01*
G01*
X177681000Y-85196000D01*
G75*
G02*
X177531000Y-85046000I0J150000D01*
G01*
G37*
G36*
G01*
X177531000Y-86316000D02*
X177531000Y-86016000D01*
G75*
G02*
X177681000Y-85866000I150000J0D01*
G01*
X179331000Y-85866000D01*
G75*
G02*
X179481000Y-86016000I0J-150000D01*
G01*
X179481000Y-86316000D01*
G75*
G02*
X179331000Y-86466000I-150000J0D01*
G01*
X177681000Y-86466000D01*
G75*
G02*
X177531000Y-86316000I0J150000D01*
G01*
G37*
G36*
G01*
X172581000Y-86316000D02*
X172581000Y-86016000D01*
G75*
G02*
X172731000Y-85866000I150000J0D01*
G01*
X174381000Y-85866000D01*
G75*
G02*
X174531000Y-86016000I0J-150000D01*
G01*
X174531000Y-86316000D01*
G75*
G02*
X174381000Y-86466000I-150000J0D01*
G01*
X172731000Y-86466000D01*
G75*
G02*
X172581000Y-86316000I0J150000D01*
G01*
G37*
G36*
G01*
X172581000Y-85046000D02*
X172581000Y-84746000D01*
G75*
G02*
X172731000Y-84596000I150000J0D01*
G01*
X174381000Y-84596000D01*
G75*
G02*
X174531000Y-84746000I0J-150000D01*
G01*
X174531000Y-85046000D01*
G75*
G02*
X174381000Y-85196000I-150000J0D01*
G01*
X172731000Y-85196000D01*
G75*
G02*
X172581000Y-85046000I0J150000D01*
G01*
G37*
G36*
G01*
X172581000Y-83776000D02*
X172581000Y-83476000D01*
G75*
G02*
X172731000Y-83326000I150000J0D01*
G01*
X174381000Y-83326000D01*
G75*
G02*
X174531000Y-83476000I0J-150000D01*
G01*
X174531000Y-83776000D01*
G75*
G02*
X174381000Y-83926000I-150000J0D01*
G01*
X172731000Y-83926000D01*
G75*
G02*
X172581000Y-83776000I0J150000D01*
G01*
G37*
G36*
G01*
X172581000Y-82506000D02*
X172581000Y-82206000D01*
G75*
G02*
X172731000Y-82056000I150000J0D01*
G01*
X174381000Y-82056000D01*
G75*
G02*
X174531000Y-82206000I0J-150000D01*
G01*
X174531000Y-82506000D01*
G75*
G02*
X174381000Y-82656000I-150000J0D01*
G01*
X172731000Y-82656000D01*
G75*
G02*
X172581000Y-82506000I0J150000D01*
G01*
G37*
G36*
G01*
X172581000Y-81236000D02*
X172581000Y-80936000D01*
G75*
G02*
X172731000Y-80786000I150000J0D01*
G01*
X174381000Y-80786000D01*
G75*
G02*
X174531000Y-80936000I0J-150000D01*
G01*
X174531000Y-81236000D01*
G75*
G02*
X174381000Y-81386000I-150000J0D01*
G01*
X172731000Y-81386000D01*
G75*
G02*
X172581000Y-81236000I0J150000D01*
G01*
G37*
G36*
G01*
X172581000Y-79966000D02*
X172581000Y-79666000D01*
G75*
G02*
X172731000Y-79516000I150000J0D01*
G01*
X174381000Y-79516000D01*
G75*
G02*
X174531000Y-79666000I0J-150000D01*
G01*
X174531000Y-79966000D01*
G75*
G02*
X174381000Y-80116000I-150000J0D01*
G01*
X172731000Y-80116000D01*
G75*
G02*
X172581000Y-79966000I0J150000D01*
G01*
G37*
G36*
G01*
X172581000Y-78696000D02*
X172581000Y-78396000D01*
G75*
G02*
X172731000Y-78246000I150000J0D01*
G01*
X174381000Y-78246000D01*
G75*
G02*
X174531000Y-78396000I0J-150000D01*
G01*
X174531000Y-78696000D01*
G75*
G02*
X174381000Y-78846000I-150000J0D01*
G01*
X172731000Y-78846000D01*
G75*
G02*
X172581000Y-78696000I0J150000D01*
G01*
G37*
%TD*%
D21*
%TO.C,MAF*%
X181176000Y-74736000D03*
X171016000Y-89976000D03*
X181176000Y-77276000D03*
X171016000Y-87436000D03*
X181176000Y-79816000D03*
X171016000Y-84896000D03*
X181176000Y-82356000D03*
X171016000Y-82356000D03*
X181176000Y-84896000D03*
X171016000Y-79816000D03*
X181176000Y-87436000D03*
X171016000Y-77276000D03*
X181176000Y-89976000D03*
D22*
X171016000Y-74736000D03*
%TD*%
%TO.C,14*%
G36*
G01*
X163531000Y-78696000D02*
X163531000Y-78396000D01*
G75*
G02*
X163681000Y-78246000I150000J0D01*
G01*
X165331000Y-78246000D01*
G75*
G02*
X165481000Y-78396000I0J-150000D01*
G01*
X165481000Y-78696000D01*
G75*
G02*
X165331000Y-78846000I-150000J0D01*
G01*
X163681000Y-78846000D01*
G75*
G02*
X163531000Y-78696000I0J150000D01*
G01*
G37*
G36*
G01*
X163531000Y-79966000D02*
X163531000Y-79666000D01*
G75*
G02*
X163681000Y-79516000I150000J0D01*
G01*
X165331000Y-79516000D01*
G75*
G02*
X165481000Y-79666000I0J-150000D01*
G01*
X165481000Y-79966000D01*
G75*
G02*
X165331000Y-80116000I-150000J0D01*
G01*
X163681000Y-80116000D01*
G75*
G02*
X163531000Y-79966000I0J150000D01*
G01*
G37*
G36*
G01*
X163531000Y-81236000D02*
X163531000Y-80936000D01*
G75*
G02*
X163681000Y-80786000I150000J0D01*
G01*
X165331000Y-80786000D01*
G75*
G02*
X165481000Y-80936000I0J-150000D01*
G01*
X165481000Y-81236000D01*
G75*
G02*
X165331000Y-81386000I-150000J0D01*
G01*
X163681000Y-81386000D01*
G75*
G02*
X163531000Y-81236000I0J150000D01*
G01*
G37*
G36*
G01*
X163531000Y-82506000D02*
X163531000Y-82206000D01*
G75*
G02*
X163681000Y-82056000I150000J0D01*
G01*
X165331000Y-82056000D01*
G75*
G02*
X165481000Y-82206000I0J-150000D01*
G01*
X165481000Y-82506000D01*
G75*
G02*
X165331000Y-82656000I-150000J0D01*
G01*
X163681000Y-82656000D01*
G75*
G02*
X163531000Y-82506000I0J150000D01*
G01*
G37*
G36*
G01*
X163531000Y-83776000D02*
X163531000Y-83476000D01*
G75*
G02*
X163681000Y-83326000I150000J0D01*
G01*
X165331000Y-83326000D01*
G75*
G02*
X165481000Y-83476000I0J-150000D01*
G01*
X165481000Y-83776000D01*
G75*
G02*
X165331000Y-83926000I-150000J0D01*
G01*
X163681000Y-83926000D01*
G75*
G02*
X163531000Y-83776000I0J150000D01*
G01*
G37*
G36*
G01*
X163531000Y-85046000D02*
X163531000Y-84746000D01*
G75*
G02*
X163681000Y-84596000I150000J0D01*
G01*
X165331000Y-84596000D01*
G75*
G02*
X165481000Y-84746000I0J-150000D01*
G01*
X165481000Y-85046000D01*
G75*
G02*
X165331000Y-85196000I-150000J0D01*
G01*
X163681000Y-85196000D01*
G75*
G02*
X163531000Y-85046000I0J150000D01*
G01*
G37*
G36*
G01*
X163531000Y-86316000D02*
X163531000Y-86016000D01*
G75*
G02*
X163681000Y-85866000I150000J0D01*
G01*
X165331000Y-85866000D01*
G75*
G02*
X165481000Y-86016000I0J-150000D01*
G01*
X165481000Y-86316000D01*
G75*
G02*
X165331000Y-86466000I-150000J0D01*
G01*
X163681000Y-86466000D01*
G75*
G02*
X163531000Y-86316000I0J150000D01*
G01*
G37*
G36*
G01*
X158581000Y-86316000D02*
X158581000Y-86016000D01*
G75*
G02*
X158731000Y-85866000I150000J0D01*
G01*
X160381000Y-85866000D01*
G75*
G02*
X160531000Y-86016000I0J-150000D01*
G01*
X160531000Y-86316000D01*
G75*
G02*
X160381000Y-86466000I-150000J0D01*
G01*
X158731000Y-86466000D01*
G75*
G02*
X158581000Y-86316000I0J150000D01*
G01*
G37*
G36*
G01*
X158581000Y-85046000D02*
X158581000Y-84746000D01*
G75*
G02*
X158731000Y-84596000I150000J0D01*
G01*
X160381000Y-84596000D01*
G75*
G02*
X160531000Y-84746000I0J-150000D01*
G01*
X160531000Y-85046000D01*
G75*
G02*
X160381000Y-85196000I-150000J0D01*
G01*
X158731000Y-85196000D01*
G75*
G02*
X158581000Y-85046000I0J150000D01*
G01*
G37*
G36*
G01*
X158581000Y-83776000D02*
X158581000Y-83476000D01*
G75*
G02*
X158731000Y-83326000I150000J0D01*
G01*
X160381000Y-83326000D01*
G75*
G02*
X160531000Y-83476000I0J-150000D01*
G01*
X160531000Y-83776000D01*
G75*
G02*
X160381000Y-83926000I-150000J0D01*
G01*
X158731000Y-83926000D01*
G75*
G02*
X158581000Y-83776000I0J150000D01*
G01*
G37*
G36*
G01*
X158581000Y-82506000D02*
X158581000Y-82206000D01*
G75*
G02*
X158731000Y-82056000I150000J0D01*
G01*
X160381000Y-82056000D01*
G75*
G02*
X160531000Y-82206000I0J-150000D01*
G01*
X160531000Y-82506000D01*
G75*
G02*
X160381000Y-82656000I-150000J0D01*
G01*
X158731000Y-82656000D01*
G75*
G02*
X158581000Y-82506000I0J150000D01*
G01*
G37*
G36*
G01*
X158581000Y-81236000D02*
X158581000Y-80936000D01*
G75*
G02*
X158731000Y-80786000I150000J0D01*
G01*
X160381000Y-80786000D01*
G75*
G02*
X160531000Y-80936000I0J-150000D01*
G01*
X160531000Y-81236000D01*
G75*
G02*
X160381000Y-81386000I-150000J0D01*
G01*
X158731000Y-81386000D01*
G75*
G02*
X158581000Y-81236000I0J150000D01*
G01*
G37*
G36*
G01*
X158581000Y-79966000D02*
X158581000Y-79666000D01*
G75*
G02*
X158731000Y-79516000I150000J0D01*
G01*
X160381000Y-79516000D01*
G75*
G02*
X160531000Y-79666000I0J-150000D01*
G01*
X160531000Y-79966000D01*
G75*
G02*
X160381000Y-80116000I-150000J0D01*
G01*
X158731000Y-80116000D01*
G75*
G02*
X158581000Y-79966000I0J150000D01*
G01*
G37*
G36*
G01*
X158581000Y-78696000D02*
X158581000Y-78396000D01*
G75*
G02*
X158731000Y-78246000I150000J0D01*
G01*
X160381000Y-78246000D01*
G75*
G02*
X160531000Y-78396000I0J-150000D01*
G01*
X160531000Y-78696000D01*
G75*
G02*
X160381000Y-78846000I-150000J0D01*
G01*
X158731000Y-78846000D01*
G75*
G02*
X158581000Y-78696000I0J150000D01*
G01*
G37*
%TD*%
D21*
%TO.C,MAF*%
X167176000Y-74736000D03*
X157016000Y-89976000D03*
X167176000Y-77276000D03*
X157016000Y-87436000D03*
X167176000Y-79816000D03*
X157016000Y-84896000D03*
X167176000Y-82356000D03*
X157016000Y-82356000D03*
X167176000Y-84896000D03*
X157016000Y-79816000D03*
X167176000Y-87436000D03*
X157016000Y-77276000D03*
X167176000Y-89976000D03*
D22*
X157016000Y-74736000D03*
%TD*%
%TO.C,14*%
G36*
G01*
X149531000Y-78696000D02*
X149531000Y-78396000D01*
G75*
G02*
X149681000Y-78246000I150000J0D01*
G01*
X151331000Y-78246000D01*
G75*
G02*
X151481000Y-78396000I0J-150000D01*
G01*
X151481000Y-78696000D01*
G75*
G02*
X151331000Y-78846000I-150000J0D01*
G01*
X149681000Y-78846000D01*
G75*
G02*
X149531000Y-78696000I0J150000D01*
G01*
G37*
G36*
G01*
X149531000Y-79966000D02*
X149531000Y-79666000D01*
G75*
G02*
X149681000Y-79516000I150000J0D01*
G01*
X151331000Y-79516000D01*
G75*
G02*
X151481000Y-79666000I0J-150000D01*
G01*
X151481000Y-79966000D01*
G75*
G02*
X151331000Y-80116000I-150000J0D01*
G01*
X149681000Y-80116000D01*
G75*
G02*
X149531000Y-79966000I0J150000D01*
G01*
G37*
G36*
G01*
X149531000Y-81236000D02*
X149531000Y-80936000D01*
G75*
G02*
X149681000Y-80786000I150000J0D01*
G01*
X151331000Y-80786000D01*
G75*
G02*
X151481000Y-80936000I0J-150000D01*
G01*
X151481000Y-81236000D01*
G75*
G02*
X151331000Y-81386000I-150000J0D01*
G01*
X149681000Y-81386000D01*
G75*
G02*
X149531000Y-81236000I0J150000D01*
G01*
G37*
G36*
G01*
X149531000Y-82506000D02*
X149531000Y-82206000D01*
G75*
G02*
X149681000Y-82056000I150000J0D01*
G01*
X151331000Y-82056000D01*
G75*
G02*
X151481000Y-82206000I0J-150000D01*
G01*
X151481000Y-82506000D01*
G75*
G02*
X151331000Y-82656000I-150000J0D01*
G01*
X149681000Y-82656000D01*
G75*
G02*
X149531000Y-82506000I0J150000D01*
G01*
G37*
G36*
G01*
X149531000Y-83776000D02*
X149531000Y-83476000D01*
G75*
G02*
X149681000Y-83326000I150000J0D01*
G01*
X151331000Y-83326000D01*
G75*
G02*
X151481000Y-83476000I0J-150000D01*
G01*
X151481000Y-83776000D01*
G75*
G02*
X151331000Y-83926000I-150000J0D01*
G01*
X149681000Y-83926000D01*
G75*
G02*
X149531000Y-83776000I0J150000D01*
G01*
G37*
G36*
G01*
X149531000Y-85046000D02*
X149531000Y-84746000D01*
G75*
G02*
X149681000Y-84596000I150000J0D01*
G01*
X151331000Y-84596000D01*
G75*
G02*
X151481000Y-84746000I0J-150000D01*
G01*
X151481000Y-85046000D01*
G75*
G02*
X151331000Y-85196000I-150000J0D01*
G01*
X149681000Y-85196000D01*
G75*
G02*
X149531000Y-85046000I0J150000D01*
G01*
G37*
G36*
G01*
X149531000Y-86316000D02*
X149531000Y-86016000D01*
G75*
G02*
X149681000Y-85866000I150000J0D01*
G01*
X151331000Y-85866000D01*
G75*
G02*
X151481000Y-86016000I0J-150000D01*
G01*
X151481000Y-86316000D01*
G75*
G02*
X151331000Y-86466000I-150000J0D01*
G01*
X149681000Y-86466000D01*
G75*
G02*
X149531000Y-86316000I0J150000D01*
G01*
G37*
G36*
G01*
X144581000Y-86316000D02*
X144581000Y-86016000D01*
G75*
G02*
X144731000Y-85866000I150000J0D01*
G01*
X146381000Y-85866000D01*
G75*
G02*
X146531000Y-86016000I0J-150000D01*
G01*
X146531000Y-86316000D01*
G75*
G02*
X146381000Y-86466000I-150000J0D01*
G01*
X144731000Y-86466000D01*
G75*
G02*
X144581000Y-86316000I0J150000D01*
G01*
G37*
G36*
G01*
X144581000Y-85046000D02*
X144581000Y-84746000D01*
G75*
G02*
X144731000Y-84596000I150000J0D01*
G01*
X146381000Y-84596000D01*
G75*
G02*
X146531000Y-84746000I0J-150000D01*
G01*
X146531000Y-85046000D01*
G75*
G02*
X146381000Y-85196000I-150000J0D01*
G01*
X144731000Y-85196000D01*
G75*
G02*
X144581000Y-85046000I0J150000D01*
G01*
G37*
G36*
G01*
X144581000Y-83776000D02*
X144581000Y-83476000D01*
G75*
G02*
X144731000Y-83326000I150000J0D01*
G01*
X146381000Y-83326000D01*
G75*
G02*
X146531000Y-83476000I0J-150000D01*
G01*
X146531000Y-83776000D01*
G75*
G02*
X146381000Y-83926000I-150000J0D01*
G01*
X144731000Y-83926000D01*
G75*
G02*
X144581000Y-83776000I0J150000D01*
G01*
G37*
G36*
G01*
X144581000Y-82506000D02*
X144581000Y-82206000D01*
G75*
G02*
X144731000Y-82056000I150000J0D01*
G01*
X146381000Y-82056000D01*
G75*
G02*
X146531000Y-82206000I0J-150000D01*
G01*
X146531000Y-82506000D01*
G75*
G02*
X146381000Y-82656000I-150000J0D01*
G01*
X144731000Y-82656000D01*
G75*
G02*
X144581000Y-82506000I0J150000D01*
G01*
G37*
G36*
G01*
X144581000Y-81236000D02*
X144581000Y-80936000D01*
G75*
G02*
X144731000Y-80786000I150000J0D01*
G01*
X146381000Y-80786000D01*
G75*
G02*
X146531000Y-80936000I0J-150000D01*
G01*
X146531000Y-81236000D01*
G75*
G02*
X146381000Y-81386000I-150000J0D01*
G01*
X144731000Y-81386000D01*
G75*
G02*
X144581000Y-81236000I0J150000D01*
G01*
G37*
G36*
G01*
X144581000Y-79966000D02*
X144581000Y-79666000D01*
G75*
G02*
X144731000Y-79516000I150000J0D01*
G01*
X146381000Y-79516000D01*
G75*
G02*
X146531000Y-79666000I0J-150000D01*
G01*
X146531000Y-79966000D01*
G75*
G02*
X146381000Y-80116000I-150000J0D01*
G01*
X144731000Y-80116000D01*
G75*
G02*
X144581000Y-79966000I0J150000D01*
G01*
G37*
G36*
G01*
X144581000Y-78696000D02*
X144581000Y-78396000D01*
G75*
G02*
X144731000Y-78246000I150000J0D01*
G01*
X146381000Y-78246000D01*
G75*
G02*
X146531000Y-78396000I0J-150000D01*
G01*
X146531000Y-78696000D01*
G75*
G02*
X146381000Y-78846000I-150000J0D01*
G01*
X144731000Y-78846000D01*
G75*
G02*
X144581000Y-78696000I0J150000D01*
G01*
G37*
%TD*%
D21*
%TO.C,MAF*%
X153176000Y-74736000D03*
X143016000Y-89976000D03*
X153176000Y-77276000D03*
X143016000Y-87436000D03*
X153176000Y-79816000D03*
X143016000Y-84896000D03*
X153176000Y-82356000D03*
X143016000Y-82356000D03*
X153176000Y-84896000D03*
X143016000Y-79816000D03*
X153176000Y-87436000D03*
X143016000Y-77276000D03*
X153176000Y-89976000D03*
D22*
X143016000Y-74736000D03*
%TD*%
%TO.C,16*%
G36*
G01*
X130615000Y-76922000D02*
X130615000Y-76622000D01*
G75*
G02*
X130765000Y-76472000I150000J0D01*
G01*
X132415000Y-76472000D01*
G75*
G02*
X132565000Y-76622000I0J-150000D01*
G01*
X132565000Y-76922000D01*
G75*
G02*
X132415000Y-77072000I-150000J0D01*
G01*
X130765000Y-77072000D01*
G75*
G02*
X130615000Y-76922000I0J150000D01*
G01*
G37*
G36*
G01*
X130615000Y-78192000D02*
X130615000Y-77892000D01*
G75*
G02*
X130765000Y-77742000I150000J0D01*
G01*
X132415000Y-77742000D01*
G75*
G02*
X132565000Y-77892000I0J-150000D01*
G01*
X132565000Y-78192000D01*
G75*
G02*
X132415000Y-78342000I-150000J0D01*
G01*
X130765000Y-78342000D01*
G75*
G02*
X130615000Y-78192000I0J150000D01*
G01*
G37*
G36*
G01*
X130615000Y-79462000D02*
X130615000Y-79162000D01*
G75*
G02*
X130765000Y-79012000I150000J0D01*
G01*
X132415000Y-79012000D01*
G75*
G02*
X132565000Y-79162000I0J-150000D01*
G01*
X132565000Y-79462000D01*
G75*
G02*
X132415000Y-79612000I-150000J0D01*
G01*
X130765000Y-79612000D01*
G75*
G02*
X130615000Y-79462000I0J150000D01*
G01*
G37*
G36*
G01*
X130615000Y-80732000D02*
X130615000Y-80432000D01*
G75*
G02*
X130765000Y-80282000I150000J0D01*
G01*
X132415000Y-80282000D01*
G75*
G02*
X132565000Y-80432000I0J-150000D01*
G01*
X132565000Y-80732000D01*
G75*
G02*
X132415000Y-80882000I-150000J0D01*
G01*
X130765000Y-80882000D01*
G75*
G02*
X130615000Y-80732000I0J150000D01*
G01*
G37*
G36*
G01*
X130615000Y-82002000D02*
X130615000Y-81702000D01*
G75*
G02*
X130765000Y-81552000I150000J0D01*
G01*
X132415000Y-81552000D01*
G75*
G02*
X132565000Y-81702000I0J-150000D01*
G01*
X132565000Y-82002000D01*
G75*
G02*
X132415000Y-82152000I-150000J0D01*
G01*
X130765000Y-82152000D01*
G75*
G02*
X130615000Y-82002000I0J150000D01*
G01*
G37*
G36*
G01*
X130615000Y-83272000D02*
X130615000Y-82972000D01*
G75*
G02*
X130765000Y-82822000I150000J0D01*
G01*
X132415000Y-82822000D01*
G75*
G02*
X132565000Y-82972000I0J-150000D01*
G01*
X132565000Y-83272000D01*
G75*
G02*
X132415000Y-83422000I-150000J0D01*
G01*
X130765000Y-83422000D01*
G75*
G02*
X130615000Y-83272000I0J150000D01*
G01*
G37*
G36*
G01*
X130615000Y-84542000D02*
X130615000Y-84242000D01*
G75*
G02*
X130765000Y-84092000I150000J0D01*
G01*
X132415000Y-84092000D01*
G75*
G02*
X132565000Y-84242000I0J-150000D01*
G01*
X132565000Y-84542000D01*
G75*
G02*
X132415000Y-84692000I-150000J0D01*
G01*
X130765000Y-84692000D01*
G75*
G02*
X130615000Y-84542000I0J150000D01*
G01*
G37*
G36*
G01*
X130615000Y-85812000D02*
X130615000Y-85512000D01*
G75*
G02*
X130765000Y-85362000I150000J0D01*
G01*
X132415000Y-85362000D01*
G75*
G02*
X132565000Y-85512000I0J-150000D01*
G01*
X132565000Y-85812000D01*
G75*
G02*
X132415000Y-85962000I-150000J0D01*
G01*
X130765000Y-85962000D01*
G75*
G02*
X130615000Y-85812000I0J150000D01*
G01*
G37*
G36*
G01*
X135565000Y-85812000D02*
X135565000Y-85512000D01*
G75*
G02*
X135715000Y-85362000I150000J0D01*
G01*
X137365000Y-85362000D01*
G75*
G02*
X137515000Y-85512000I0J-150000D01*
G01*
X137515000Y-85812000D01*
G75*
G02*
X137365000Y-85962000I-150000J0D01*
G01*
X135715000Y-85962000D01*
G75*
G02*
X135565000Y-85812000I0J150000D01*
G01*
G37*
G36*
G01*
X135565000Y-84542000D02*
X135565000Y-84242000D01*
G75*
G02*
X135715000Y-84092000I150000J0D01*
G01*
X137365000Y-84092000D01*
G75*
G02*
X137515000Y-84242000I0J-150000D01*
G01*
X137515000Y-84542000D01*
G75*
G02*
X137365000Y-84692000I-150000J0D01*
G01*
X135715000Y-84692000D01*
G75*
G02*
X135565000Y-84542000I0J150000D01*
G01*
G37*
G36*
G01*
X135565000Y-83272000D02*
X135565000Y-82972000D01*
G75*
G02*
X135715000Y-82822000I150000J0D01*
G01*
X137365000Y-82822000D01*
G75*
G02*
X137515000Y-82972000I0J-150000D01*
G01*
X137515000Y-83272000D01*
G75*
G02*
X137365000Y-83422000I-150000J0D01*
G01*
X135715000Y-83422000D01*
G75*
G02*
X135565000Y-83272000I0J150000D01*
G01*
G37*
G36*
G01*
X135565000Y-82002000D02*
X135565000Y-81702000D01*
G75*
G02*
X135715000Y-81552000I150000J0D01*
G01*
X137365000Y-81552000D01*
G75*
G02*
X137515000Y-81702000I0J-150000D01*
G01*
X137515000Y-82002000D01*
G75*
G02*
X137365000Y-82152000I-150000J0D01*
G01*
X135715000Y-82152000D01*
G75*
G02*
X135565000Y-82002000I0J150000D01*
G01*
G37*
G36*
G01*
X135565000Y-80732000D02*
X135565000Y-80432000D01*
G75*
G02*
X135715000Y-80282000I150000J0D01*
G01*
X137365000Y-80282000D01*
G75*
G02*
X137515000Y-80432000I0J-150000D01*
G01*
X137515000Y-80732000D01*
G75*
G02*
X137365000Y-80882000I-150000J0D01*
G01*
X135715000Y-80882000D01*
G75*
G02*
X135565000Y-80732000I0J150000D01*
G01*
G37*
G36*
G01*
X135565000Y-79462000D02*
X135565000Y-79162000D01*
G75*
G02*
X135715000Y-79012000I150000J0D01*
G01*
X137365000Y-79012000D01*
G75*
G02*
X137515000Y-79162000I0J-150000D01*
G01*
X137515000Y-79462000D01*
G75*
G02*
X137365000Y-79612000I-150000J0D01*
G01*
X135715000Y-79612000D01*
G75*
G02*
X135565000Y-79462000I0J150000D01*
G01*
G37*
G36*
G01*
X135565000Y-78192000D02*
X135565000Y-77892000D01*
G75*
G02*
X135715000Y-77742000I150000J0D01*
G01*
X137365000Y-77742000D01*
G75*
G02*
X137515000Y-77892000I0J-150000D01*
G01*
X137515000Y-78192000D01*
G75*
G02*
X137365000Y-78342000I-150000J0D01*
G01*
X135715000Y-78342000D01*
G75*
G02*
X135565000Y-78192000I0J150000D01*
G01*
G37*
G36*
G01*
X135565000Y-76922000D02*
X135565000Y-76622000D01*
G75*
G02*
X135715000Y-76472000I150000J0D01*
G01*
X137365000Y-76472000D01*
G75*
G02*
X137515000Y-76622000I0J-150000D01*
G01*
X137515000Y-76922000D01*
G75*
G02*
X137365000Y-77072000I-150000J0D01*
G01*
X135715000Y-77072000D01*
G75*
G02*
X135565000Y-76922000I0J150000D01*
G01*
G37*
%TD*%
%TO.C,MAF*%
X129050000Y-72200000D03*
D21*
X139210000Y-89980000D03*
X129050000Y-74740000D03*
X139210000Y-87440000D03*
X129050000Y-77280000D03*
X139210000Y-84900000D03*
X129050000Y-79820000D03*
X139210000Y-82360000D03*
X129050000Y-82360000D03*
X139210000Y-79820000D03*
X129050000Y-84900000D03*
X139210000Y-77280000D03*
X129050000Y-87440000D03*
X139210000Y-74740000D03*
X129050000Y-89980000D03*
X139210000Y-72200000D03*
%TD*%
%TO.C,16*%
G36*
G01*
X116615000Y-76922000D02*
X116615000Y-76622000D01*
G75*
G02*
X116765000Y-76472000I150000J0D01*
G01*
X118415000Y-76472000D01*
G75*
G02*
X118565000Y-76622000I0J-150000D01*
G01*
X118565000Y-76922000D01*
G75*
G02*
X118415000Y-77072000I-150000J0D01*
G01*
X116765000Y-77072000D01*
G75*
G02*
X116615000Y-76922000I0J150000D01*
G01*
G37*
G36*
G01*
X116615000Y-78192000D02*
X116615000Y-77892000D01*
G75*
G02*
X116765000Y-77742000I150000J0D01*
G01*
X118415000Y-77742000D01*
G75*
G02*
X118565000Y-77892000I0J-150000D01*
G01*
X118565000Y-78192000D01*
G75*
G02*
X118415000Y-78342000I-150000J0D01*
G01*
X116765000Y-78342000D01*
G75*
G02*
X116615000Y-78192000I0J150000D01*
G01*
G37*
G36*
G01*
X116615000Y-79462000D02*
X116615000Y-79162000D01*
G75*
G02*
X116765000Y-79012000I150000J0D01*
G01*
X118415000Y-79012000D01*
G75*
G02*
X118565000Y-79162000I0J-150000D01*
G01*
X118565000Y-79462000D01*
G75*
G02*
X118415000Y-79612000I-150000J0D01*
G01*
X116765000Y-79612000D01*
G75*
G02*
X116615000Y-79462000I0J150000D01*
G01*
G37*
G36*
G01*
X116615000Y-80732000D02*
X116615000Y-80432000D01*
G75*
G02*
X116765000Y-80282000I150000J0D01*
G01*
X118415000Y-80282000D01*
G75*
G02*
X118565000Y-80432000I0J-150000D01*
G01*
X118565000Y-80732000D01*
G75*
G02*
X118415000Y-80882000I-150000J0D01*
G01*
X116765000Y-80882000D01*
G75*
G02*
X116615000Y-80732000I0J150000D01*
G01*
G37*
G36*
G01*
X116615000Y-82002000D02*
X116615000Y-81702000D01*
G75*
G02*
X116765000Y-81552000I150000J0D01*
G01*
X118415000Y-81552000D01*
G75*
G02*
X118565000Y-81702000I0J-150000D01*
G01*
X118565000Y-82002000D01*
G75*
G02*
X118415000Y-82152000I-150000J0D01*
G01*
X116765000Y-82152000D01*
G75*
G02*
X116615000Y-82002000I0J150000D01*
G01*
G37*
G36*
G01*
X116615000Y-83272000D02*
X116615000Y-82972000D01*
G75*
G02*
X116765000Y-82822000I150000J0D01*
G01*
X118415000Y-82822000D01*
G75*
G02*
X118565000Y-82972000I0J-150000D01*
G01*
X118565000Y-83272000D01*
G75*
G02*
X118415000Y-83422000I-150000J0D01*
G01*
X116765000Y-83422000D01*
G75*
G02*
X116615000Y-83272000I0J150000D01*
G01*
G37*
G36*
G01*
X116615000Y-84542000D02*
X116615000Y-84242000D01*
G75*
G02*
X116765000Y-84092000I150000J0D01*
G01*
X118415000Y-84092000D01*
G75*
G02*
X118565000Y-84242000I0J-150000D01*
G01*
X118565000Y-84542000D01*
G75*
G02*
X118415000Y-84692000I-150000J0D01*
G01*
X116765000Y-84692000D01*
G75*
G02*
X116615000Y-84542000I0J150000D01*
G01*
G37*
G36*
G01*
X116615000Y-85812000D02*
X116615000Y-85512000D01*
G75*
G02*
X116765000Y-85362000I150000J0D01*
G01*
X118415000Y-85362000D01*
G75*
G02*
X118565000Y-85512000I0J-150000D01*
G01*
X118565000Y-85812000D01*
G75*
G02*
X118415000Y-85962000I-150000J0D01*
G01*
X116765000Y-85962000D01*
G75*
G02*
X116615000Y-85812000I0J150000D01*
G01*
G37*
G36*
G01*
X121565000Y-85812000D02*
X121565000Y-85512000D01*
G75*
G02*
X121715000Y-85362000I150000J0D01*
G01*
X123365000Y-85362000D01*
G75*
G02*
X123515000Y-85512000I0J-150000D01*
G01*
X123515000Y-85812000D01*
G75*
G02*
X123365000Y-85962000I-150000J0D01*
G01*
X121715000Y-85962000D01*
G75*
G02*
X121565000Y-85812000I0J150000D01*
G01*
G37*
G36*
G01*
X121565000Y-84542000D02*
X121565000Y-84242000D01*
G75*
G02*
X121715000Y-84092000I150000J0D01*
G01*
X123365000Y-84092000D01*
G75*
G02*
X123515000Y-84242000I0J-150000D01*
G01*
X123515000Y-84542000D01*
G75*
G02*
X123365000Y-84692000I-150000J0D01*
G01*
X121715000Y-84692000D01*
G75*
G02*
X121565000Y-84542000I0J150000D01*
G01*
G37*
G36*
G01*
X121565000Y-83272000D02*
X121565000Y-82972000D01*
G75*
G02*
X121715000Y-82822000I150000J0D01*
G01*
X123365000Y-82822000D01*
G75*
G02*
X123515000Y-82972000I0J-150000D01*
G01*
X123515000Y-83272000D01*
G75*
G02*
X123365000Y-83422000I-150000J0D01*
G01*
X121715000Y-83422000D01*
G75*
G02*
X121565000Y-83272000I0J150000D01*
G01*
G37*
G36*
G01*
X121565000Y-82002000D02*
X121565000Y-81702000D01*
G75*
G02*
X121715000Y-81552000I150000J0D01*
G01*
X123365000Y-81552000D01*
G75*
G02*
X123515000Y-81702000I0J-150000D01*
G01*
X123515000Y-82002000D01*
G75*
G02*
X123365000Y-82152000I-150000J0D01*
G01*
X121715000Y-82152000D01*
G75*
G02*
X121565000Y-82002000I0J150000D01*
G01*
G37*
G36*
G01*
X121565000Y-80732000D02*
X121565000Y-80432000D01*
G75*
G02*
X121715000Y-80282000I150000J0D01*
G01*
X123365000Y-80282000D01*
G75*
G02*
X123515000Y-80432000I0J-150000D01*
G01*
X123515000Y-80732000D01*
G75*
G02*
X123365000Y-80882000I-150000J0D01*
G01*
X121715000Y-80882000D01*
G75*
G02*
X121565000Y-80732000I0J150000D01*
G01*
G37*
G36*
G01*
X121565000Y-79462000D02*
X121565000Y-79162000D01*
G75*
G02*
X121715000Y-79012000I150000J0D01*
G01*
X123365000Y-79012000D01*
G75*
G02*
X123515000Y-79162000I0J-150000D01*
G01*
X123515000Y-79462000D01*
G75*
G02*
X123365000Y-79612000I-150000J0D01*
G01*
X121715000Y-79612000D01*
G75*
G02*
X121565000Y-79462000I0J150000D01*
G01*
G37*
G36*
G01*
X121565000Y-78192000D02*
X121565000Y-77892000D01*
G75*
G02*
X121715000Y-77742000I150000J0D01*
G01*
X123365000Y-77742000D01*
G75*
G02*
X123515000Y-77892000I0J-150000D01*
G01*
X123515000Y-78192000D01*
G75*
G02*
X123365000Y-78342000I-150000J0D01*
G01*
X121715000Y-78342000D01*
G75*
G02*
X121565000Y-78192000I0J150000D01*
G01*
G37*
G36*
G01*
X121565000Y-76922000D02*
X121565000Y-76622000D01*
G75*
G02*
X121715000Y-76472000I150000J0D01*
G01*
X123365000Y-76472000D01*
G75*
G02*
X123515000Y-76622000I0J-150000D01*
G01*
X123515000Y-76922000D01*
G75*
G02*
X123365000Y-77072000I-150000J0D01*
G01*
X121715000Y-77072000D01*
G75*
G02*
X121565000Y-76922000I0J150000D01*
G01*
G37*
%TD*%
D22*
%TO.C,MAF*%
X115050000Y-72200000D03*
D21*
X125210000Y-89980000D03*
X115050000Y-74740000D03*
X125210000Y-87440000D03*
X115050000Y-77280000D03*
X125210000Y-84900000D03*
X115050000Y-79820000D03*
X125210000Y-82360000D03*
X115050000Y-82360000D03*
X125210000Y-79820000D03*
X115050000Y-84900000D03*
X125210000Y-77280000D03*
X115050000Y-87440000D03*
X125210000Y-74740000D03*
X115050000Y-89980000D03*
X125210000Y-72200000D03*
%TD*%
%TO.C,MAF*%
X111176000Y-72196000D03*
X101016000Y-89976000D03*
X111176000Y-74736000D03*
X101016000Y-87436000D03*
X111176000Y-77276000D03*
X101016000Y-84896000D03*
X111176000Y-79816000D03*
X101016000Y-82356000D03*
X111176000Y-82356000D03*
X101016000Y-79816000D03*
X111176000Y-84896000D03*
X101016000Y-77276000D03*
X111176000Y-87436000D03*
X101016000Y-74736000D03*
X111176000Y-89976000D03*
D22*
X101016000Y-72196000D03*
%TD*%
%TO.C,16*%
G36*
G01*
X107531000Y-76918000D02*
X107531000Y-76618000D01*
G75*
G02*
X107681000Y-76468000I150000J0D01*
G01*
X109331000Y-76468000D01*
G75*
G02*
X109481000Y-76618000I0J-150000D01*
G01*
X109481000Y-76918000D01*
G75*
G02*
X109331000Y-77068000I-150000J0D01*
G01*
X107681000Y-77068000D01*
G75*
G02*
X107531000Y-76918000I0J150000D01*
G01*
G37*
G36*
G01*
X107531000Y-78188000D02*
X107531000Y-77888000D01*
G75*
G02*
X107681000Y-77738000I150000J0D01*
G01*
X109331000Y-77738000D01*
G75*
G02*
X109481000Y-77888000I0J-150000D01*
G01*
X109481000Y-78188000D01*
G75*
G02*
X109331000Y-78338000I-150000J0D01*
G01*
X107681000Y-78338000D01*
G75*
G02*
X107531000Y-78188000I0J150000D01*
G01*
G37*
G36*
G01*
X107531000Y-79458000D02*
X107531000Y-79158000D01*
G75*
G02*
X107681000Y-79008000I150000J0D01*
G01*
X109331000Y-79008000D01*
G75*
G02*
X109481000Y-79158000I0J-150000D01*
G01*
X109481000Y-79458000D01*
G75*
G02*
X109331000Y-79608000I-150000J0D01*
G01*
X107681000Y-79608000D01*
G75*
G02*
X107531000Y-79458000I0J150000D01*
G01*
G37*
G36*
G01*
X107531000Y-80728000D02*
X107531000Y-80428000D01*
G75*
G02*
X107681000Y-80278000I150000J0D01*
G01*
X109331000Y-80278000D01*
G75*
G02*
X109481000Y-80428000I0J-150000D01*
G01*
X109481000Y-80728000D01*
G75*
G02*
X109331000Y-80878000I-150000J0D01*
G01*
X107681000Y-80878000D01*
G75*
G02*
X107531000Y-80728000I0J150000D01*
G01*
G37*
G36*
G01*
X107531000Y-81998000D02*
X107531000Y-81698000D01*
G75*
G02*
X107681000Y-81548000I150000J0D01*
G01*
X109331000Y-81548000D01*
G75*
G02*
X109481000Y-81698000I0J-150000D01*
G01*
X109481000Y-81998000D01*
G75*
G02*
X109331000Y-82148000I-150000J0D01*
G01*
X107681000Y-82148000D01*
G75*
G02*
X107531000Y-81998000I0J150000D01*
G01*
G37*
G36*
G01*
X107531000Y-83268000D02*
X107531000Y-82968000D01*
G75*
G02*
X107681000Y-82818000I150000J0D01*
G01*
X109331000Y-82818000D01*
G75*
G02*
X109481000Y-82968000I0J-150000D01*
G01*
X109481000Y-83268000D01*
G75*
G02*
X109331000Y-83418000I-150000J0D01*
G01*
X107681000Y-83418000D01*
G75*
G02*
X107531000Y-83268000I0J150000D01*
G01*
G37*
G36*
G01*
X107531000Y-84538000D02*
X107531000Y-84238000D01*
G75*
G02*
X107681000Y-84088000I150000J0D01*
G01*
X109331000Y-84088000D01*
G75*
G02*
X109481000Y-84238000I0J-150000D01*
G01*
X109481000Y-84538000D01*
G75*
G02*
X109331000Y-84688000I-150000J0D01*
G01*
X107681000Y-84688000D01*
G75*
G02*
X107531000Y-84538000I0J150000D01*
G01*
G37*
G36*
G01*
X107531000Y-85808000D02*
X107531000Y-85508000D01*
G75*
G02*
X107681000Y-85358000I150000J0D01*
G01*
X109331000Y-85358000D01*
G75*
G02*
X109481000Y-85508000I0J-150000D01*
G01*
X109481000Y-85808000D01*
G75*
G02*
X109331000Y-85958000I-150000J0D01*
G01*
X107681000Y-85958000D01*
G75*
G02*
X107531000Y-85808000I0J150000D01*
G01*
G37*
G36*
G01*
X102581000Y-85808000D02*
X102581000Y-85508000D01*
G75*
G02*
X102731000Y-85358000I150000J0D01*
G01*
X104381000Y-85358000D01*
G75*
G02*
X104531000Y-85508000I0J-150000D01*
G01*
X104531000Y-85808000D01*
G75*
G02*
X104381000Y-85958000I-150000J0D01*
G01*
X102731000Y-85958000D01*
G75*
G02*
X102581000Y-85808000I0J150000D01*
G01*
G37*
G36*
G01*
X102581000Y-84538000D02*
X102581000Y-84238000D01*
G75*
G02*
X102731000Y-84088000I150000J0D01*
G01*
X104381000Y-84088000D01*
G75*
G02*
X104531000Y-84238000I0J-150000D01*
G01*
X104531000Y-84538000D01*
G75*
G02*
X104381000Y-84688000I-150000J0D01*
G01*
X102731000Y-84688000D01*
G75*
G02*
X102581000Y-84538000I0J150000D01*
G01*
G37*
G36*
G01*
X102581000Y-83268000D02*
X102581000Y-82968000D01*
G75*
G02*
X102731000Y-82818000I150000J0D01*
G01*
X104381000Y-82818000D01*
G75*
G02*
X104531000Y-82968000I0J-150000D01*
G01*
X104531000Y-83268000D01*
G75*
G02*
X104381000Y-83418000I-150000J0D01*
G01*
X102731000Y-83418000D01*
G75*
G02*
X102581000Y-83268000I0J150000D01*
G01*
G37*
G36*
G01*
X102581000Y-81998000D02*
X102581000Y-81698000D01*
G75*
G02*
X102731000Y-81548000I150000J0D01*
G01*
X104381000Y-81548000D01*
G75*
G02*
X104531000Y-81698000I0J-150000D01*
G01*
X104531000Y-81998000D01*
G75*
G02*
X104381000Y-82148000I-150000J0D01*
G01*
X102731000Y-82148000D01*
G75*
G02*
X102581000Y-81998000I0J150000D01*
G01*
G37*
G36*
G01*
X102581000Y-80728000D02*
X102581000Y-80428000D01*
G75*
G02*
X102731000Y-80278000I150000J0D01*
G01*
X104381000Y-80278000D01*
G75*
G02*
X104531000Y-80428000I0J-150000D01*
G01*
X104531000Y-80728000D01*
G75*
G02*
X104381000Y-80878000I-150000J0D01*
G01*
X102731000Y-80878000D01*
G75*
G02*
X102581000Y-80728000I0J150000D01*
G01*
G37*
G36*
G01*
X102581000Y-79458000D02*
X102581000Y-79158000D01*
G75*
G02*
X102731000Y-79008000I150000J0D01*
G01*
X104381000Y-79008000D01*
G75*
G02*
X104531000Y-79158000I0J-150000D01*
G01*
X104531000Y-79458000D01*
G75*
G02*
X104381000Y-79608000I-150000J0D01*
G01*
X102731000Y-79608000D01*
G75*
G02*
X102581000Y-79458000I0J150000D01*
G01*
G37*
G36*
G01*
X102581000Y-78188000D02*
X102581000Y-77888000D01*
G75*
G02*
X102731000Y-77738000I150000J0D01*
G01*
X104381000Y-77738000D01*
G75*
G02*
X104531000Y-77888000I0J-150000D01*
G01*
X104531000Y-78188000D01*
G75*
G02*
X104381000Y-78338000I-150000J0D01*
G01*
X102731000Y-78338000D01*
G75*
G02*
X102581000Y-78188000I0J150000D01*
G01*
G37*
G36*
G01*
X102581000Y-76918000D02*
X102581000Y-76618000D01*
G75*
G02*
X102731000Y-76468000I150000J0D01*
G01*
X104381000Y-76468000D01*
G75*
G02*
X104531000Y-76618000I0J-150000D01*
G01*
X104531000Y-76918000D01*
G75*
G02*
X104381000Y-77068000I-150000J0D01*
G01*
X102731000Y-77068000D01*
G75*
G02*
X102581000Y-76918000I0J150000D01*
G01*
G37*
%TD*%
D10*
%TO.C,23*%
X121010000Y-45656000D03*
X121010000Y-43116000D03*
X121010000Y-40576000D03*
%TD*%
%TO.C,SOT*%
G36*
G01*
X117124000Y-42816000D02*
X117124000Y-43416000D01*
G75*
G02*
X117054000Y-43486000I-70000J0D01*
G01*
X115754000Y-43486000D01*
G75*
G02*
X115684000Y-43416000I0J70000D01*
G01*
X115684000Y-42816000D01*
G75*
G02*
X115754000Y-42746000I70000J0D01*
G01*
X117054000Y-42746000D01*
G75*
G02*
X117124000Y-42816000I0J-70000D01*
G01*
G37*
G36*
G01*
X119224000Y-41866000D02*
X119224000Y-42466000D01*
G75*
G02*
X119154000Y-42536000I-70000J0D01*
G01*
X117854000Y-42536000D01*
G75*
G02*
X117784000Y-42466000I0J70000D01*
G01*
X117784000Y-41866000D01*
G75*
G02*
X117854000Y-41796000I70000J0D01*
G01*
X119154000Y-41796000D01*
G75*
G02*
X119224000Y-41866000I0J-70000D01*
G01*
G37*
G36*
G01*
X119224000Y-43766000D02*
X119224000Y-44366000D01*
G75*
G02*
X119154000Y-44436000I-70000J0D01*
G01*
X117854000Y-44436000D01*
G75*
G02*
X117784000Y-44366000I0J70000D01*
G01*
X117784000Y-43766000D01*
G75*
G02*
X117854000Y-43696000I70000J0D01*
G01*
X119154000Y-43696000D01*
G75*
G02*
X119224000Y-43766000I0J-70000D01*
G01*
G37*
%TD*%
%TO.C,R105*%
G36*
G01*
X191325000Y-118875000D02*
X191325000Y-118325000D01*
G75*
G02*
X191525000Y-118125000I200000J0D01*
G01*
X191925000Y-118125000D01*
G75*
G02*
X192125000Y-118325000I0J-200000D01*
G01*
X192125000Y-118875000D01*
G75*
G02*
X191925000Y-119075000I-200000J0D01*
G01*
X191525000Y-119075000D01*
G75*
G02*
X191325000Y-118875000I0J200000D01*
G01*
G37*
G36*
G01*
X192975000Y-118875000D02*
X192975000Y-118325000D01*
G75*
G02*
X193175000Y-118125000I200000J0D01*
G01*
X193575000Y-118125000D01*
G75*
G02*
X193775000Y-118325000I0J-200000D01*
G01*
X193775000Y-118875000D01*
G75*
G02*
X193575000Y-119075000I-200000J0D01*
G01*
X193175000Y-119075000D01*
G75*
G02*
X192975000Y-118875000I0J200000D01*
G01*
G37*
%TD*%
%TO.C,R106*%
G36*
G01*
X183000000Y-95275000D02*
X183000000Y-94725000D01*
G75*
G02*
X183200000Y-94525000I200000J0D01*
G01*
X183600000Y-94525000D01*
G75*
G02*
X183800000Y-94725000I0J-200000D01*
G01*
X183800000Y-95275000D01*
G75*
G02*
X183600000Y-95475000I-200000J0D01*
G01*
X183200000Y-95475000D01*
G75*
G02*
X183000000Y-95275000I0J200000D01*
G01*
G37*
G36*
G01*
X181350000Y-95275000D02*
X181350000Y-94725000D01*
G75*
G02*
X181550000Y-94525000I200000J0D01*
G01*
X181950000Y-94525000D01*
G75*
G02*
X182150000Y-94725000I0J-200000D01*
G01*
X182150000Y-95275000D01*
G75*
G02*
X181950000Y-95475000I-200000J0D01*
G01*
X181550000Y-95475000D01*
G75*
G02*
X181350000Y-95275000I0J200000D01*
G01*
G37*
%TD*%
D21*
%TO.C,U102*%
X192520000Y-98100000D03*
X184900000Y-115880000D03*
X192520000Y-100640000D03*
X184900000Y-113340000D03*
X192520000Y-103180000D03*
X184900000Y-110800000D03*
X192520000Y-105720000D03*
X184900000Y-108260000D03*
X192520000Y-108260000D03*
X184900000Y-105720000D03*
X192520000Y-110800000D03*
X184900000Y-103180000D03*
X192520000Y-113340000D03*
X184900000Y-100640000D03*
X192520000Y-115880000D03*
D22*
X184900000Y-98100000D03*
%TD*%
D21*
%TO.C,U101*%
X190220000Y-98100000D03*
X182600000Y-115880000D03*
X190220000Y-100640000D03*
X182600000Y-113340000D03*
X190220000Y-103180000D03*
X182600000Y-110800000D03*
X190220000Y-105720000D03*
X182600000Y-108260000D03*
X190220000Y-108260000D03*
X182600000Y-105720000D03*
X190220000Y-110800000D03*
X182600000Y-103180000D03*
X190220000Y-113340000D03*
X182600000Y-100640000D03*
X190220000Y-115880000D03*
D22*
X182600000Y-98100000D03*
%TD*%
D23*
%TO.C,C101*%
X185000000Y-118500000D03*
X190000000Y-118500000D03*
%TD*%
%TO.C,R104*%
G36*
G01*
X193075000Y-94475000D02*
X192525000Y-94475000D01*
G75*
G02*
X192325000Y-94275000I0J200000D01*
G01*
X192325000Y-93875000D01*
G75*
G02*
X192525000Y-93675000I200000J0D01*
G01*
X193075000Y-93675000D01*
G75*
G02*
X193275000Y-93875000I0J-200000D01*
G01*
X193275000Y-94275000D01*
G75*
G02*
X193075000Y-94475000I-200000J0D01*
G01*
G37*
G36*
G01*
X193075000Y-96125000D02*
X192525000Y-96125000D01*
G75*
G02*
X192325000Y-95925000I0J200000D01*
G01*
X192325000Y-95525000D01*
G75*
G02*
X192525000Y-95325000I200000J0D01*
G01*
X193075000Y-95325000D01*
G75*
G02*
X193275000Y-95525000I0J-200000D01*
G01*
X193275000Y-95925000D01*
G75*
G02*
X193075000Y-96125000I-200000J0D01*
G01*
G37*
%TD*%
D24*
%TO.C,Q103*%
X184900000Y-94850000D03*
X186900000Y-93900000D03*
X186900000Y-95800000D03*
%TD*%
%TO.C,Q102*%
X191000000Y-94850000D03*
X189000000Y-95800000D03*
X189000000Y-93900000D03*
%TD*%
%TO.C,R105*%
G36*
G01*
X175325000Y-118875000D02*
X175325000Y-118325000D01*
G75*
G02*
X175525000Y-118125000I200000J0D01*
G01*
X175925000Y-118125000D01*
G75*
G02*
X176125000Y-118325000I0J-200000D01*
G01*
X176125000Y-118875000D01*
G75*
G02*
X175925000Y-119075000I-200000J0D01*
G01*
X175525000Y-119075000D01*
G75*
G02*
X175325000Y-118875000I0J200000D01*
G01*
G37*
G36*
G01*
X176975000Y-118875000D02*
X176975000Y-118325000D01*
G75*
G02*
X177175000Y-118125000I200000J0D01*
G01*
X177575000Y-118125000D01*
G75*
G02*
X177775000Y-118325000I0J-200000D01*
G01*
X177775000Y-118875000D01*
G75*
G02*
X177575000Y-119075000I-200000J0D01*
G01*
X177175000Y-119075000D01*
G75*
G02*
X176975000Y-118875000I0J200000D01*
G01*
G37*
%TD*%
%TO.C,R106*%
G36*
G01*
X167000000Y-95275000D02*
X167000000Y-94725000D01*
G75*
G02*
X167200000Y-94525000I200000J0D01*
G01*
X167600000Y-94525000D01*
G75*
G02*
X167800000Y-94725000I0J-200000D01*
G01*
X167800000Y-95275000D01*
G75*
G02*
X167600000Y-95475000I-200000J0D01*
G01*
X167200000Y-95475000D01*
G75*
G02*
X167000000Y-95275000I0J200000D01*
G01*
G37*
G36*
G01*
X165350000Y-95275000D02*
X165350000Y-94725000D01*
G75*
G02*
X165550000Y-94525000I200000J0D01*
G01*
X165950000Y-94525000D01*
G75*
G02*
X166150000Y-94725000I0J-200000D01*
G01*
X166150000Y-95275000D01*
G75*
G02*
X165950000Y-95475000I-200000J0D01*
G01*
X165550000Y-95475000D01*
G75*
G02*
X165350000Y-95275000I0J200000D01*
G01*
G37*
%TD*%
D21*
%TO.C,U102*%
X176520000Y-98100000D03*
X168900000Y-115880000D03*
X176520000Y-100640000D03*
X168900000Y-113340000D03*
X176520000Y-103180000D03*
X168900000Y-110800000D03*
X176520000Y-105720000D03*
X168900000Y-108260000D03*
X176520000Y-108260000D03*
X168900000Y-105720000D03*
X176520000Y-110800000D03*
X168900000Y-103180000D03*
X176520000Y-113340000D03*
X168900000Y-100640000D03*
X176520000Y-115880000D03*
D22*
X168900000Y-98100000D03*
%TD*%
D21*
%TO.C,U101*%
X174220000Y-98100000D03*
X166600000Y-115880000D03*
X174220000Y-100640000D03*
X166600000Y-113340000D03*
X174220000Y-103180000D03*
X166600000Y-110800000D03*
X174220000Y-105720000D03*
X166600000Y-108260000D03*
X174220000Y-108260000D03*
X166600000Y-105720000D03*
X174220000Y-110800000D03*
X166600000Y-103180000D03*
X174220000Y-113340000D03*
X166600000Y-100640000D03*
X174220000Y-115880000D03*
D22*
X166600000Y-98100000D03*
%TD*%
D23*
%TO.C,C101*%
X169000000Y-118500000D03*
X174000000Y-118500000D03*
%TD*%
%TO.C,R104*%
G36*
G01*
X177075000Y-94475000D02*
X176525000Y-94475000D01*
G75*
G02*
X176325000Y-94275000I0J200000D01*
G01*
X176325000Y-93875000D01*
G75*
G02*
X176525000Y-93675000I200000J0D01*
G01*
X177075000Y-93675000D01*
G75*
G02*
X177275000Y-93875000I0J-200000D01*
G01*
X177275000Y-94275000D01*
G75*
G02*
X177075000Y-94475000I-200000J0D01*
G01*
G37*
G36*
G01*
X177075000Y-96125000D02*
X176525000Y-96125000D01*
G75*
G02*
X176325000Y-95925000I0J200000D01*
G01*
X176325000Y-95525000D01*
G75*
G02*
X176525000Y-95325000I200000J0D01*
G01*
X177075000Y-95325000D01*
G75*
G02*
X177275000Y-95525000I0J-200000D01*
G01*
X177275000Y-95925000D01*
G75*
G02*
X177075000Y-96125000I-200000J0D01*
G01*
G37*
%TD*%
D24*
%TO.C,Q103*%
X168900000Y-94850000D03*
X170900000Y-93900000D03*
X170900000Y-95800000D03*
%TD*%
%TO.C,Q102*%
X175000000Y-94850000D03*
X173000000Y-95800000D03*
X173000000Y-93900000D03*
%TD*%
%TO.C,R105*%
G36*
G01*
X159325000Y-118875000D02*
X159325000Y-118325000D01*
G75*
G02*
X159525000Y-118125000I200000J0D01*
G01*
X159925000Y-118125000D01*
G75*
G02*
X160125000Y-118325000I0J-200000D01*
G01*
X160125000Y-118875000D01*
G75*
G02*
X159925000Y-119075000I-200000J0D01*
G01*
X159525000Y-119075000D01*
G75*
G02*
X159325000Y-118875000I0J200000D01*
G01*
G37*
G36*
G01*
X160975000Y-118875000D02*
X160975000Y-118325000D01*
G75*
G02*
X161175000Y-118125000I200000J0D01*
G01*
X161575000Y-118125000D01*
G75*
G02*
X161775000Y-118325000I0J-200000D01*
G01*
X161775000Y-118875000D01*
G75*
G02*
X161575000Y-119075000I-200000J0D01*
G01*
X161175000Y-119075000D01*
G75*
G02*
X160975000Y-118875000I0J200000D01*
G01*
G37*
%TD*%
%TO.C,R106*%
G36*
G01*
X151000000Y-95275000D02*
X151000000Y-94725000D01*
G75*
G02*
X151200000Y-94525000I200000J0D01*
G01*
X151600000Y-94525000D01*
G75*
G02*
X151800000Y-94725000I0J-200000D01*
G01*
X151800000Y-95275000D01*
G75*
G02*
X151600000Y-95475000I-200000J0D01*
G01*
X151200000Y-95475000D01*
G75*
G02*
X151000000Y-95275000I0J200000D01*
G01*
G37*
G36*
G01*
X149350000Y-95275000D02*
X149350000Y-94725000D01*
G75*
G02*
X149550000Y-94525000I200000J0D01*
G01*
X149950000Y-94525000D01*
G75*
G02*
X150150000Y-94725000I0J-200000D01*
G01*
X150150000Y-95275000D01*
G75*
G02*
X149950000Y-95475000I-200000J0D01*
G01*
X149550000Y-95475000D01*
G75*
G02*
X149350000Y-95275000I0J200000D01*
G01*
G37*
%TD*%
D21*
%TO.C,U102*%
X160520000Y-98100000D03*
X152900000Y-115880000D03*
X160520000Y-100640000D03*
X152900000Y-113340000D03*
X160520000Y-103180000D03*
X152900000Y-110800000D03*
X160520000Y-105720000D03*
X152900000Y-108260000D03*
X160520000Y-108260000D03*
X152900000Y-105720000D03*
X160520000Y-110800000D03*
X152900000Y-103180000D03*
X160520000Y-113340000D03*
X152900000Y-100640000D03*
X160520000Y-115880000D03*
D22*
X152900000Y-98100000D03*
%TD*%
D21*
%TO.C,U101*%
X158220000Y-98100000D03*
X150600000Y-115880000D03*
X158220000Y-100640000D03*
X150600000Y-113340000D03*
X158220000Y-103180000D03*
X150600000Y-110800000D03*
X158220000Y-105720000D03*
X150600000Y-108260000D03*
X158220000Y-108260000D03*
X150600000Y-105720000D03*
X158220000Y-110800000D03*
X150600000Y-103180000D03*
X158220000Y-113340000D03*
X150600000Y-100640000D03*
X158220000Y-115880000D03*
D22*
X150600000Y-98100000D03*
%TD*%
D23*
%TO.C,C101*%
X153000000Y-118500000D03*
X158000000Y-118500000D03*
%TD*%
%TO.C,R104*%
G36*
G01*
X161075000Y-94475000D02*
X160525000Y-94475000D01*
G75*
G02*
X160325000Y-94275000I0J200000D01*
G01*
X160325000Y-93875000D01*
G75*
G02*
X160525000Y-93675000I200000J0D01*
G01*
X161075000Y-93675000D01*
G75*
G02*
X161275000Y-93875000I0J-200000D01*
G01*
X161275000Y-94275000D01*
G75*
G02*
X161075000Y-94475000I-200000J0D01*
G01*
G37*
G36*
G01*
X161075000Y-96125000D02*
X160525000Y-96125000D01*
G75*
G02*
X160325000Y-95925000I0J200000D01*
G01*
X160325000Y-95525000D01*
G75*
G02*
X160525000Y-95325000I200000J0D01*
G01*
X161075000Y-95325000D01*
G75*
G02*
X161275000Y-95525000I0J-200000D01*
G01*
X161275000Y-95925000D01*
G75*
G02*
X161075000Y-96125000I-200000J0D01*
G01*
G37*
%TD*%
D24*
%TO.C,Q103*%
X152900000Y-94850000D03*
X154900000Y-93900000D03*
X154900000Y-95800000D03*
%TD*%
%TO.C,Q102*%
X159000000Y-94850000D03*
X157000000Y-95800000D03*
X157000000Y-93900000D03*
%TD*%
%TO.C,R105*%
G36*
G01*
X143325000Y-118875000D02*
X143325000Y-118325000D01*
G75*
G02*
X143525000Y-118125000I200000J0D01*
G01*
X143925000Y-118125000D01*
G75*
G02*
X144125000Y-118325000I0J-200000D01*
G01*
X144125000Y-118875000D01*
G75*
G02*
X143925000Y-119075000I-200000J0D01*
G01*
X143525000Y-119075000D01*
G75*
G02*
X143325000Y-118875000I0J200000D01*
G01*
G37*
G36*
G01*
X144975000Y-118875000D02*
X144975000Y-118325000D01*
G75*
G02*
X145175000Y-118125000I200000J0D01*
G01*
X145575000Y-118125000D01*
G75*
G02*
X145775000Y-118325000I0J-200000D01*
G01*
X145775000Y-118875000D01*
G75*
G02*
X145575000Y-119075000I-200000J0D01*
G01*
X145175000Y-119075000D01*
G75*
G02*
X144975000Y-118875000I0J200000D01*
G01*
G37*
%TD*%
%TO.C,R106*%
G36*
G01*
X135000000Y-95275000D02*
X135000000Y-94725000D01*
G75*
G02*
X135200000Y-94525000I200000J0D01*
G01*
X135600000Y-94525000D01*
G75*
G02*
X135800000Y-94725000I0J-200000D01*
G01*
X135800000Y-95275000D01*
G75*
G02*
X135600000Y-95475000I-200000J0D01*
G01*
X135200000Y-95475000D01*
G75*
G02*
X135000000Y-95275000I0J200000D01*
G01*
G37*
G36*
G01*
X133350000Y-95275000D02*
X133350000Y-94725000D01*
G75*
G02*
X133550000Y-94525000I200000J0D01*
G01*
X133950000Y-94525000D01*
G75*
G02*
X134150000Y-94725000I0J-200000D01*
G01*
X134150000Y-95275000D01*
G75*
G02*
X133950000Y-95475000I-200000J0D01*
G01*
X133550000Y-95475000D01*
G75*
G02*
X133350000Y-95275000I0J200000D01*
G01*
G37*
%TD*%
D21*
%TO.C,U102*%
X144520000Y-98100000D03*
X136900000Y-115880000D03*
X144520000Y-100640000D03*
X136900000Y-113340000D03*
X144520000Y-103180000D03*
X136900000Y-110800000D03*
X144520000Y-105720000D03*
X136900000Y-108260000D03*
X144520000Y-108260000D03*
X136900000Y-105720000D03*
X144520000Y-110800000D03*
X136900000Y-103180000D03*
X144520000Y-113340000D03*
X136900000Y-100640000D03*
X144520000Y-115880000D03*
D22*
X136900000Y-98100000D03*
%TD*%
D21*
%TO.C,U101*%
X142220000Y-98100000D03*
X134600000Y-115880000D03*
X142220000Y-100640000D03*
X134600000Y-113340000D03*
X142220000Y-103180000D03*
X134600000Y-110800000D03*
X142220000Y-105720000D03*
X134600000Y-108260000D03*
X142220000Y-108260000D03*
X134600000Y-105720000D03*
X142220000Y-110800000D03*
X134600000Y-103180000D03*
X142220000Y-113340000D03*
X134600000Y-100640000D03*
X142220000Y-115880000D03*
D22*
X134600000Y-98100000D03*
%TD*%
D23*
%TO.C,C101*%
X137000000Y-118500000D03*
X142000000Y-118500000D03*
%TD*%
%TO.C,R104*%
G36*
G01*
X145075000Y-94475000D02*
X144525000Y-94475000D01*
G75*
G02*
X144325000Y-94275000I0J200000D01*
G01*
X144325000Y-93875000D01*
G75*
G02*
X144525000Y-93675000I200000J0D01*
G01*
X145075000Y-93675000D01*
G75*
G02*
X145275000Y-93875000I0J-200000D01*
G01*
X145275000Y-94275000D01*
G75*
G02*
X145075000Y-94475000I-200000J0D01*
G01*
G37*
G36*
G01*
X145075000Y-96125000D02*
X144525000Y-96125000D01*
G75*
G02*
X144325000Y-95925000I0J200000D01*
G01*
X144325000Y-95525000D01*
G75*
G02*
X144525000Y-95325000I200000J0D01*
G01*
X145075000Y-95325000D01*
G75*
G02*
X145275000Y-95525000I0J-200000D01*
G01*
X145275000Y-95925000D01*
G75*
G02*
X145075000Y-96125000I-200000J0D01*
G01*
G37*
%TD*%
D24*
%TO.C,Q103*%
X136900000Y-94850000D03*
X138900000Y-93900000D03*
X138900000Y-95800000D03*
%TD*%
%TO.C,Q102*%
X143000000Y-94850000D03*
X141000000Y-95800000D03*
X141000000Y-93900000D03*
%TD*%
%TO.C,R105*%
G36*
G01*
X127325000Y-118875000D02*
X127325000Y-118325000D01*
G75*
G02*
X127525000Y-118125000I200000J0D01*
G01*
X127925000Y-118125000D01*
G75*
G02*
X128125000Y-118325000I0J-200000D01*
G01*
X128125000Y-118875000D01*
G75*
G02*
X127925000Y-119075000I-200000J0D01*
G01*
X127525000Y-119075000D01*
G75*
G02*
X127325000Y-118875000I0J200000D01*
G01*
G37*
G36*
G01*
X128975000Y-118875000D02*
X128975000Y-118325000D01*
G75*
G02*
X129175000Y-118125000I200000J0D01*
G01*
X129575000Y-118125000D01*
G75*
G02*
X129775000Y-118325000I0J-200000D01*
G01*
X129775000Y-118875000D01*
G75*
G02*
X129575000Y-119075000I-200000J0D01*
G01*
X129175000Y-119075000D01*
G75*
G02*
X128975000Y-118875000I0J200000D01*
G01*
G37*
%TD*%
%TO.C,R106*%
G36*
G01*
X119000000Y-95275000D02*
X119000000Y-94725000D01*
G75*
G02*
X119200000Y-94525000I200000J0D01*
G01*
X119600000Y-94525000D01*
G75*
G02*
X119800000Y-94725000I0J-200000D01*
G01*
X119800000Y-95275000D01*
G75*
G02*
X119600000Y-95475000I-200000J0D01*
G01*
X119200000Y-95475000D01*
G75*
G02*
X119000000Y-95275000I0J200000D01*
G01*
G37*
G36*
G01*
X117350000Y-95275000D02*
X117350000Y-94725000D01*
G75*
G02*
X117550000Y-94525000I200000J0D01*
G01*
X117950000Y-94525000D01*
G75*
G02*
X118150000Y-94725000I0J-200000D01*
G01*
X118150000Y-95275000D01*
G75*
G02*
X117950000Y-95475000I-200000J0D01*
G01*
X117550000Y-95475000D01*
G75*
G02*
X117350000Y-95275000I0J200000D01*
G01*
G37*
%TD*%
D21*
%TO.C,U102*%
X128520000Y-98100000D03*
X120900000Y-115880000D03*
X128520000Y-100640000D03*
X120900000Y-113340000D03*
X128520000Y-103180000D03*
X120900000Y-110800000D03*
X128520000Y-105720000D03*
X120900000Y-108260000D03*
X128520000Y-108260000D03*
X120900000Y-105720000D03*
X128520000Y-110800000D03*
X120900000Y-103180000D03*
X128520000Y-113340000D03*
X120900000Y-100640000D03*
X128520000Y-115880000D03*
D22*
X120900000Y-98100000D03*
%TD*%
D21*
%TO.C,U101*%
X126220000Y-98100000D03*
X118600000Y-115880000D03*
X126220000Y-100640000D03*
X118600000Y-113340000D03*
X126220000Y-103180000D03*
X118600000Y-110800000D03*
X126220000Y-105720000D03*
X118600000Y-108260000D03*
X126220000Y-108260000D03*
X118600000Y-105720000D03*
X126220000Y-110800000D03*
X118600000Y-103180000D03*
X126220000Y-113340000D03*
X118600000Y-100640000D03*
X126220000Y-115880000D03*
D22*
X118600000Y-98100000D03*
%TD*%
D23*
%TO.C,C101*%
X121000000Y-118500000D03*
X126000000Y-118500000D03*
%TD*%
%TO.C,R104*%
G36*
G01*
X129075000Y-94475000D02*
X128525000Y-94475000D01*
G75*
G02*
X128325000Y-94275000I0J200000D01*
G01*
X128325000Y-93875000D01*
G75*
G02*
X128525000Y-93675000I200000J0D01*
G01*
X129075000Y-93675000D01*
G75*
G02*
X129275000Y-93875000I0J-200000D01*
G01*
X129275000Y-94275000D01*
G75*
G02*
X129075000Y-94475000I-200000J0D01*
G01*
G37*
G36*
G01*
X129075000Y-96125000D02*
X128525000Y-96125000D01*
G75*
G02*
X128325000Y-95925000I0J200000D01*
G01*
X128325000Y-95525000D01*
G75*
G02*
X128525000Y-95325000I200000J0D01*
G01*
X129075000Y-95325000D01*
G75*
G02*
X129275000Y-95525000I0J-200000D01*
G01*
X129275000Y-95925000D01*
G75*
G02*
X129075000Y-96125000I-200000J0D01*
G01*
G37*
%TD*%
D24*
%TO.C,Q103*%
X120900000Y-94850000D03*
X122900000Y-93900000D03*
X122900000Y-95800000D03*
%TD*%
%TO.C,Q102*%
X127000000Y-94850000D03*
X125000000Y-95800000D03*
X125000000Y-93900000D03*
%TD*%
%TO.C,R104*%
G36*
G01*
X113125000Y-96125000D02*
X112575000Y-96125000D01*
G75*
G02*
X112375000Y-95925000I0J200000D01*
G01*
X112375000Y-95525000D01*
G75*
G02*
X112575000Y-95325000I200000J0D01*
G01*
X113125000Y-95325000D01*
G75*
G02*
X113325000Y-95525000I0J-200000D01*
G01*
X113325000Y-95925000D01*
G75*
G02*
X113125000Y-96125000I-200000J0D01*
G01*
G37*
G36*
G01*
X113125000Y-94475000D02*
X112575000Y-94475000D01*
G75*
G02*
X112375000Y-94275000I0J200000D01*
G01*
X112375000Y-93875000D01*
G75*
G02*
X112575000Y-93675000I200000J0D01*
G01*
X113125000Y-93675000D01*
G75*
G02*
X113325000Y-93875000I0J-200000D01*
G01*
X113325000Y-94275000D01*
G75*
G02*
X113125000Y-94475000I-200000J0D01*
G01*
G37*
%TD*%
%TO.C,Q102*%
X109050000Y-93900000D03*
X109050000Y-95800000D03*
X111050000Y-94850000D03*
%TD*%
%TO.C,Q103*%
X106950000Y-95800000D03*
X106950000Y-93900000D03*
X104950000Y-94850000D03*
%TD*%
D23*
%TO.C,C101*%
X110050000Y-118500000D03*
X105050000Y-118500000D03*
%TD*%
D22*
%TO.C,U102*%
X104950000Y-98100000D03*
D21*
X112570000Y-115880000D03*
X104950000Y-100640000D03*
X112570000Y-113340000D03*
X104950000Y-103180000D03*
X112570000Y-110800000D03*
X104950000Y-105720000D03*
X112570000Y-108260000D03*
X104950000Y-108260000D03*
X112570000Y-105720000D03*
X104950000Y-110800000D03*
X112570000Y-103180000D03*
X104950000Y-113340000D03*
X112570000Y-100640000D03*
X104950000Y-115880000D03*
X112570000Y-98100000D03*
%TD*%
D22*
%TO.C,U101*%
X102650000Y-98100000D03*
D21*
X110270000Y-115880000D03*
X102650000Y-100640000D03*
X110270000Y-113340000D03*
X102650000Y-103180000D03*
X110270000Y-110800000D03*
X102650000Y-105720000D03*
X110270000Y-108260000D03*
X102650000Y-108260000D03*
X110270000Y-105720000D03*
X102650000Y-110800000D03*
X110270000Y-103180000D03*
X102650000Y-113340000D03*
X110270000Y-100640000D03*
X102650000Y-115880000D03*
X110270000Y-98100000D03*
%TD*%
%TO.C,R106*%
G36*
G01*
X101400000Y-95275000D02*
X101400000Y-94725000D01*
G75*
G02*
X101600000Y-94525000I200000J0D01*
G01*
X102000000Y-94525000D01*
G75*
G02*
X102200000Y-94725000I0J-200000D01*
G01*
X102200000Y-95275000D01*
G75*
G02*
X102000000Y-95475000I-200000J0D01*
G01*
X101600000Y-95475000D01*
G75*
G02*
X101400000Y-95275000I0J200000D01*
G01*
G37*
G36*
G01*
X103050000Y-95275000D02*
X103050000Y-94725000D01*
G75*
G02*
X103250000Y-94525000I200000J0D01*
G01*
X103650000Y-94525000D01*
G75*
G02*
X103850000Y-94725000I0J-200000D01*
G01*
X103850000Y-95275000D01*
G75*
G02*
X103650000Y-95475000I-200000J0D01*
G01*
X103250000Y-95475000D01*
G75*
G02*
X103050000Y-95275000I0J200000D01*
G01*
G37*
%TD*%
%TO.C,R105*%
G36*
G01*
X113025000Y-118875000D02*
X113025000Y-118325000D01*
G75*
G02*
X113225000Y-118125000I200000J0D01*
G01*
X113625000Y-118125000D01*
G75*
G02*
X113825000Y-118325000I0J-200000D01*
G01*
X113825000Y-118875000D01*
G75*
G02*
X113625000Y-119075000I-200000J0D01*
G01*
X113225000Y-119075000D01*
G75*
G02*
X113025000Y-118875000I0J200000D01*
G01*
G37*
G36*
G01*
X111375000Y-118875000D02*
X111375000Y-118325000D01*
G75*
G02*
X111575000Y-118125000I200000J0D01*
G01*
X111975000Y-118125000D01*
G75*
G02*
X112175000Y-118325000I0J-200000D01*
G01*
X112175000Y-118875000D01*
G75*
G02*
X111975000Y-119075000I-200000J0D01*
G01*
X111575000Y-119075000D01*
G75*
G02*
X111375000Y-118875000I0J200000D01*
G01*
G37*
%TD*%
M02*
