%TF.GenerationSoftware,KiCad,Pcbnew,5.1.10-88a1d61d58~88~ubuntu18.04.1*%
%TF.CreationDate,2021-06-05T11:20:38+02:00*%
%TF.ProjectId,panel2,70616e65-6c32-42e6-9b69-6361645f7063,rev?*%
%TF.SameCoordinates,Original*%
%TF.FileFunction,Legend,Top*%
%TF.FilePolarity,Positive*%
%FSLAX46Y46*%
G04 Gerber Fmt 4.6, Leading zero omitted, Abs format (unit mm)*
G04 Created by KiCad (PCBNEW 5.1.10-88a1d61d58~88~ubuntu18.04.1) date 2021-06-05 11:20:38*
%MOMM*%
%LPD*%
G01*
G04 APERTURE LIST*
%ADD10C,0.120000*%
%ADD11C,0.100000*%
%ADD12C,0.150000*%
G04 APERTURE END LIST*
D10*
X183000000Y-42500000D02*
X197000000Y-42500000D01*
X160500000Y-38000000D02*
X160500000Y-50500000D01*
X139000000Y-38000000D02*
X139000000Y-50500000D01*
X107000000Y-38000000D02*
X107000000Y-50500000D01*
X115000000Y-38000000D02*
X115000000Y-50500000D01*
X123000000Y-38000000D02*
X123000000Y-50500000D01*
X134500000Y-50500000D02*
X134500000Y-66500000D01*
X124500000Y-50500000D02*
X124500000Y-66500000D01*
X114500000Y-50500000D02*
X114500000Y-66500000D01*
X108500000Y-64500000D02*
X108500000Y-70000000D01*
X105000000Y-60000000D02*
X99000000Y-60000000D01*
X110000000Y-66500000D02*
X105000000Y-60000000D01*
X144000000Y-66500000D02*
X110000000Y-66500000D01*
X144000000Y-50500000D02*
X144000000Y-72500000D01*
X157000000Y-50500000D02*
X157000000Y-72500000D01*
X170000000Y-50500000D02*
X170000000Y-72500000D01*
X183000000Y-50500000D02*
X99000000Y-50500000D01*
X113000000Y-70000000D02*
X113000000Y-92000000D01*
X127000000Y-70000000D02*
X127000000Y-92000000D01*
X141000000Y-70000000D02*
X99000000Y-70000000D01*
X141000000Y-72000000D02*
X141000000Y-70000000D01*
X169000000Y-92000000D02*
X169500000Y-92000000D01*
X169000000Y-72500000D02*
X169000000Y-92000000D01*
X155000000Y-72500000D02*
X155000000Y-92000000D01*
X141000000Y-72500000D02*
X141000000Y-92000000D01*
X183000000Y-72500000D02*
X141000000Y-72500000D01*
X183000000Y-67500000D02*
X197000000Y-67500000D01*
X183000000Y-55000000D02*
X197000000Y-55000000D01*
X183000000Y-92000000D02*
X183000000Y-38000000D01*
X194500000Y-92000000D02*
X183000000Y-92000000D01*
X100000000Y-92000000D02*
X194500000Y-92000000D01*
X114500000Y-93250000D02*
X100000000Y-93250000D01*
X114500000Y-120000000D02*
X114500000Y-93250000D01*
X116000000Y-93250000D02*
X116000000Y-120000000D01*
X130500000Y-93250000D02*
X116000000Y-93250000D01*
X130500000Y-120000000D02*
X130500000Y-93250000D01*
X132000000Y-93250000D02*
X132000000Y-120000000D01*
X146500000Y-93250000D02*
X132000000Y-93250000D01*
X146500000Y-120000000D02*
X146500000Y-93250000D01*
X148000000Y-93250000D02*
X148000000Y-120000000D01*
X162500000Y-120000000D02*
X162500000Y-93250000D01*
X164000000Y-93250000D02*
X164000000Y-120000000D01*
X164000000Y-93250000D02*
X162500000Y-93250000D01*
X194500000Y-93250000D02*
X180000000Y-93200000D01*
X178500000Y-93250000D02*
X178500000Y-93200000D01*
X180000000Y-120000000D02*
X178500000Y-120000000D01*
X194500000Y-93250000D02*
X180000000Y-93200000D01*
X180000000Y-120000000D02*
X180000000Y-93200000D01*
X178500000Y-93200000D02*
X180000000Y-93200000D01*
X178500000Y-119900000D02*
X178500000Y-93200000D01*
X100000000Y-93250000D02*
X194500000Y-93250000D01*
D11*
%TO.C,23*%
X103066000Y-69524000D02*
X103066000Y-69024000D01*
X103066000Y-69524000D02*
X102566000Y-69524000D01*
X103066000Y-61624000D02*
X103066000Y-62124000D01*
X103066000Y-61624000D02*
X102566000Y-61624000D01*
X100266000Y-61624000D02*
X100766000Y-61624000D01*
X100266000Y-61624000D02*
X100266000Y-62124000D01*
X100266000Y-69524000D02*
X100266000Y-69024000D01*
X100266000Y-69524000D02*
X100766000Y-69524000D01*
%TO.C,SOT*%
X106047000Y-63914000D02*
X106047000Y-64214000D01*
X105672000Y-63914000D02*
X106047000Y-63914000D01*
X106047000Y-67214000D02*
X105597000Y-67214000D01*
X106047000Y-66914000D02*
X106047000Y-67214000D01*
X106047000Y-66989000D02*
X106047000Y-66864000D01*
X104397000Y-67214000D02*
X104397000Y-66864000D01*
X104872000Y-67214000D02*
X104397000Y-67214000D01*
X104397000Y-64239000D02*
X103622000Y-64239000D01*
X104397000Y-64189000D02*
X104397000Y-64239000D01*
X104772000Y-63914000D02*
X104397000Y-64189000D01*
X105047000Y-63914000D02*
X104772000Y-63914000D01*
%TO.C,23*%
X103934000Y-39476000D02*
X103934000Y-39976000D01*
X103934000Y-39476000D02*
X104434000Y-39476000D01*
X103934000Y-47376000D02*
X103934000Y-46876000D01*
X103934000Y-47376000D02*
X104434000Y-47376000D01*
X106734000Y-47376000D02*
X106234000Y-47376000D01*
X106734000Y-47376000D02*
X106734000Y-46876000D01*
X106734000Y-39476000D02*
X106734000Y-39976000D01*
X106734000Y-39476000D02*
X106234000Y-39476000D01*
%TO.C,SOT*%
X100953000Y-45086000D02*
X100953000Y-44786000D01*
X101328000Y-45086000D02*
X100953000Y-45086000D01*
X100953000Y-41786000D02*
X101403000Y-41786000D01*
X100953000Y-42086000D02*
X100953000Y-41786000D01*
X100953000Y-42011000D02*
X100953000Y-42136000D01*
X102603000Y-41786000D02*
X102603000Y-42136000D01*
X102128000Y-41786000D02*
X102603000Y-41786000D01*
X102603000Y-44761000D02*
X103378000Y-44761000D01*
X102603000Y-44811000D02*
X102603000Y-44761000D01*
X102228000Y-45086000D02*
X102603000Y-44811000D01*
X101953000Y-45086000D02*
X102228000Y-45086000D01*
%TO.C,23*%
X111934000Y-39476000D02*
X111934000Y-39976000D01*
X111934000Y-39476000D02*
X112434000Y-39476000D01*
X111934000Y-47376000D02*
X111934000Y-46876000D01*
X111934000Y-47376000D02*
X112434000Y-47376000D01*
X114734000Y-47376000D02*
X114234000Y-47376000D01*
X114734000Y-47376000D02*
X114734000Y-46876000D01*
X114734000Y-39476000D02*
X114734000Y-39976000D01*
X114734000Y-39476000D02*
X114234000Y-39476000D01*
%TO.C,SOT*%
X108953000Y-45086000D02*
X108953000Y-44786000D01*
X109328000Y-45086000D02*
X108953000Y-45086000D01*
X108953000Y-41786000D02*
X109403000Y-41786000D01*
X108953000Y-42086000D02*
X108953000Y-41786000D01*
X108953000Y-42011000D02*
X108953000Y-42136000D01*
X110603000Y-41786000D02*
X110603000Y-42136000D01*
X110128000Y-41786000D02*
X110603000Y-41786000D01*
X110603000Y-44761000D02*
X111378000Y-44761000D01*
X110603000Y-44811000D02*
X110603000Y-44761000D01*
X110228000Y-45086000D02*
X110603000Y-44811000D01*
X109953000Y-45086000D02*
X110228000Y-45086000D01*
D10*
%TO.C,REF\u002A\u002A*%
X113530000Y-64530000D02*
X112200000Y-64530000D01*
X113530000Y-63200000D02*
X113530000Y-64530000D01*
X113530000Y-61930000D02*
X110870000Y-61930000D01*
X110870000Y-61930000D02*
X110870000Y-51710000D01*
X113530000Y-61930000D02*
X113530000Y-51710000D01*
X113530000Y-51710000D02*
X110870000Y-51710000D01*
D11*
%TO.C, *%
X107263000Y-59445000D02*
X107263000Y-59770000D01*
X107263000Y-59770000D02*
X107563000Y-59770000D01*
X109263000Y-56795000D02*
X109263000Y-56470000D01*
X109263000Y-56470000D02*
X108963000Y-56470000D01*
X107263000Y-56770000D02*
X107263000Y-56470000D01*
X107263000Y-56470000D02*
X107588000Y-56470000D01*
X108938000Y-59770000D02*
X109263000Y-59545000D01*
X109263000Y-59545000D02*
X109263000Y-59445000D01*
X109263000Y-59445000D02*
X109788000Y-59445000D01*
X108938000Y-59770000D02*
X108563000Y-59770000D01*
D10*
%TO.C,REF\u002A\u002A*%
X123030000Y-64530000D02*
X121700000Y-64530000D01*
X123030000Y-63200000D02*
X123030000Y-64530000D01*
X123030000Y-61930000D02*
X120370000Y-61930000D01*
X120370000Y-61930000D02*
X120370000Y-51710000D01*
X123030000Y-61930000D02*
X123030000Y-51710000D01*
X123030000Y-51710000D02*
X120370000Y-51710000D01*
D11*
%TO.C, *%
X116763000Y-59445000D02*
X116763000Y-59770000D01*
X116763000Y-59770000D02*
X117063000Y-59770000D01*
X118763000Y-56795000D02*
X118763000Y-56470000D01*
X118763000Y-56470000D02*
X118463000Y-56470000D01*
X116763000Y-56770000D02*
X116763000Y-56470000D01*
X116763000Y-56470000D02*
X117088000Y-56470000D01*
X118438000Y-59770000D02*
X118763000Y-59545000D01*
X118763000Y-59545000D02*
X118763000Y-59445000D01*
X118763000Y-59445000D02*
X119288000Y-59445000D01*
X118438000Y-59770000D02*
X118063000Y-59770000D01*
D10*
%TO.C,DPAK*%
X130326000Y-46632000D02*
X131826000Y-46632000D01*
X131826000Y-46632000D02*
X131826000Y-46362000D01*
X131826000Y-46362000D02*
X134656000Y-46362000D01*
X130326000Y-39732000D02*
X131826000Y-39732000D01*
X131826000Y-39732000D02*
X131826000Y-40002000D01*
X131826000Y-40002000D02*
X132926000Y-40002000D01*
%TO.C,MAF*%
X138052000Y-44452000D02*
X135392000Y-44452000D01*
X138052000Y-44452000D02*
X138052000Y-39312000D01*
X138052000Y-39312000D02*
X135392000Y-39312000D01*
X135392000Y-44452000D02*
X135392000Y-39312000D01*
X135392000Y-47052000D02*
X135392000Y-45722000D01*
X136722000Y-47052000D02*
X135392000Y-47052000D01*
%TO.C,DPAK*%
X125868000Y-57826000D02*
X125868000Y-59326000D01*
X125868000Y-59326000D02*
X126138000Y-59326000D01*
X126138000Y-59326000D02*
X126138000Y-62156000D01*
X132768000Y-57826000D02*
X132768000Y-59326000D01*
X132768000Y-59326000D02*
X132498000Y-59326000D01*
X132498000Y-59326000D02*
X132498000Y-60426000D01*
%TO.C,MAF*%
X128048000Y-65552000D02*
X128048000Y-62892000D01*
X128048000Y-65552000D02*
X133188000Y-65552000D01*
X133188000Y-65552000D02*
X133188000Y-62892000D01*
X128048000Y-62892000D02*
X133188000Y-62892000D01*
X125448000Y-62892000D02*
X126778000Y-62892000D01*
X125448000Y-64222000D02*
X125448000Y-62892000D01*
%TO.C,DPAK*%
X135868000Y-57826000D02*
X135868000Y-59326000D01*
X135868000Y-59326000D02*
X136138000Y-59326000D01*
X136138000Y-59326000D02*
X136138000Y-62156000D01*
X142768000Y-57826000D02*
X142768000Y-59326000D01*
X142768000Y-59326000D02*
X142498000Y-59326000D01*
X142498000Y-59326000D02*
X142498000Y-60426000D01*
%TO.C,MAF*%
X138048000Y-65552000D02*
X138048000Y-62892000D01*
X138048000Y-65552000D02*
X143188000Y-65552000D01*
X143188000Y-65552000D02*
X143188000Y-62892000D01*
X138048000Y-62892000D02*
X143188000Y-62892000D01*
X135448000Y-62892000D02*
X136778000Y-62892000D01*
X135448000Y-64222000D02*
X135448000Y-62892000D01*
%TO.C,D2PAK*%
X159552000Y-40542000D02*
X156892000Y-40542000D01*
X159552000Y-45682000D02*
X159552000Y-40542000D01*
X156892000Y-45682000D02*
X156892000Y-40542000D01*
X159552000Y-45682000D02*
X156892000Y-45682000D01*
X159552000Y-46952000D02*
X159552000Y-48282000D01*
X159552000Y-48282000D02*
X158222000Y-48282000D01*
%TO.C,MAF*%
X149512000Y-49612000D02*
X151012000Y-49612000D01*
X151012000Y-49612000D02*
X151012000Y-47802000D01*
X151012000Y-47802000D02*
X156137000Y-47802000D01*
X149512000Y-39212000D02*
X151012000Y-39212000D01*
X151012000Y-39212000D02*
X151012000Y-41022000D01*
X151012000Y-41022000D02*
X152112000Y-41022000D01*
%TO.C,D2PAK*%
X181552000Y-40542000D02*
X178892000Y-40542000D01*
X181552000Y-45682000D02*
X181552000Y-40542000D01*
X178892000Y-45682000D02*
X178892000Y-40542000D01*
X181552000Y-45682000D02*
X178892000Y-45682000D01*
X181552000Y-46952000D02*
X181552000Y-48282000D01*
X181552000Y-48282000D02*
X180222000Y-48282000D01*
%TO.C,MAF*%
X171512000Y-49612000D02*
X173012000Y-49612000D01*
X173012000Y-49612000D02*
X173012000Y-47802000D01*
X173012000Y-47802000D02*
X178137000Y-47802000D01*
X171512000Y-39212000D02*
X173012000Y-39212000D01*
X173012000Y-39212000D02*
X173012000Y-41022000D01*
X173012000Y-41022000D02*
X174112000Y-41022000D01*
%TO.C,D2PAK*%
X154458000Y-71052000D02*
X154458000Y-68392000D01*
X149318000Y-71052000D02*
X154458000Y-71052000D01*
X149318000Y-68392000D02*
X154458000Y-68392000D01*
X149318000Y-71052000D02*
X149318000Y-68392000D01*
X148048000Y-71052000D02*
X146718000Y-71052000D01*
X146718000Y-71052000D02*
X146718000Y-69722000D01*
%TO.C,MAF*%
X145388000Y-61012000D02*
X145388000Y-62512000D01*
X145388000Y-62512000D02*
X147198000Y-62512000D01*
X147198000Y-62512000D02*
X147198000Y-67637000D01*
X155788000Y-61012000D02*
X155788000Y-62512000D01*
X155788000Y-62512000D02*
X153978000Y-62512000D01*
X153978000Y-62512000D02*
X153978000Y-63612000D01*
%TO.C,D2PAK*%
X167458000Y-71052000D02*
X167458000Y-68392000D01*
X162318000Y-71052000D02*
X167458000Y-71052000D01*
X162318000Y-68392000D02*
X167458000Y-68392000D01*
X162318000Y-71052000D02*
X162318000Y-68392000D01*
X161048000Y-71052000D02*
X159718000Y-71052000D01*
X159718000Y-71052000D02*
X159718000Y-69722000D01*
%TO.C,MAF*%
X158388000Y-61012000D02*
X158388000Y-62512000D01*
X158388000Y-62512000D02*
X160198000Y-62512000D01*
X160198000Y-62512000D02*
X160198000Y-67637000D01*
X168788000Y-61012000D02*
X168788000Y-62512000D01*
X168788000Y-62512000D02*
X166978000Y-62512000D01*
X166978000Y-62512000D02*
X166978000Y-63612000D01*
%TO.C,D2PAK*%
X180458000Y-71052000D02*
X180458000Y-68392000D01*
X175318000Y-71052000D02*
X180458000Y-71052000D01*
X175318000Y-68392000D02*
X180458000Y-68392000D01*
X175318000Y-71052000D02*
X175318000Y-68392000D01*
X174048000Y-71052000D02*
X172718000Y-71052000D01*
X172718000Y-71052000D02*
X172718000Y-69722000D01*
%TO.C,MAF*%
X171388000Y-61012000D02*
X171388000Y-62512000D01*
X171388000Y-62512000D02*
X173198000Y-62512000D01*
X173198000Y-62512000D02*
X173198000Y-67637000D01*
X181788000Y-61012000D02*
X181788000Y-62512000D01*
X181788000Y-62512000D02*
X179978000Y-62512000D01*
X179978000Y-62512000D02*
X179978000Y-63612000D01*
%TO.C,8*%
X190096000Y-46360000D02*
X186646000Y-46360000D01*
X190096000Y-46360000D02*
X192046000Y-46360000D01*
X190096000Y-51480000D02*
X188146000Y-51480000D01*
X190096000Y-51480000D02*
X192046000Y-51480000D01*
%TO.C,MAF*%
X193331000Y-43526000D02*
X191096000Y-43526000D01*
X193331000Y-53806000D02*
X193331000Y-43526000D01*
X186861000Y-53806000D02*
X193331000Y-53806000D01*
X186861000Y-43526000D02*
X186861000Y-53806000D01*
X189096000Y-43526000D02*
X186861000Y-43526000D01*
X191096000Y-43526000D02*
G75*
G02*
X189096000Y-43526000I-1000000J0D01*
G01*
%TO.C,8*%
X190096000Y-58860000D02*
X186646000Y-58860000D01*
X190096000Y-58860000D02*
X192046000Y-58860000D01*
X190096000Y-63980000D02*
X188146000Y-63980000D01*
X190096000Y-63980000D02*
X192046000Y-63980000D01*
%TO.C,MAF*%
X193331000Y-56026000D02*
X191096000Y-56026000D01*
X193331000Y-66306000D02*
X193331000Y-56026000D01*
X186861000Y-66306000D02*
X193331000Y-66306000D01*
X186861000Y-56026000D02*
X186861000Y-66306000D01*
X189096000Y-56026000D02*
X186861000Y-56026000D01*
X191096000Y-56026000D02*
G75*
G02*
X189096000Y-56026000I-1000000J0D01*
G01*
%TO.C,8*%
X190096000Y-71360000D02*
X186646000Y-71360000D01*
X190096000Y-71360000D02*
X192046000Y-71360000D01*
X190096000Y-76480000D02*
X188146000Y-76480000D01*
X190096000Y-76480000D02*
X192046000Y-76480000D01*
%TO.C,MAF*%
X193331000Y-68526000D02*
X191096000Y-68526000D01*
X193331000Y-78806000D02*
X193331000Y-68526000D01*
X186861000Y-78806000D02*
X193331000Y-78806000D01*
X186861000Y-68526000D02*
X186861000Y-78806000D01*
X189096000Y-68526000D02*
X186861000Y-68526000D01*
X191096000Y-68526000D02*
G75*
G02*
X189096000Y-68526000I-1000000J0D01*
G01*
%TO.C,8*%
X190096000Y-83860000D02*
X186646000Y-83860000D01*
X190096000Y-83860000D02*
X192046000Y-83860000D01*
X190096000Y-88980000D02*
X188146000Y-88980000D01*
X190096000Y-88980000D02*
X192046000Y-88980000D01*
%TO.C,MAF*%
X193331000Y-81026000D02*
X191096000Y-81026000D01*
X193331000Y-91306000D02*
X193331000Y-81026000D01*
X186861000Y-91306000D02*
X193331000Y-91306000D01*
X186861000Y-81026000D02*
X186861000Y-91306000D01*
X189096000Y-81026000D02*
X186861000Y-81026000D01*
X191096000Y-81026000D02*
G75*
G02*
X189096000Y-81026000I-1000000J0D01*
G01*
%TO.C,14*%
X176031000Y-86791000D02*
X177981000Y-86791000D01*
X176031000Y-86791000D02*
X174081000Y-86791000D01*
X176031000Y-77921000D02*
X177981000Y-77921000D01*
X176031000Y-77921000D02*
X172581000Y-77921000D01*
%TO.C,MAF*%
X175096000Y-73406000D02*
X172861000Y-73406000D01*
X172861000Y-73406000D02*
X172861000Y-91306000D01*
X172861000Y-91306000D02*
X179331000Y-91306000D01*
X179331000Y-91306000D02*
X179331000Y-73406000D01*
X179331000Y-73406000D02*
X177096000Y-73406000D01*
X177096000Y-73406000D02*
G75*
G02*
X175096000Y-73406000I-1000000J0D01*
G01*
%TO.C,14*%
X162031000Y-86791000D02*
X163981000Y-86791000D01*
X162031000Y-86791000D02*
X160081000Y-86791000D01*
X162031000Y-77921000D02*
X163981000Y-77921000D01*
X162031000Y-77921000D02*
X158581000Y-77921000D01*
%TO.C,MAF*%
X161096000Y-73406000D02*
X158861000Y-73406000D01*
X158861000Y-73406000D02*
X158861000Y-91306000D01*
X158861000Y-91306000D02*
X165331000Y-91306000D01*
X165331000Y-91306000D02*
X165331000Y-73406000D01*
X165331000Y-73406000D02*
X163096000Y-73406000D01*
X163096000Y-73406000D02*
G75*
G02*
X161096000Y-73406000I-1000000J0D01*
G01*
%TO.C,14*%
X148031000Y-86791000D02*
X149981000Y-86791000D01*
X148031000Y-86791000D02*
X146081000Y-86791000D01*
X148031000Y-77921000D02*
X149981000Y-77921000D01*
X148031000Y-77921000D02*
X144581000Y-77921000D01*
%TO.C,MAF*%
X147096000Y-73406000D02*
X144861000Y-73406000D01*
X144861000Y-73406000D02*
X144861000Y-91306000D01*
X144861000Y-91306000D02*
X151331000Y-91306000D01*
X151331000Y-91306000D02*
X151331000Y-73406000D01*
X151331000Y-73406000D02*
X149096000Y-73406000D01*
X149096000Y-73406000D02*
G75*
G02*
X147096000Y-73406000I-1000000J0D01*
G01*
%TO.C,16*%
X134065000Y-76157000D02*
X130615000Y-76157000D01*
X134065000Y-76157000D02*
X136015000Y-76157000D01*
X134065000Y-86277000D02*
X132115000Y-86277000D01*
X134065000Y-86277000D02*
X136015000Y-86277000D01*
%TO.C,MAF*%
X137365000Y-70870000D02*
X135130000Y-70870000D01*
X137365000Y-91310000D02*
X137365000Y-70870000D01*
X130895000Y-91310000D02*
X137365000Y-91310000D01*
X130895000Y-70870000D02*
X130895000Y-91310000D01*
X133130000Y-70870000D02*
X130895000Y-70870000D01*
X135130000Y-70870000D02*
G75*
G02*
X133130000Y-70870000I-1000000J0D01*
G01*
%TO.C,16*%
X120065000Y-76157000D02*
X116615000Y-76157000D01*
X120065000Y-76157000D02*
X122015000Y-76157000D01*
X120065000Y-86277000D02*
X118115000Y-86277000D01*
X120065000Y-86277000D02*
X122015000Y-86277000D01*
%TO.C,MAF*%
X123365000Y-70870000D02*
X121130000Y-70870000D01*
X123365000Y-91310000D02*
X123365000Y-70870000D01*
X116895000Y-91310000D02*
X123365000Y-91310000D01*
X116895000Y-70870000D02*
X116895000Y-91310000D01*
X119130000Y-70870000D02*
X116895000Y-70870000D01*
X121130000Y-70870000D02*
G75*
G02*
X119130000Y-70870000I-1000000J0D01*
G01*
X109331000Y-70866000D02*
X107096000Y-70866000D01*
X109331000Y-91306000D02*
X109331000Y-70866000D01*
X102861000Y-91306000D02*
X109331000Y-91306000D01*
X102861000Y-70866000D02*
X102861000Y-91306000D01*
X105096000Y-70866000D02*
X102861000Y-70866000D01*
X107096000Y-70866000D02*
G75*
G02*
X105096000Y-70866000I-1000000J0D01*
G01*
%TO.C,16*%
X106031000Y-76153000D02*
X102581000Y-76153000D01*
X106031000Y-76153000D02*
X107981000Y-76153000D01*
X106031000Y-86273000D02*
X104081000Y-86273000D01*
X106031000Y-86273000D02*
X107981000Y-86273000D01*
D11*
%TO.C,23*%
X119610000Y-39156000D02*
X119610000Y-39656000D01*
X119610000Y-39156000D02*
X120110000Y-39156000D01*
X119610000Y-47056000D02*
X119610000Y-46556000D01*
X119610000Y-47056000D02*
X120110000Y-47056000D01*
X122410000Y-47056000D02*
X121910000Y-47056000D01*
X122410000Y-47056000D02*
X122410000Y-46556000D01*
X122410000Y-39156000D02*
X122410000Y-39656000D01*
X122410000Y-39156000D02*
X121910000Y-39156000D01*
%TO.C,SOT*%
X116629000Y-44766000D02*
X116629000Y-44466000D01*
X117004000Y-44766000D02*
X116629000Y-44766000D01*
X116629000Y-41466000D02*
X117079000Y-41466000D01*
X116629000Y-41766000D02*
X116629000Y-41466000D01*
X116629000Y-41691000D02*
X116629000Y-41816000D01*
X118279000Y-41466000D02*
X118279000Y-41816000D01*
X117804000Y-41466000D02*
X118279000Y-41466000D01*
X118279000Y-44441000D02*
X119054000Y-44441000D01*
X118279000Y-44491000D02*
X118279000Y-44441000D01*
X117904000Y-44766000D02*
X118279000Y-44491000D01*
X117629000Y-44766000D02*
X117904000Y-44766000D01*
D10*
%TO.C,R105*%
X192312742Y-119122500D02*
X192787258Y-119122500D01*
X192312742Y-118077500D02*
X192787258Y-118077500D01*
%TO.C,R106*%
X182337742Y-94477500D02*
X182812258Y-94477500D01*
X182337742Y-95522500D02*
X182812258Y-95522500D01*
%TO.C,U102*%
X187710000Y-96770000D02*
X186060000Y-96770000D01*
X186060000Y-96770000D02*
X186060000Y-117210000D01*
X186060000Y-117210000D02*
X191360000Y-117210000D01*
X191360000Y-117210000D02*
X191360000Y-96770000D01*
X191360000Y-96770000D02*
X189710000Y-96770000D01*
X183570000Y-96710000D02*
X183570000Y-117270000D01*
X183570000Y-117270000D02*
X193850000Y-117270000D01*
X193850000Y-117270000D02*
X193850000Y-96710000D01*
X193850000Y-96710000D02*
X183570000Y-96710000D01*
X189710000Y-96770000D02*
G75*
G02*
X187710000Y-96770000I-1000000J0D01*
G01*
%TO.C,U101*%
X185410000Y-96770000D02*
X183760000Y-96770000D01*
X183760000Y-96770000D02*
X183760000Y-117210000D01*
X183760000Y-117210000D02*
X189060000Y-117210000D01*
X189060000Y-117210000D02*
X189060000Y-96770000D01*
X189060000Y-96770000D02*
X187410000Y-96770000D01*
X181270000Y-96710000D02*
X181270000Y-117270000D01*
X181270000Y-117270000D02*
X191550000Y-117270000D01*
X191550000Y-117270000D02*
X191550000Y-96710000D01*
X191550000Y-96710000D02*
X181270000Y-96710000D01*
X187410000Y-96770000D02*
G75*
G02*
X185410000Y-96770000I-1000000J0D01*
G01*
%TO.C,C101*%
X191120000Y-119870000D02*
X183880000Y-119870000D01*
X191120000Y-117130000D02*
X183880000Y-117130000D01*
X191120000Y-119870000D02*
X191120000Y-117130000D01*
X183880000Y-119870000D02*
X183880000Y-117130000D01*
%TO.C,R104*%
X192277500Y-95137258D02*
X192277500Y-94662742D01*
X193322500Y-95137258D02*
X193322500Y-94662742D01*
%TO.C,Q103*%
X185140000Y-93270000D02*
X185140000Y-94200000D01*
X185140000Y-96430000D02*
X185140000Y-95500000D01*
X185140000Y-96430000D02*
X187300000Y-96430000D01*
X185140000Y-93270000D02*
X186600000Y-93270000D01*
%TO.C,Q102*%
X190760000Y-96430000D02*
X190760000Y-95500000D01*
X190760000Y-93270000D02*
X190760000Y-94200000D01*
X190760000Y-93270000D02*
X188600000Y-93270000D01*
X190760000Y-96430000D02*
X189300000Y-96430000D01*
%TO.C,R105*%
X176312742Y-119122500D02*
X176787258Y-119122500D01*
X176312742Y-118077500D02*
X176787258Y-118077500D01*
%TO.C,R106*%
X166337742Y-94477500D02*
X166812258Y-94477500D01*
X166337742Y-95522500D02*
X166812258Y-95522500D01*
%TO.C,U102*%
X171710000Y-96770000D02*
X170060000Y-96770000D01*
X170060000Y-96770000D02*
X170060000Y-117210000D01*
X170060000Y-117210000D02*
X175360000Y-117210000D01*
X175360000Y-117210000D02*
X175360000Y-96770000D01*
X175360000Y-96770000D02*
X173710000Y-96770000D01*
X167570000Y-96710000D02*
X167570000Y-117270000D01*
X167570000Y-117270000D02*
X177850000Y-117270000D01*
X177850000Y-117270000D02*
X177850000Y-96710000D01*
X177850000Y-96710000D02*
X167570000Y-96710000D01*
X173710000Y-96770000D02*
G75*
G02*
X171710000Y-96770000I-1000000J0D01*
G01*
%TO.C,U101*%
X169410000Y-96770000D02*
X167760000Y-96770000D01*
X167760000Y-96770000D02*
X167760000Y-117210000D01*
X167760000Y-117210000D02*
X173060000Y-117210000D01*
X173060000Y-117210000D02*
X173060000Y-96770000D01*
X173060000Y-96770000D02*
X171410000Y-96770000D01*
X165270000Y-96710000D02*
X165270000Y-117270000D01*
X165270000Y-117270000D02*
X175550000Y-117270000D01*
X175550000Y-117270000D02*
X175550000Y-96710000D01*
X175550000Y-96710000D02*
X165270000Y-96710000D01*
X171410000Y-96770000D02*
G75*
G02*
X169410000Y-96770000I-1000000J0D01*
G01*
%TO.C,C101*%
X175120000Y-119870000D02*
X167880000Y-119870000D01*
X175120000Y-117130000D02*
X167880000Y-117130000D01*
X175120000Y-119870000D02*
X175120000Y-117130000D01*
X167880000Y-119870000D02*
X167880000Y-117130000D01*
%TO.C,R104*%
X176277500Y-95137258D02*
X176277500Y-94662742D01*
X177322500Y-95137258D02*
X177322500Y-94662742D01*
%TO.C,Q103*%
X169140000Y-93270000D02*
X169140000Y-94200000D01*
X169140000Y-96430000D02*
X169140000Y-95500000D01*
X169140000Y-96430000D02*
X171300000Y-96430000D01*
X169140000Y-93270000D02*
X170600000Y-93270000D01*
%TO.C,Q102*%
X174760000Y-96430000D02*
X174760000Y-95500000D01*
X174760000Y-93270000D02*
X174760000Y-94200000D01*
X174760000Y-93270000D02*
X172600000Y-93270000D01*
X174760000Y-96430000D02*
X173300000Y-96430000D01*
%TO.C,R105*%
X160312742Y-119122500D02*
X160787258Y-119122500D01*
X160312742Y-118077500D02*
X160787258Y-118077500D01*
%TO.C,R106*%
X150337742Y-94477500D02*
X150812258Y-94477500D01*
X150337742Y-95522500D02*
X150812258Y-95522500D01*
%TO.C,U102*%
X155710000Y-96770000D02*
X154060000Y-96770000D01*
X154060000Y-96770000D02*
X154060000Y-117210000D01*
X154060000Y-117210000D02*
X159360000Y-117210000D01*
X159360000Y-117210000D02*
X159360000Y-96770000D01*
X159360000Y-96770000D02*
X157710000Y-96770000D01*
X151570000Y-96710000D02*
X151570000Y-117270000D01*
X151570000Y-117270000D02*
X161850000Y-117270000D01*
X161850000Y-117270000D02*
X161850000Y-96710000D01*
X161850000Y-96710000D02*
X151570000Y-96710000D01*
X157710000Y-96770000D02*
G75*
G02*
X155710000Y-96770000I-1000000J0D01*
G01*
%TO.C,U101*%
X153410000Y-96770000D02*
X151760000Y-96770000D01*
X151760000Y-96770000D02*
X151760000Y-117210000D01*
X151760000Y-117210000D02*
X157060000Y-117210000D01*
X157060000Y-117210000D02*
X157060000Y-96770000D01*
X157060000Y-96770000D02*
X155410000Y-96770000D01*
X149270000Y-96710000D02*
X149270000Y-117270000D01*
X149270000Y-117270000D02*
X159550000Y-117270000D01*
X159550000Y-117270000D02*
X159550000Y-96710000D01*
X159550000Y-96710000D02*
X149270000Y-96710000D01*
X155410000Y-96770000D02*
G75*
G02*
X153410000Y-96770000I-1000000J0D01*
G01*
%TO.C,C101*%
X159120000Y-119870000D02*
X151880000Y-119870000D01*
X159120000Y-117130000D02*
X151880000Y-117130000D01*
X159120000Y-119870000D02*
X159120000Y-117130000D01*
X151880000Y-119870000D02*
X151880000Y-117130000D01*
%TO.C,R104*%
X160277500Y-95137258D02*
X160277500Y-94662742D01*
X161322500Y-95137258D02*
X161322500Y-94662742D01*
%TO.C,Q103*%
X153140000Y-93270000D02*
X153140000Y-94200000D01*
X153140000Y-96430000D02*
X153140000Y-95500000D01*
X153140000Y-96430000D02*
X155300000Y-96430000D01*
X153140000Y-93270000D02*
X154600000Y-93270000D01*
%TO.C,Q102*%
X158760000Y-96430000D02*
X158760000Y-95500000D01*
X158760000Y-93270000D02*
X158760000Y-94200000D01*
X158760000Y-93270000D02*
X156600000Y-93270000D01*
X158760000Y-96430000D02*
X157300000Y-96430000D01*
%TO.C,R105*%
X144312742Y-119122500D02*
X144787258Y-119122500D01*
X144312742Y-118077500D02*
X144787258Y-118077500D01*
%TO.C,R106*%
X134337742Y-94477500D02*
X134812258Y-94477500D01*
X134337742Y-95522500D02*
X134812258Y-95522500D01*
%TO.C,U102*%
X139710000Y-96770000D02*
X138060000Y-96770000D01*
X138060000Y-96770000D02*
X138060000Y-117210000D01*
X138060000Y-117210000D02*
X143360000Y-117210000D01*
X143360000Y-117210000D02*
X143360000Y-96770000D01*
X143360000Y-96770000D02*
X141710000Y-96770000D01*
X135570000Y-96710000D02*
X135570000Y-117270000D01*
X135570000Y-117270000D02*
X145850000Y-117270000D01*
X145850000Y-117270000D02*
X145850000Y-96710000D01*
X145850000Y-96710000D02*
X135570000Y-96710000D01*
X141710000Y-96770000D02*
G75*
G02*
X139710000Y-96770000I-1000000J0D01*
G01*
%TO.C,U101*%
X137410000Y-96770000D02*
X135760000Y-96770000D01*
X135760000Y-96770000D02*
X135760000Y-117210000D01*
X135760000Y-117210000D02*
X141060000Y-117210000D01*
X141060000Y-117210000D02*
X141060000Y-96770000D01*
X141060000Y-96770000D02*
X139410000Y-96770000D01*
X133270000Y-96710000D02*
X133270000Y-117270000D01*
X133270000Y-117270000D02*
X143550000Y-117270000D01*
X143550000Y-117270000D02*
X143550000Y-96710000D01*
X143550000Y-96710000D02*
X133270000Y-96710000D01*
X139410000Y-96770000D02*
G75*
G02*
X137410000Y-96770000I-1000000J0D01*
G01*
%TO.C,C101*%
X143120000Y-119870000D02*
X135880000Y-119870000D01*
X143120000Y-117130000D02*
X135880000Y-117130000D01*
X143120000Y-119870000D02*
X143120000Y-117130000D01*
X135880000Y-119870000D02*
X135880000Y-117130000D01*
%TO.C,R104*%
X144277500Y-95137258D02*
X144277500Y-94662742D01*
X145322500Y-95137258D02*
X145322500Y-94662742D01*
%TO.C,Q103*%
X137140000Y-93270000D02*
X137140000Y-94200000D01*
X137140000Y-96430000D02*
X137140000Y-95500000D01*
X137140000Y-96430000D02*
X139300000Y-96430000D01*
X137140000Y-93270000D02*
X138600000Y-93270000D01*
%TO.C,Q102*%
X142760000Y-96430000D02*
X142760000Y-95500000D01*
X142760000Y-93270000D02*
X142760000Y-94200000D01*
X142760000Y-93270000D02*
X140600000Y-93270000D01*
X142760000Y-96430000D02*
X141300000Y-96430000D01*
%TO.C,R105*%
X128312742Y-119122500D02*
X128787258Y-119122500D01*
X128312742Y-118077500D02*
X128787258Y-118077500D01*
%TO.C,R106*%
X118337742Y-94477500D02*
X118812258Y-94477500D01*
X118337742Y-95522500D02*
X118812258Y-95522500D01*
%TO.C,U102*%
X123710000Y-96770000D02*
X122060000Y-96770000D01*
X122060000Y-96770000D02*
X122060000Y-117210000D01*
X122060000Y-117210000D02*
X127360000Y-117210000D01*
X127360000Y-117210000D02*
X127360000Y-96770000D01*
X127360000Y-96770000D02*
X125710000Y-96770000D01*
X119570000Y-96710000D02*
X119570000Y-117270000D01*
X119570000Y-117270000D02*
X129850000Y-117270000D01*
X129850000Y-117270000D02*
X129850000Y-96710000D01*
X129850000Y-96710000D02*
X119570000Y-96710000D01*
X125710000Y-96770000D02*
G75*
G02*
X123710000Y-96770000I-1000000J0D01*
G01*
%TO.C,U101*%
X121410000Y-96770000D02*
X119760000Y-96770000D01*
X119760000Y-96770000D02*
X119760000Y-117210000D01*
X119760000Y-117210000D02*
X125060000Y-117210000D01*
X125060000Y-117210000D02*
X125060000Y-96770000D01*
X125060000Y-96770000D02*
X123410000Y-96770000D01*
X117270000Y-96710000D02*
X117270000Y-117270000D01*
X117270000Y-117270000D02*
X127550000Y-117270000D01*
X127550000Y-117270000D02*
X127550000Y-96710000D01*
X127550000Y-96710000D02*
X117270000Y-96710000D01*
X123410000Y-96770000D02*
G75*
G02*
X121410000Y-96770000I-1000000J0D01*
G01*
%TO.C,C101*%
X127120000Y-119870000D02*
X119880000Y-119870000D01*
X127120000Y-117130000D02*
X119880000Y-117130000D01*
X127120000Y-119870000D02*
X127120000Y-117130000D01*
X119880000Y-119870000D02*
X119880000Y-117130000D01*
%TO.C,R104*%
X128277500Y-95137258D02*
X128277500Y-94662742D01*
X129322500Y-95137258D02*
X129322500Y-94662742D01*
%TO.C,Q103*%
X121140000Y-93270000D02*
X121140000Y-94200000D01*
X121140000Y-96430000D02*
X121140000Y-95500000D01*
X121140000Y-96430000D02*
X123300000Y-96430000D01*
X121140000Y-93270000D02*
X122600000Y-93270000D01*
%TO.C,Q102*%
X126760000Y-96430000D02*
X126760000Y-95500000D01*
X126760000Y-93270000D02*
X126760000Y-94200000D01*
X126760000Y-93270000D02*
X124600000Y-93270000D01*
X126760000Y-96430000D02*
X125300000Y-96430000D01*
%TO.C,R104*%
X112327500Y-95137258D02*
X112327500Y-94662742D01*
X113372500Y-95137258D02*
X113372500Y-94662742D01*
%TO.C,Q102*%
X110810000Y-96430000D02*
X110810000Y-95500000D01*
X110810000Y-93270000D02*
X110810000Y-94200000D01*
X110810000Y-93270000D02*
X108650000Y-93270000D01*
X110810000Y-96430000D02*
X109350000Y-96430000D01*
%TO.C,Q103*%
X105190000Y-93270000D02*
X105190000Y-94200000D01*
X105190000Y-96430000D02*
X105190000Y-95500000D01*
X105190000Y-96430000D02*
X107350000Y-96430000D01*
X105190000Y-93270000D02*
X106650000Y-93270000D01*
%TO.C,C101*%
X111170000Y-119870000D02*
X103930000Y-119870000D01*
X111170000Y-117130000D02*
X103930000Y-117130000D01*
X111170000Y-119870000D02*
X111170000Y-117130000D01*
X103930000Y-119870000D02*
X103930000Y-117130000D01*
%TO.C,U102*%
X107760000Y-96770000D02*
X106110000Y-96770000D01*
X106110000Y-96770000D02*
X106110000Y-117210000D01*
X106110000Y-117210000D02*
X111410000Y-117210000D01*
X111410000Y-117210000D02*
X111410000Y-96770000D01*
X111410000Y-96770000D02*
X109760000Y-96770000D01*
X103620000Y-96710000D02*
X103620000Y-117270000D01*
X103620000Y-117270000D02*
X113900000Y-117270000D01*
X113900000Y-117270000D02*
X113900000Y-96710000D01*
X113900000Y-96710000D02*
X103620000Y-96710000D01*
X109760000Y-96770000D02*
G75*
G02*
X107760000Y-96770000I-1000000J0D01*
G01*
%TO.C,U101*%
X105460000Y-96770000D02*
X103810000Y-96770000D01*
X103810000Y-96770000D02*
X103810000Y-117210000D01*
X103810000Y-117210000D02*
X109110000Y-117210000D01*
X109110000Y-117210000D02*
X109110000Y-96770000D01*
X109110000Y-96770000D02*
X107460000Y-96770000D01*
X101320000Y-96710000D02*
X101320000Y-117270000D01*
X101320000Y-117270000D02*
X111600000Y-117270000D01*
X111600000Y-117270000D02*
X111600000Y-96710000D01*
X111600000Y-96710000D02*
X101320000Y-96710000D01*
X107460000Y-96770000D02*
G75*
G02*
X105460000Y-96770000I-1000000J0D01*
G01*
%TO.C,R106*%
X102387742Y-94477500D02*
X102862258Y-94477500D01*
X102387742Y-95522500D02*
X102862258Y-95522500D01*
%TO.C,R105*%
X112362742Y-119122500D02*
X112837258Y-119122500D01*
X112362742Y-118077500D02*
X112837258Y-118077500D01*
%TO.C,23*%
D12*
X104460095Y-63079619D02*
X104507714Y-63032000D01*
X104602952Y-62984380D01*
X104841047Y-62984380D01*
X104936285Y-63032000D01*
X104983904Y-63079619D01*
X105031523Y-63174857D01*
X105031523Y-63270095D01*
X104983904Y-63412952D01*
X104412476Y-63984380D01*
X105031523Y-63984380D01*
X105364857Y-62984380D02*
X105983904Y-62984380D01*
X105650571Y-63365333D01*
X105793428Y-63365333D01*
X105888666Y-63412952D01*
X105936285Y-63460571D01*
X105983904Y-63555809D01*
X105983904Y-63793904D01*
X105936285Y-63889142D01*
X105888666Y-63936761D01*
X105793428Y-63984380D01*
X105507714Y-63984380D01*
X105412476Y-63936761D01*
X105364857Y-63889142D01*
%TO.C,SOT*%
X104056523Y-62593761D02*
X104199380Y-62641380D01*
X104437476Y-62641380D01*
X104532714Y-62593761D01*
X104580333Y-62546142D01*
X104627952Y-62450904D01*
X104627952Y-62355666D01*
X104580333Y-62260428D01*
X104532714Y-62212809D01*
X104437476Y-62165190D01*
X104247000Y-62117571D01*
X104151761Y-62069952D01*
X104104142Y-62022333D01*
X104056523Y-61927095D01*
X104056523Y-61831857D01*
X104104142Y-61736619D01*
X104151761Y-61689000D01*
X104247000Y-61641380D01*
X104485095Y-61641380D01*
X104627952Y-61689000D01*
X105247000Y-61641380D02*
X105437476Y-61641380D01*
X105532714Y-61689000D01*
X105627952Y-61784238D01*
X105675571Y-61974714D01*
X105675571Y-62308047D01*
X105627952Y-62498523D01*
X105532714Y-62593761D01*
X105437476Y-62641380D01*
X105247000Y-62641380D01*
X105151761Y-62593761D01*
X105056523Y-62498523D01*
X105008904Y-62308047D01*
X105008904Y-61974714D01*
X105056523Y-61784238D01*
X105151761Y-61689000D01*
X105247000Y-61641380D01*
X105961285Y-61641380D02*
X106532714Y-61641380D01*
X106247000Y-62641380D02*
X106247000Y-61641380D01*
%TO.C,23*%
X101016095Y-45015619D02*
X101063714Y-44968000D01*
X101158952Y-44920380D01*
X101397047Y-44920380D01*
X101492285Y-44968000D01*
X101539904Y-45015619D01*
X101587523Y-45110857D01*
X101587523Y-45206095D01*
X101539904Y-45348952D01*
X100968476Y-45920380D01*
X101587523Y-45920380D01*
X101920857Y-44920380D02*
X102539904Y-44920380D01*
X102206571Y-45301333D01*
X102349428Y-45301333D01*
X102444666Y-45348952D01*
X102492285Y-45396571D01*
X102539904Y-45491809D01*
X102539904Y-45729904D01*
X102492285Y-45825142D01*
X102444666Y-45872761D01*
X102349428Y-45920380D01*
X102063714Y-45920380D01*
X101968476Y-45872761D01*
X101920857Y-45825142D01*
%TO.C,SOT*%
X100562523Y-47215761D02*
X100705380Y-47263380D01*
X100943476Y-47263380D01*
X101038714Y-47215761D01*
X101086333Y-47168142D01*
X101133952Y-47072904D01*
X101133952Y-46977666D01*
X101086333Y-46882428D01*
X101038714Y-46834809D01*
X100943476Y-46787190D01*
X100753000Y-46739571D01*
X100657761Y-46691952D01*
X100610142Y-46644333D01*
X100562523Y-46549095D01*
X100562523Y-46453857D01*
X100610142Y-46358619D01*
X100657761Y-46311000D01*
X100753000Y-46263380D01*
X100991095Y-46263380D01*
X101133952Y-46311000D01*
X101753000Y-46263380D02*
X101943476Y-46263380D01*
X102038714Y-46311000D01*
X102133952Y-46406238D01*
X102181571Y-46596714D01*
X102181571Y-46930047D01*
X102133952Y-47120523D01*
X102038714Y-47215761D01*
X101943476Y-47263380D01*
X101753000Y-47263380D01*
X101657761Y-47215761D01*
X101562523Y-47120523D01*
X101514904Y-46930047D01*
X101514904Y-46596714D01*
X101562523Y-46406238D01*
X101657761Y-46311000D01*
X101753000Y-46263380D01*
X102467285Y-46263380D02*
X103038714Y-46263380D01*
X102753000Y-47263380D02*
X102753000Y-46263380D01*
%TO.C,23*%
X109016095Y-45015619D02*
X109063714Y-44968000D01*
X109158952Y-44920380D01*
X109397047Y-44920380D01*
X109492285Y-44968000D01*
X109539904Y-45015619D01*
X109587523Y-45110857D01*
X109587523Y-45206095D01*
X109539904Y-45348952D01*
X108968476Y-45920380D01*
X109587523Y-45920380D01*
X109920857Y-44920380D02*
X110539904Y-44920380D01*
X110206571Y-45301333D01*
X110349428Y-45301333D01*
X110444666Y-45348952D01*
X110492285Y-45396571D01*
X110539904Y-45491809D01*
X110539904Y-45729904D01*
X110492285Y-45825142D01*
X110444666Y-45872761D01*
X110349428Y-45920380D01*
X110063714Y-45920380D01*
X109968476Y-45872761D01*
X109920857Y-45825142D01*
%TO.C,SOT*%
X108562523Y-47215761D02*
X108705380Y-47263380D01*
X108943476Y-47263380D01*
X109038714Y-47215761D01*
X109086333Y-47168142D01*
X109133952Y-47072904D01*
X109133952Y-46977666D01*
X109086333Y-46882428D01*
X109038714Y-46834809D01*
X108943476Y-46787190D01*
X108753000Y-46739571D01*
X108657761Y-46691952D01*
X108610142Y-46644333D01*
X108562523Y-46549095D01*
X108562523Y-46453857D01*
X108610142Y-46358619D01*
X108657761Y-46311000D01*
X108753000Y-46263380D01*
X108991095Y-46263380D01*
X109133952Y-46311000D01*
X109753000Y-46263380D02*
X109943476Y-46263380D01*
X110038714Y-46311000D01*
X110133952Y-46406238D01*
X110181571Y-46596714D01*
X110181571Y-46930047D01*
X110133952Y-47120523D01*
X110038714Y-47215761D01*
X109943476Y-47263380D01*
X109753000Y-47263380D01*
X109657761Y-47215761D01*
X109562523Y-47120523D01*
X109514904Y-46930047D01*
X109514904Y-46596714D01*
X109562523Y-46406238D01*
X109657761Y-46311000D01*
X109753000Y-46263380D01*
X110467285Y-46263380D02*
X111038714Y-46263380D01*
X110753000Y-47263380D02*
X110753000Y-46263380D01*
%TO.C,REF\u002A\u002A*%
X110866666Y-65982380D02*
X110533333Y-65506190D01*
X110295238Y-65982380D02*
X110295238Y-64982380D01*
X110676190Y-64982380D01*
X110771428Y-65030000D01*
X110819047Y-65077619D01*
X110866666Y-65172857D01*
X110866666Y-65315714D01*
X110819047Y-65410952D01*
X110771428Y-65458571D01*
X110676190Y-65506190D01*
X110295238Y-65506190D01*
X111295238Y-65458571D02*
X111628571Y-65458571D01*
X111771428Y-65982380D02*
X111295238Y-65982380D01*
X111295238Y-64982380D01*
X111771428Y-64982380D01*
X112533333Y-65458571D02*
X112200000Y-65458571D01*
X112200000Y-65982380D02*
X112200000Y-64982380D01*
X112676190Y-64982380D01*
X113200000Y-64982380D02*
X113200000Y-65220476D01*
X112961904Y-65125238D02*
X113200000Y-65220476D01*
X113438095Y-65125238D01*
X113057142Y-65410952D02*
X113200000Y-65220476D01*
X113342857Y-65410952D01*
X113961904Y-64982380D02*
X113961904Y-65220476D01*
X113723809Y-65125238D02*
X113961904Y-65220476D01*
X114200000Y-65125238D01*
X113819047Y-65410952D02*
X113961904Y-65220476D01*
X114104761Y-65410952D01*
%TO.C, *%
%TO.C,REF\u002A\u002A*%
X120366666Y-65982380D02*
X120033333Y-65506190D01*
X119795238Y-65982380D02*
X119795238Y-64982380D01*
X120176190Y-64982380D01*
X120271428Y-65030000D01*
X120319047Y-65077619D01*
X120366666Y-65172857D01*
X120366666Y-65315714D01*
X120319047Y-65410952D01*
X120271428Y-65458571D01*
X120176190Y-65506190D01*
X119795238Y-65506190D01*
X120795238Y-65458571D02*
X121128571Y-65458571D01*
X121271428Y-65982380D02*
X120795238Y-65982380D01*
X120795238Y-64982380D01*
X121271428Y-64982380D01*
X122033333Y-65458571D02*
X121700000Y-65458571D01*
X121700000Y-65982380D02*
X121700000Y-64982380D01*
X122176190Y-64982380D01*
X122700000Y-64982380D02*
X122700000Y-65220476D01*
X122461904Y-65125238D02*
X122700000Y-65220476D01*
X122938095Y-65125238D01*
X122557142Y-65410952D02*
X122700000Y-65220476D01*
X122842857Y-65410952D01*
X123461904Y-64982380D02*
X123461904Y-65220476D01*
X123223809Y-65125238D02*
X123461904Y-65220476D01*
X123700000Y-65125238D01*
X123319047Y-65410952D02*
X123461904Y-65220476D01*
X123604761Y-65410952D01*
%TO.C, *%
%TO.C,DPAK*%
X131729523Y-42872380D02*
X131729523Y-41872380D01*
X131967619Y-41872380D01*
X132110476Y-41920000D01*
X132205714Y-42015238D01*
X132253333Y-42110476D01*
X132300952Y-42300952D01*
X132300952Y-42443809D01*
X132253333Y-42634285D01*
X132205714Y-42729523D01*
X132110476Y-42824761D01*
X131967619Y-42872380D01*
X131729523Y-42872380D01*
X132729523Y-42872380D02*
X132729523Y-41872380D01*
X133110476Y-41872380D01*
X133205714Y-41920000D01*
X133253333Y-41967619D01*
X133300952Y-42062857D01*
X133300952Y-42205714D01*
X133253333Y-42300952D01*
X133205714Y-42348571D01*
X133110476Y-42396190D01*
X132729523Y-42396190D01*
X133681904Y-42586666D02*
X134158095Y-42586666D01*
X133586666Y-42872380D02*
X133920000Y-41872380D01*
X134253333Y-42872380D01*
X134586666Y-42872380D02*
X134586666Y-41872380D01*
X135158095Y-42872380D02*
X134729523Y-42300952D01*
X135158095Y-41872380D02*
X134586666Y-42443809D01*
%TO.C,MAF*%
X131975523Y-44396380D02*
X131975523Y-43396380D01*
X132308857Y-44110666D01*
X132642190Y-43396380D01*
X132642190Y-44396380D01*
X133070761Y-44110666D02*
X133546952Y-44110666D01*
X132975523Y-44396380D02*
X133308857Y-43396380D01*
X133642190Y-44396380D01*
X134308857Y-43872571D02*
X133975523Y-43872571D01*
X133975523Y-44396380D02*
X133975523Y-43396380D01*
X134451714Y-43396380D01*
%TO.C,DPAK*%
X130532380Y-62610476D02*
X129532380Y-62610476D01*
X129532380Y-62372380D01*
X129580000Y-62229523D01*
X129675238Y-62134285D01*
X129770476Y-62086666D01*
X129960952Y-62039047D01*
X130103809Y-62039047D01*
X130294285Y-62086666D01*
X130389523Y-62134285D01*
X130484761Y-62229523D01*
X130532380Y-62372380D01*
X130532380Y-62610476D01*
X130532380Y-61610476D02*
X129532380Y-61610476D01*
X129532380Y-61229523D01*
X129580000Y-61134285D01*
X129627619Y-61086666D01*
X129722857Y-61039047D01*
X129865714Y-61039047D01*
X129960952Y-61086666D01*
X130008571Y-61134285D01*
X130056190Y-61229523D01*
X130056190Y-61610476D01*
X130246666Y-60658095D02*
X130246666Y-60181904D01*
X130532380Y-60753333D02*
X129532380Y-60420000D01*
X130532380Y-60086666D01*
X130532380Y-59753333D02*
X129532380Y-59753333D01*
X130532380Y-59181904D02*
X129960952Y-59610476D01*
X129532380Y-59181904D02*
X130103809Y-59753333D01*
%TO.C,MAF*%
X129008380Y-61856476D02*
X128008380Y-61856476D01*
X128722666Y-61523142D01*
X128008380Y-61189809D01*
X129008380Y-61189809D01*
X128722666Y-60761238D02*
X128722666Y-60285047D01*
X129008380Y-60856476D02*
X128008380Y-60523142D01*
X129008380Y-60189809D01*
X128484571Y-59523142D02*
X128484571Y-59856476D01*
X129008380Y-59856476D02*
X128008380Y-59856476D01*
X128008380Y-59380285D01*
%TO.C,DPAK*%
X140532380Y-62610476D02*
X139532380Y-62610476D01*
X139532380Y-62372380D01*
X139580000Y-62229523D01*
X139675238Y-62134285D01*
X139770476Y-62086666D01*
X139960952Y-62039047D01*
X140103809Y-62039047D01*
X140294285Y-62086666D01*
X140389523Y-62134285D01*
X140484761Y-62229523D01*
X140532380Y-62372380D01*
X140532380Y-62610476D01*
X140532380Y-61610476D02*
X139532380Y-61610476D01*
X139532380Y-61229523D01*
X139580000Y-61134285D01*
X139627619Y-61086666D01*
X139722857Y-61039047D01*
X139865714Y-61039047D01*
X139960952Y-61086666D01*
X140008571Y-61134285D01*
X140056190Y-61229523D01*
X140056190Y-61610476D01*
X140246666Y-60658095D02*
X140246666Y-60181904D01*
X140532380Y-60753333D02*
X139532380Y-60420000D01*
X140532380Y-60086666D01*
X140532380Y-59753333D02*
X139532380Y-59753333D01*
X140532380Y-59181904D02*
X139960952Y-59610476D01*
X139532380Y-59181904D02*
X140103809Y-59753333D01*
%TO.C,MAF*%
X139008380Y-61856476D02*
X138008380Y-61856476D01*
X138722666Y-61523142D01*
X138008380Y-61189809D01*
X139008380Y-61189809D01*
X138722666Y-60761238D02*
X138722666Y-60285047D01*
X139008380Y-60856476D02*
X138008380Y-60523142D01*
X139008380Y-60189809D01*
X138484571Y-59523142D02*
X138484571Y-59856476D01*
X139008380Y-59856476D02*
X138008380Y-59856476D01*
X138008380Y-59380285D01*
%TO.C,D2PAK*%
X151483333Y-40292380D02*
X151483333Y-39292380D01*
X151721428Y-39292380D01*
X151864285Y-39340000D01*
X151959523Y-39435238D01*
X152007142Y-39530476D01*
X152054761Y-39720952D01*
X152054761Y-39863809D01*
X152007142Y-40054285D01*
X151959523Y-40149523D01*
X151864285Y-40244761D01*
X151721428Y-40292380D01*
X151483333Y-40292380D01*
X152435714Y-39387619D02*
X152483333Y-39340000D01*
X152578571Y-39292380D01*
X152816666Y-39292380D01*
X152911904Y-39340000D01*
X152959523Y-39387619D01*
X153007142Y-39482857D01*
X153007142Y-39578095D01*
X152959523Y-39720952D01*
X152388095Y-40292380D01*
X153007142Y-40292380D01*
X153435714Y-40292380D02*
X153435714Y-39292380D01*
X153816666Y-39292380D01*
X153911904Y-39340000D01*
X153959523Y-39387619D01*
X154007142Y-39482857D01*
X154007142Y-39625714D01*
X153959523Y-39720952D01*
X153911904Y-39768571D01*
X153816666Y-39816190D01*
X153435714Y-39816190D01*
X154388095Y-40006666D02*
X154864285Y-40006666D01*
X154292857Y-40292380D02*
X154626190Y-39292380D01*
X154959523Y-40292380D01*
X155292857Y-40292380D02*
X155292857Y-39292380D01*
X155864285Y-40292380D02*
X155435714Y-39720952D01*
X155864285Y-39292380D02*
X155292857Y-39863809D01*
%TO.C,MAF*%
X151951523Y-49182380D02*
X151951523Y-48182380D01*
X152284857Y-48896666D01*
X152618190Y-48182380D01*
X152618190Y-49182380D01*
X153046761Y-48896666D02*
X153522952Y-48896666D01*
X152951523Y-49182380D02*
X153284857Y-48182380D01*
X153618190Y-49182380D01*
X154284857Y-48658571D02*
X153951523Y-48658571D01*
X153951523Y-49182380D02*
X153951523Y-48182380D01*
X154427714Y-48182380D01*
%TO.C,D2PAK*%
X173483333Y-40292380D02*
X173483333Y-39292380D01*
X173721428Y-39292380D01*
X173864285Y-39340000D01*
X173959523Y-39435238D01*
X174007142Y-39530476D01*
X174054761Y-39720952D01*
X174054761Y-39863809D01*
X174007142Y-40054285D01*
X173959523Y-40149523D01*
X173864285Y-40244761D01*
X173721428Y-40292380D01*
X173483333Y-40292380D01*
X174435714Y-39387619D02*
X174483333Y-39340000D01*
X174578571Y-39292380D01*
X174816666Y-39292380D01*
X174911904Y-39340000D01*
X174959523Y-39387619D01*
X175007142Y-39482857D01*
X175007142Y-39578095D01*
X174959523Y-39720952D01*
X174388095Y-40292380D01*
X175007142Y-40292380D01*
X175435714Y-40292380D02*
X175435714Y-39292380D01*
X175816666Y-39292380D01*
X175911904Y-39340000D01*
X175959523Y-39387619D01*
X176007142Y-39482857D01*
X176007142Y-39625714D01*
X175959523Y-39720952D01*
X175911904Y-39768571D01*
X175816666Y-39816190D01*
X175435714Y-39816190D01*
X176388095Y-40006666D02*
X176864285Y-40006666D01*
X176292857Y-40292380D02*
X176626190Y-39292380D01*
X176959523Y-40292380D01*
X177292857Y-40292380D02*
X177292857Y-39292380D01*
X177864285Y-40292380D02*
X177435714Y-39720952D01*
X177864285Y-39292380D02*
X177292857Y-39863809D01*
%TO.C,MAF*%
X173951523Y-49182380D02*
X173951523Y-48182380D01*
X174284857Y-48896666D01*
X174618190Y-48182380D01*
X174618190Y-49182380D01*
X175046761Y-48896666D02*
X175522952Y-48896666D01*
X174951523Y-49182380D02*
X175284857Y-48182380D01*
X175618190Y-49182380D01*
X176284857Y-48658571D02*
X175951523Y-48658571D01*
X175951523Y-49182380D02*
X175951523Y-48182380D01*
X176427714Y-48182380D01*
%TO.C,D2PAK*%
X155612380Y-67316666D02*
X154612380Y-67316666D01*
X154612380Y-67078571D01*
X154660000Y-66935714D01*
X154755238Y-66840476D01*
X154850476Y-66792857D01*
X155040952Y-66745238D01*
X155183809Y-66745238D01*
X155374285Y-66792857D01*
X155469523Y-66840476D01*
X155564761Y-66935714D01*
X155612380Y-67078571D01*
X155612380Y-67316666D01*
X154707619Y-66364285D02*
X154660000Y-66316666D01*
X154612380Y-66221428D01*
X154612380Y-65983333D01*
X154660000Y-65888095D01*
X154707619Y-65840476D01*
X154802857Y-65792857D01*
X154898095Y-65792857D01*
X155040952Y-65840476D01*
X155612380Y-66411904D01*
X155612380Y-65792857D01*
X155612380Y-65364285D02*
X154612380Y-65364285D01*
X154612380Y-64983333D01*
X154660000Y-64888095D01*
X154707619Y-64840476D01*
X154802857Y-64792857D01*
X154945714Y-64792857D01*
X155040952Y-64840476D01*
X155088571Y-64888095D01*
X155136190Y-64983333D01*
X155136190Y-65364285D01*
X155326666Y-64411904D02*
X155326666Y-63935714D01*
X155612380Y-64507142D02*
X154612380Y-64173809D01*
X155612380Y-63840476D01*
X155612380Y-63507142D02*
X154612380Y-63507142D01*
X155612380Y-62935714D02*
X155040952Y-63364285D01*
X154612380Y-62935714D02*
X155183809Y-63507142D01*
%TO.C,MAF*%
X146722380Y-65832476D02*
X145722380Y-65832476D01*
X146436666Y-65499142D01*
X145722380Y-65165809D01*
X146722380Y-65165809D01*
X146436666Y-64737238D02*
X146436666Y-64261047D01*
X146722380Y-64832476D02*
X145722380Y-64499142D01*
X146722380Y-64165809D01*
X146198571Y-63499142D02*
X146198571Y-63832476D01*
X146722380Y-63832476D02*
X145722380Y-63832476D01*
X145722380Y-63356285D01*
%TO.C,D2PAK*%
X168612380Y-67316666D02*
X167612380Y-67316666D01*
X167612380Y-67078571D01*
X167660000Y-66935714D01*
X167755238Y-66840476D01*
X167850476Y-66792857D01*
X168040952Y-66745238D01*
X168183809Y-66745238D01*
X168374285Y-66792857D01*
X168469523Y-66840476D01*
X168564761Y-66935714D01*
X168612380Y-67078571D01*
X168612380Y-67316666D01*
X167707619Y-66364285D02*
X167660000Y-66316666D01*
X167612380Y-66221428D01*
X167612380Y-65983333D01*
X167660000Y-65888095D01*
X167707619Y-65840476D01*
X167802857Y-65792857D01*
X167898095Y-65792857D01*
X168040952Y-65840476D01*
X168612380Y-66411904D01*
X168612380Y-65792857D01*
X168612380Y-65364285D02*
X167612380Y-65364285D01*
X167612380Y-64983333D01*
X167660000Y-64888095D01*
X167707619Y-64840476D01*
X167802857Y-64792857D01*
X167945714Y-64792857D01*
X168040952Y-64840476D01*
X168088571Y-64888095D01*
X168136190Y-64983333D01*
X168136190Y-65364285D01*
X168326666Y-64411904D02*
X168326666Y-63935714D01*
X168612380Y-64507142D02*
X167612380Y-64173809D01*
X168612380Y-63840476D01*
X168612380Y-63507142D02*
X167612380Y-63507142D01*
X168612380Y-62935714D02*
X168040952Y-63364285D01*
X167612380Y-62935714D02*
X168183809Y-63507142D01*
%TO.C,MAF*%
X159722380Y-65832476D02*
X158722380Y-65832476D01*
X159436666Y-65499142D01*
X158722380Y-65165809D01*
X159722380Y-65165809D01*
X159436666Y-64737238D02*
X159436666Y-64261047D01*
X159722380Y-64832476D02*
X158722380Y-64499142D01*
X159722380Y-64165809D01*
X159198571Y-63499142D02*
X159198571Y-63832476D01*
X159722380Y-63832476D02*
X158722380Y-63832476D01*
X158722380Y-63356285D01*
%TO.C,D2PAK*%
X181612380Y-67316666D02*
X180612380Y-67316666D01*
X180612380Y-67078571D01*
X180660000Y-66935714D01*
X180755238Y-66840476D01*
X180850476Y-66792857D01*
X181040952Y-66745238D01*
X181183809Y-66745238D01*
X181374285Y-66792857D01*
X181469523Y-66840476D01*
X181564761Y-66935714D01*
X181612380Y-67078571D01*
X181612380Y-67316666D01*
X180707619Y-66364285D02*
X180660000Y-66316666D01*
X180612380Y-66221428D01*
X180612380Y-65983333D01*
X180660000Y-65888095D01*
X180707619Y-65840476D01*
X180802857Y-65792857D01*
X180898095Y-65792857D01*
X181040952Y-65840476D01*
X181612380Y-66411904D01*
X181612380Y-65792857D01*
X181612380Y-65364285D02*
X180612380Y-65364285D01*
X180612380Y-64983333D01*
X180660000Y-64888095D01*
X180707619Y-64840476D01*
X180802857Y-64792857D01*
X180945714Y-64792857D01*
X181040952Y-64840476D01*
X181088571Y-64888095D01*
X181136190Y-64983333D01*
X181136190Y-65364285D01*
X181326666Y-64411904D02*
X181326666Y-63935714D01*
X181612380Y-64507142D02*
X180612380Y-64173809D01*
X181612380Y-63840476D01*
X181612380Y-63507142D02*
X180612380Y-63507142D01*
X181612380Y-62935714D02*
X181040952Y-63364285D01*
X180612380Y-62935714D02*
X181183809Y-63507142D01*
%TO.C,MAF*%
X172722380Y-65832476D02*
X171722380Y-65832476D01*
X172436666Y-65499142D01*
X171722380Y-65165809D01*
X172722380Y-65165809D01*
X172436666Y-64737238D02*
X172436666Y-64261047D01*
X172722380Y-64832476D02*
X171722380Y-64499142D01*
X172722380Y-64165809D01*
X172198571Y-63499142D02*
X172198571Y-63832476D01*
X172722380Y-63832476D02*
X171722380Y-63832476D01*
X171722380Y-63356285D01*
%TO.C,8*%
X192286761Y-45244952D02*
X192191523Y-45197333D01*
X192143904Y-45149714D01*
X192096285Y-45054476D01*
X192096285Y-45006857D01*
X192143904Y-44911619D01*
X192191523Y-44864000D01*
X192286761Y-44816380D01*
X192477238Y-44816380D01*
X192572476Y-44864000D01*
X192620095Y-44911619D01*
X192667714Y-45006857D01*
X192667714Y-45054476D01*
X192620095Y-45149714D01*
X192572476Y-45197333D01*
X192477238Y-45244952D01*
X192286761Y-45244952D01*
X192191523Y-45292571D01*
X192143904Y-45340190D01*
X192096285Y-45435428D01*
X192096285Y-45625904D01*
X192143904Y-45721142D01*
X192191523Y-45768761D01*
X192286761Y-45816380D01*
X192477238Y-45816380D01*
X192572476Y-45768761D01*
X192620095Y-45721142D01*
X192667714Y-45625904D01*
X192667714Y-45435428D01*
X192620095Y-45340190D01*
X192572476Y-45292571D01*
X192477238Y-45244952D01*
%TO.C,MAF*%
X187127523Y-45816380D02*
X187127523Y-44816380D01*
X187460857Y-45530666D01*
X187794190Y-44816380D01*
X187794190Y-45816380D01*
X188222761Y-45530666D02*
X188698952Y-45530666D01*
X188127523Y-45816380D02*
X188460857Y-44816380D01*
X188794190Y-45816380D01*
X189460857Y-45292571D02*
X189127523Y-45292571D01*
X189127523Y-45816380D02*
X189127523Y-44816380D01*
X189603714Y-44816380D01*
%TO.C,8*%
X192286761Y-57744952D02*
X192191523Y-57697333D01*
X192143904Y-57649714D01*
X192096285Y-57554476D01*
X192096285Y-57506857D01*
X192143904Y-57411619D01*
X192191523Y-57364000D01*
X192286761Y-57316380D01*
X192477238Y-57316380D01*
X192572476Y-57364000D01*
X192620095Y-57411619D01*
X192667714Y-57506857D01*
X192667714Y-57554476D01*
X192620095Y-57649714D01*
X192572476Y-57697333D01*
X192477238Y-57744952D01*
X192286761Y-57744952D01*
X192191523Y-57792571D01*
X192143904Y-57840190D01*
X192096285Y-57935428D01*
X192096285Y-58125904D01*
X192143904Y-58221142D01*
X192191523Y-58268761D01*
X192286761Y-58316380D01*
X192477238Y-58316380D01*
X192572476Y-58268761D01*
X192620095Y-58221142D01*
X192667714Y-58125904D01*
X192667714Y-57935428D01*
X192620095Y-57840190D01*
X192572476Y-57792571D01*
X192477238Y-57744952D01*
%TO.C,MAF*%
X187127523Y-58316380D02*
X187127523Y-57316380D01*
X187460857Y-58030666D01*
X187794190Y-57316380D01*
X187794190Y-58316380D01*
X188222761Y-58030666D02*
X188698952Y-58030666D01*
X188127523Y-58316380D02*
X188460857Y-57316380D01*
X188794190Y-58316380D01*
X189460857Y-57792571D02*
X189127523Y-57792571D01*
X189127523Y-58316380D02*
X189127523Y-57316380D01*
X189603714Y-57316380D01*
%TO.C,8*%
X192286761Y-70244952D02*
X192191523Y-70197333D01*
X192143904Y-70149714D01*
X192096285Y-70054476D01*
X192096285Y-70006857D01*
X192143904Y-69911619D01*
X192191523Y-69864000D01*
X192286761Y-69816380D01*
X192477238Y-69816380D01*
X192572476Y-69864000D01*
X192620095Y-69911619D01*
X192667714Y-70006857D01*
X192667714Y-70054476D01*
X192620095Y-70149714D01*
X192572476Y-70197333D01*
X192477238Y-70244952D01*
X192286761Y-70244952D01*
X192191523Y-70292571D01*
X192143904Y-70340190D01*
X192096285Y-70435428D01*
X192096285Y-70625904D01*
X192143904Y-70721142D01*
X192191523Y-70768761D01*
X192286761Y-70816380D01*
X192477238Y-70816380D01*
X192572476Y-70768761D01*
X192620095Y-70721142D01*
X192667714Y-70625904D01*
X192667714Y-70435428D01*
X192620095Y-70340190D01*
X192572476Y-70292571D01*
X192477238Y-70244952D01*
%TO.C,MAF*%
X187127523Y-70816380D02*
X187127523Y-69816380D01*
X187460857Y-70530666D01*
X187794190Y-69816380D01*
X187794190Y-70816380D01*
X188222761Y-70530666D02*
X188698952Y-70530666D01*
X188127523Y-70816380D02*
X188460857Y-69816380D01*
X188794190Y-70816380D01*
X189460857Y-70292571D02*
X189127523Y-70292571D01*
X189127523Y-70816380D02*
X189127523Y-69816380D01*
X189603714Y-69816380D01*
%TO.C,8*%
X192286761Y-82744952D02*
X192191523Y-82697333D01*
X192143904Y-82649714D01*
X192096285Y-82554476D01*
X192096285Y-82506857D01*
X192143904Y-82411619D01*
X192191523Y-82364000D01*
X192286761Y-82316380D01*
X192477238Y-82316380D01*
X192572476Y-82364000D01*
X192620095Y-82411619D01*
X192667714Y-82506857D01*
X192667714Y-82554476D01*
X192620095Y-82649714D01*
X192572476Y-82697333D01*
X192477238Y-82744952D01*
X192286761Y-82744952D01*
X192191523Y-82792571D01*
X192143904Y-82840190D01*
X192096285Y-82935428D01*
X192096285Y-83125904D01*
X192143904Y-83221142D01*
X192191523Y-83268761D01*
X192286761Y-83316380D01*
X192477238Y-83316380D01*
X192572476Y-83268761D01*
X192620095Y-83221142D01*
X192667714Y-83125904D01*
X192667714Y-82935428D01*
X192620095Y-82840190D01*
X192572476Y-82792571D01*
X192477238Y-82744952D01*
%TO.C,MAF*%
X187127523Y-83316380D02*
X187127523Y-82316380D01*
X187460857Y-83030666D01*
X187794190Y-82316380D01*
X187794190Y-83316380D01*
X188222761Y-83030666D02*
X188698952Y-83030666D01*
X188127523Y-83316380D02*
X188460857Y-82316380D01*
X188794190Y-83316380D01*
X189460857Y-82792571D02*
X189127523Y-82792571D01*
X189127523Y-83316380D02*
X189127523Y-82316380D01*
X189603714Y-82316380D01*
%TO.C,14*%
X175840523Y-77528380D02*
X175269095Y-77528380D01*
X175554809Y-77528380D02*
X175554809Y-76528380D01*
X175459571Y-76671238D01*
X175364333Y-76766476D01*
X175269095Y-76814095D01*
X176697666Y-76861714D02*
X176697666Y-77528380D01*
X176459571Y-76480761D02*
X176221476Y-77195047D01*
X176840523Y-77195047D01*
%TO.C,MAF*%
X174905523Y-75696380D02*
X174905523Y-74696380D01*
X175238857Y-75410666D01*
X175572190Y-74696380D01*
X175572190Y-75696380D01*
X176000761Y-75410666D02*
X176476952Y-75410666D01*
X175905523Y-75696380D02*
X176238857Y-74696380D01*
X176572190Y-75696380D01*
X177238857Y-75172571D02*
X176905523Y-75172571D01*
X176905523Y-75696380D02*
X176905523Y-74696380D01*
X177381714Y-74696380D01*
%TO.C,14*%
X161840523Y-77528380D02*
X161269095Y-77528380D01*
X161554809Y-77528380D02*
X161554809Y-76528380D01*
X161459571Y-76671238D01*
X161364333Y-76766476D01*
X161269095Y-76814095D01*
X162697666Y-76861714D02*
X162697666Y-77528380D01*
X162459571Y-76480761D02*
X162221476Y-77195047D01*
X162840523Y-77195047D01*
%TO.C,MAF*%
X160905523Y-75696380D02*
X160905523Y-74696380D01*
X161238857Y-75410666D01*
X161572190Y-74696380D01*
X161572190Y-75696380D01*
X162000761Y-75410666D02*
X162476952Y-75410666D01*
X161905523Y-75696380D02*
X162238857Y-74696380D01*
X162572190Y-75696380D01*
X163238857Y-75172571D02*
X162905523Y-75172571D01*
X162905523Y-75696380D02*
X162905523Y-74696380D01*
X163381714Y-74696380D01*
%TO.C,14*%
X147840523Y-77528380D02*
X147269095Y-77528380D01*
X147554809Y-77528380D02*
X147554809Y-76528380D01*
X147459571Y-76671238D01*
X147364333Y-76766476D01*
X147269095Y-76814095D01*
X148697666Y-76861714D02*
X148697666Y-77528380D01*
X148459571Y-76480761D02*
X148221476Y-77195047D01*
X148840523Y-77195047D01*
%TO.C,MAF*%
X146905523Y-75696380D02*
X146905523Y-74696380D01*
X147238857Y-75410666D01*
X147572190Y-74696380D01*
X147572190Y-75696380D01*
X148000761Y-75410666D02*
X148476952Y-75410666D01*
X147905523Y-75696380D02*
X148238857Y-74696380D01*
X148572190Y-75696380D01*
X149238857Y-75172571D02*
X148905523Y-75172571D01*
X148905523Y-75696380D02*
X148905523Y-74696380D01*
X149381714Y-74696380D01*
%TO.C,16*%
X133874523Y-75769380D02*
X133303095Y-75769380D01*
X133588809Y-75769380D02*
X133588809Y-74769380D01*
X133493571Y-74912238D01*
X133398333Y-75007476D01*
X133303095Y-75055095D01*
X134731666Y-74769380D02*
X134541190Y-74769380D01*
X134445952Y-74817000D01*
X134398333Y-74864619D01*
X134303095Y-75007476D01*
X134255476Y-75197952D01*
X134255476Y-75578904D01*
X134303095Y-75674142D01*
X134350714Y-75721761D01*
X134445952Y-75769380D01*
X134636428Y-75769380D01*
X134731666Y-75721761D01*
X134779285Y-75674142D01*
X134826904Y-75578904D01*
X134826904Y-75340809D01*
X134779285Y-75245571D01*
X134731666Y-75197952D01*
X134636428Y-75150333D01*
X134445952Y-75150333D01*
X134350714Y-75197952D01*
X134303095Y-75245571D01*
X134255476Y-75340809D01*
%TO.C,MAF*%
X133193523Y-72398380D02*
X133193523Y-71398380D01*
X133526857Y-72112666D01*
X133860190Y-71398380D01*
X133860190Y-72398380D01*
X134288761Y-72112666D02*
X134764952Y-72112666D01*
X134193523Y-72398380D02*
X134526857Y-71398380D01*
X134860190Y-72398380D01*
X135526857Y-71874571D02*
X135193523Y-71874571D01*
X135193523Y-72398380D02*
X135193523Y-71398380D01*
X135669714Y-71398380D01*
%TO.C,16*%
X119874523Y-75769380D02*
X119303095Y-75769380D01*
X119588809Y-75769380D02*
X119588809Y-74769380D01*
X119493571Y-74912238D01*
X119398333Y-75007476D01*
X119303095Y-75055095D01*
X120731666Y-74769380D02*
X120541190Y-74769380D01*
X120445952Y-74817000D01*
X120398333Y-74864619D01*
X120303095Y-75007476D01*
X120255476Y-75197952D01*
X120255476Y-75578904D01*
X120303095Y-75674142D01*
X120350714Y-75721761D01*
X120445952Y-75769380D01*
X120636428Y-75769380D01*
X120731666Y-75721761D01*
X120779285Y-75674142D01*
X120826904Y-75578904D01*
X120826904Y-75340809D01*
X120779285Y-75245571D01*
X120731666Y-75197952D01*
X120636428Y-75150333D01*
X120445952Y-75150333D01*
X120350714Y-75197952D01*
X120303095Y-75245571D01*
X120255476Y-75340809D01*
%TO.C,MAF*%
X119193523Y-72398380D02*
X119193523Y-71398380D01*
X119526857Y-72112666D01*
X119860190Y-71398380D01*
X119860190Y-72398380D01*
X120288761Y-72112666D02*
X120764952Y-72112666D01*
X120193523Y-72398380D02*
X120526857Y-71398380D01*
X120860190Y-72398380D01*
X121526857Y-71874571D02*
X121193523Y-71874571D01*
X121193523Y-72398380D02*
X121193523Y-71398380D01*
X121669714Y-71398380D01*
X105159523Y-72394380D02*
X105159523Y-71394380D01*
X105492857Y-72108666D01*
X105826190Y-71394380D01*
X105826190Y-72394380D01*
X106254761Y-72108666D02*
X106730952Y-72108666D01*
X106159523Y-72394380D02*
X106492857Y-71394380D01*
X106826190Y-72394380D01*
X107492857Y-71870571D02*
X107159523Y-71870571D01*
X107159523Y-72394380D02*
X107159523Y-71394380D01*
X107635714Y-71394380D01*
%TO.C,16*%
X105840523Y-75765380D02*
X105269095Y-75765380D01*
X105554809Y-75765380D02*
X105554809Y-74765380D01*
X105459571Y-74908238D01*
X105364333Y-75003476D01*
X105269095Y-75051095D01*
X106697666Y-74765380D02*
X106507190Y-74765380D01*
X106411952Y-74813000D01*
X106364333Y-74860619D01*
X106269095Y-75003476D01*
X106221476Y-75193952D01*
X106221476Y-75574904D01*
X106269095Y-75670142D01*
X106316714Y-75717761D01*
X106411952Y-75765380D01*
X106602428Y-75765380D01*
X106697666Y-75717761D01*
X106745285Y-75670142D01*
X106792904Y-75574904D01*
X106792904Y-75336809D01*
X106745285Y-75241571D01*
X106697666Y-75193952D01*
X106602428Y-75146333D01*
X106411952Y-75146333D01*
X106316714Y-75193952D01*
X106269095Y-75241571D01*
X106221476Y-75336809D01*
%TO.C,23*%
X116692095Y-44695619D02*
X116739714Y-44648000D01*
X116834952Y-44600380D01*
X117073047Y-44600380D01*
X117168285Y-44648000D01*
X117215904Y-44695619D01*
X117263523Y-44790857D01*
X117263523Y-44886095D01*
X117215904Y-45028952D01*
X116644476Y-45600380D01*
X117263523Y-45600380D01*
X117596857Y-44600380D02*
X118215904Y-44600380D01*
X117882571Y-44981333D01*
X118025428Y-44981333D01*
X118120666Y-45028952D01*
X118168285Y-45076571D01*
X118215904Y-45171809D01*
X118215904Y-45409904D01*
X118168285Y-45505142D01*
X118120666Y-45552761D01*
X118025428Y-45600380D01*
X117739714Y-45600380D01*
X117644476Y-45552761D01*
X117596857Y-45505142D01*
%TO.C,SOT*%
X116238523Y-46895761D02*
X116381380Y-46943380D01*
X116619476Y-46943380D01*
X116714714Y-46895761D01*
X116762333Y-46848142D01*
X116809952Y-46752904D01*
X116809952Y-46657666D01*
X116762333Y-46562428D01*
X116714714Y-46514809D01*
X116619476Y-46467190D01*
X116429000Y-46419571D01*
X116333761Y-46371952D01*
X116286142Y-46324333D01*
X116238523Y-46229095D01*
X116238523Y-46133857D01*
X116286142Y-46038619D01*
X116333761Y-45991000D01*
X116429000Y-45943380D01*
X116667095Y-45943380D01*
X116809952Y-45991000D01*
X117429000Y-45943380D02*
X117619476Y-45943380D01*
X117714714Y-45991000D01*
X117809952Y-46086238D01*
X117857571Y-46276714D01*
X117857571Y-46610047D01*
X117809952Y-46800523D01*
X117714714Y-46895761D01*
X117619476Y-46943380D01*
X117429000Y-46943380D01*
X117333761Y-46895761D01*
X117238523Y-46800523D01*
X117190904Y-46610047D01*
X117190904Y-46276714D01*
X117238523Y-46086238D01*
X117333761Y-45991000D01*
X117429000Y-45943380D01*
X118143285Y-45943380D02*
X118714714Y-45943380D01*
X118429000Y-46943380D02*
X118429000Y-45943380D01*
%TO.C,R105*%
X180880952Y-119752380D02*
X180547619Y-119276190D01*
X180309523Y-119752380D02*
X180309523Y-118752380D01*
X180690476Y-118752380D01*
X180785714Y-118800000D01*
X180833333Y-118847619D01*
X180880952Y-118942857D01*
X180880952Y-119085714D01*
X180833333Y-119180952D01*
X180785714Y-119228571D01*
X180690476Y-119276190D01*
X180309523Y-119276190D01*
X181833333Y-119752380D02*
X181261904Y-119752380D01*
X181547619Y-119752380D02*
X181547619Y-118752380D01*
X181452380Y-118895238D01*
X181357142Y-118990476D01*
X181261904Y-119038095D01*
X182452380Y-118752380D02*
X182547619Y-118752380D01*
X182642857Y-118800000D01*
X182690476Y-118847619D01*
X182738095Y-118942857D01*
X182785714Y-119133333D01*
X182785714Y-119371428D01*
X182738095Y-119561904D01*
X182690476Y-119657142D01*
X182642857Y-119704761D01*
X182547619Y-119752380D01*
X182452380Y-119752380D01*
X182357142Y-119704761D01*
X182309523Y-119657142D01*
X182261904Y-119561904D01*
X182214285Y-119371428D01*
X182214285Y-119133333D01*
X182261904Y-118942857D01*
X182309523Y-118847619D01*
X182357142Y-118800000D01*
X182452380Y-118752380D01*
X183690476Y-118752380D02*
X183214285Y-118752380D01*
X183166666Y-119228571D01*
X183214285Y-119180952D01*
X183309523Y-119133333D01*
X183547619Y-119133333D01*
X183642857Y-119180952D01*
X183690476Y-119228571D01*
X183738095Y-119323809D01*
X183738095Y-119561904D01*
X183690476Y-119657142D01*
X183642857Y-119704761D01*
X183547619Y-119752380D01*
X183309523Y-119752380D01*
X183214285Y-119704761D01*
X183166666Y-119657142D01*
%TO.C,R106*%
X181280952Y-94352380D02*
X180947619Y-93876190D01*
X180709523Y-94352380D02*
X180709523Y-93352380D01*
X181090476Y-93352380D01*
X181185714Y-93400000D01*
X181233333Y-93447619D01*
X181280952Y-93542857D01*
X181280952Y-93685714D01*
X181233333Y-93780952D01*
X181185714Y-93828571D01*
X181090476Y-93876190D01*
X180709523Y-93876190D01*
X182233333Y-94352380D02*
X181661904Y-94352380D01*
X181947619Y-94352380D02*
X181947619Y-93352380D01*
X181852380Y-93495238D01*
X181757142Y-93590476D01*
X181661904Y-93638095D01*
X182852380Y-93352380D02*
X182947619Y-93352380D01*
X183042857Y-93400000D01*
X183090476Y-93447619D01*
X183138095Y-93542857D01*
X183185714Y-93733333D01*
X183185714Y-93971428D01*
X183138095Y-94161904D01*
X183090476Y-94257142D01*
X183042857Y-94304761D01*
X182947619Y-94352380D01*
X182852380Y-94352380D01*
X182757142Y-94304761D01*
X182709523Y-94257142D01*
X182661904Y-94161904D01*
X182614285Y-93971428D01*
X182614285Y-93733333D01*
X182661904Y-93542857D01*
X182709523Y-93447619D01*
X182757142Y-93400000D01*
X182852380Y-93352380D01*
X184042857Y-93352380D02*
X183852380Y-93352380D01*
X183757142Y-93400000D01*
X183709523Y-93447619D01*
X183614285Y-93590476D01*
X183566666Y-93780952D01*
X183566666Y-94161904D01*
X183614285Y-94257142D01*
X183661904Y-94304761D01*
X183757142Y-94352380D01*
X183947619Y-94352380D01*
X184042857Y-94304761D01*
X184090476Y-94257142D01*
X184138095Y-94161904D01*
X184138095Y-93923809D01*
X184090476Y-93828571D01*
X184042857Y-93780952D01*
X183947619Y-93733333D01*
X183757142Y-93733333D01*
X183661904Y-93780952D01*
X183614285Y-93828571D01*
X183566666Y-93923809D01*
%TO.C,U102*%
X187752380Y-114414285D02*
X188561904Y-114414285D01*
X188657142Y-114366666D01*
X188704761Y-114319047D01*
X188752380Y-114223809D01*
X188752380Y-114033333D01*
X188704761Y-113938095D01*
X188657142Y-113890476D01*
X188561904Y-113842857D01*
X187752380Y-113842857D01*
X188752380Y-112842857D02*
X188752380Y-113414285D01*
X188752380Y-113128571D02*
X187752380Y-113128571D01*
X187895238Y-113223809D01*
X187990476Y-113319047D01*
X188038095Y-113414285D01*
X187752380Y-112223809D02*
X187752380Y-112128571D01*
X187800000Y-112033333D01*
X187847619Y-111985714D01*
X187942857Y-111938095D01*
X188133333Y-111890476D01*
X188371428Y-111890476D01*
X188561904Y-111938095D01*
X188657142Y-111985714D01*
X188704761Y-112033333D01*
X188752380Y-112128571D01*
X188752380Y-112223809D01*
X188704761Y-112319047D01*
X188657142Y-112366666D01*
X188561904Y-112414285D01*
X188371428Y-112461904D01*
X188133333Y-112461904D01*
X187942857Y-112414285D01*
X187847619Y-112366666D01*
X187800000Y-112319047D01*
X187752380Y-112223809D01*
X187847619Y-111509523D02*
X187800000Y-111461904D01*
X187752380Y-111366666D01*
X187752380Y-111128571D01*
X187800000Y-111033333D01*
X187847619Y-110985714D01*
X187942857Y-110938095D01*
X188038095Y-110938095D01*
X188180952Y-110985714D01*
X188752380Y-111557142D01*
X188752380Y-110938095D01*
%TO.C,U101*%
X186352380Y-114414285D02*
X187161904Y-114414285D01*
X187257142Y-114366666D01*
X187304761Y-114319047D01*
X187352380Y-114223809D01*
X187352380Y-114033333D01*
X187304761Y-113938095D01*
X187257142Y-113890476D01*
X187161904Y-113842857D01*
X186352380Y-113842857D01*
X187352380Y-112842857D02*
X187352380Y-113414285D01*
X187352380Y-113128571D02*
X186352380Y-113128571D01*
X186495238Y-113223809D01*
X186590476Y-113319047D01*
X186638095Y-113414285D01*
X186352380Y-112223809D02*
X186352380Y-112128571D01*
X186400000Y-112033333D01*
X186447619Y-111985714D01*
X186542857Y-111938095D01*
X186733333Y-111890476D01*
X186971428Y-111890476D01*
X187161904Y-111938095D01*
X187257142Y-111985714D01*
X187304761Y-112033333D01*
X187352380Y-112128571D01*
X187352380Y-112223809D01*
X187304761Y-112319047D01*
X187257142Y-112366666D01*
X187161904Y-112414285D01*
X186971428Y-112461904D01*
X186733333Y-112461904D01*
X186542857Y-112414285D01*
X186447619Y-112366666D01*
X186400000Y-112319047D01*
X186352380Y-112223809D01*
X187352380Y-110938095D02*
X187352380Y-111509523D01*
X187352380Y-111223809D02*
X186352380Y-111223809D01*
X186495238Y-111319047D01*
X186590476Y-111414285D01*
X186638095Y-111509523D01*
%TO.C,C101*%
X180880952Y-118357142D02*
X180833333Y-118404761D01*
X180690476Y-118452380D01*
X180595238Y-118452380D01*
X180452380Y-118404761D01*
X180357142Y-118309523D01*
X180309523Y-118214285D01*
X180261904Y-118023809D01*
X180261904Y-117880952D01*
X180309523Y-117690476D01*
X180357142Y-117595238D01*
X180452380Y-117500000D01*
X180595238Y-117452380D01*
X180690476Y-117452380D01*
X180833333Y-117500000D01*
X180880952Y-117547619D01*
X181833333Y-118452380D02*
X181261904Y-118452380D01*
X181547619Y-118452380D02*
X181547619Y-117452380D01*
X181452380Y-117595238D01*
X181357142Y-117690476D01*
X181261904Y-117738095D01*
X182452380Y-117452380D02*
X182547619Y-117452380D01*
X182642857Y-117500000D01*
X182690476Y-117547619D01*
X182738095Y-117642857D01*
X182785714Y-117833333D01*
X182785714Y-118071428D01*
X182738095Y-118261904D01*
X182690476Y-118357142D01*
X182642857Y-118404761D01*
X182547619Y-118452380D01*
X182452380Y-118452380D01*
X182357142Y-118404761D01*
X182309523Y-118357142D01*
X182261904Y-118261904D01*
X182214285Y-118071428D01*
X182214285Y-117833333D01*
X182261904Y-117642857D01*
X182309523Y-117547619D01*
X182357142Y-117500000D01*
X182452380Y-117452380D01*
X183738095Y-118452380D02*
X183166666Y-118452380D01*
X183452380Y-118452380D02*
X183452380Y-117452380D01*
X183357142Y-117595238D01*
X183261904Y-117690476D01*
X183166666Y-117738095D01*
%TO.C,R104*%
X194352380Y-96319047D02*
X193876190Y-96652380D01*
X194352380Y-96890476D02*
X193352380Y-96890476D01*
X193352380Y-96509523D01*
X193400000Y-96414285D01*
X193447619Y-96366666D01*
X193542857Y-96319047D01*
X193685714Y-96319047D01*
X193780952Y-96366666D01*
X193828571Y-96414285D01*
X193876190Y-96509523D01*
X193876190Y-96890476D01*
X194352380Y-95366666D02*
X194352380Y-95938095D01*
X194352380Y-95652380D02*
X193352380Y-95652380D01*
X193495238Y-95747619D01*
X193590476Y-95842857D01*
X193638095Y-95938095D01*
X193352380Y-94747619D02*
X193352380Y-94652380D01*
X193400000Y-94557142D01*
X193447619Y-94509523D01*
X193542857Y-94461904D01*
X193733333Y-94414285D01*
X193971428Y-94414285D01*
X194161904Y-94461904D01*
X194257142Y-94509523D01*
X194304761Y-94557142D01*
X194352380Y-94652380D01*
X194352380Y-94747619D01*
X194304761Y-94842857D01*
X194257142Y-94890476D01*
X194161904Y-94938095D01*
X193971428Y-94985714D01*
X193733333Y-94985714D01*
X193542857Y-94938095D01*
X193447619Y-94890476D01*
X193400000Y-94842857D01*
X193352380Y-94747619D01*
X193685714Y-93557142D02*
X194352380Y-93557142D01*
X193304761Y-93795238D02*
X194019047Y-94033333D01*
X194019047Y-93414285D01*
%TO.C,Q103*%
X187447619Y-100847619D02*
X187400000Y-100942857D01*
X187304761Y-101038095D01*
X187161904Y-101180952D01*
X187114285Y-101276190D01*
X187114285Y-101371428D01*
X187352380Y-101323809D02*
X187304761Y-101419047D01*
X187209523Y-101514285D01*
X187019047Y-101561904D01*
X186685714Y-101561904D01*
X186495238Y-101514285D01*
X186400000Y-101419047D01*
X186352380Y-101323809D01*
X186352380Y-101133333D01*
X186400000Y-101038095D01*
X186495238Y-100942857D01*
X186685714Y-100895238D01*
X187019047Y-100895238D01*
X187209523Y-100942857D01*
X187304761Y-101038095D01*
X187352380Y-101133333D01*
X187352380Y-101323809D01*
X187352380Y-99942857D02*
X187352380Y-100514285D01*
X187352380Y-100228571D02*
X186352380Y-100228571D01*
X186495238Y-100323809D01*
X186590476Y-100419047D01*
X186638095Y-100514285D01*
X186352380Y-99323809D02*
X186352380Y-99228571D01*
X186400000Y-99133333D01*
X186447619Y-99085714D01*
X186542857Y-99038095D01*
X186733333Y-98990476D01*
X186971428Y-98990476D01*
X187161904Y-99038095D01*
X187257142Y-99085714D01*
X187304761Y-99133333D01*
X187352380Y-99228571D01*
X187352380Y-99323809D01*
X187304761Y-99419047D01*
X187257142Y-99466666D01*
X187161904Y-99514285D01*
X186971428Y-99561904D01*
X186733333Y-99561904D01*
X186542857Y-99514285D01*
X186447619Y-99466666D01*
X186400000Y-99419047D01*
X186352380Y-99323809D01*
X186352380Y-98657142D02*
X186352380Y-98038095D01*
X186733333Y-98371428D01*
X186733333Y-98228571D01*
X186780952Y-98133333D01*
X186828571Y-98085714D01*
X186923809Y-98038095D01*
X187161904Y-98038095D01*
X187257142Y-98085714D01*
X187304761Y-98133333D01*
X187352380Y-98228571D01*
X187352380Y-98514285D01*
X187304761Y-98609523D01*
X187257142Y-98657142D01*
%TO.C,Q102*%
X188747619Y-100847619D02*
X188700000Y-100942857D01*
X188604761Y-101038095D01*
X188461904Y-101180952D01*
X188414285Y-101276190D01*
X188414285Y-101371428D01*
X188652380Y-101323809D02*
X188604761Y-101419047D01*
X188509523Y-101514285D01*
X188319047Y-101561904D01*
X187985714Y-101561904D01*
X187795238Y-101514285D01*
X187700000Y-101419047D01*
X187652380Y-101323809D01*
X187652380Y-101133333D01*
X187700000Y-101038095D01*
X187795238Y-100942857D01*
X187985714Y-100895238D01*
X188319047Y-100895238D01*
X188509523Y-100942857D01*
X188604761Y-101038095D01*
X188652380Y-101133333D01*
X188652380Y-101323809D01*
X188652380Y-99942857D02*
X188652380Y-100514285D01*
X188652380Y-100228571D02*
X187652380Y-100228571D01*
X187795238Y-100323809D01*
X187890476Y-100419047D01*
X187938095Y-100514285D01*
X187652380Y-99323809D02*
X187652380Y-99228571D01*
X187700000Y-99133333D01*
X187747619Y-99085714D01*
X187842857Y-99038095D01*
X188033333Y-98990476D01*
X188271428Y-98990476D01*
X188461904Y-99038095D01*
X188557142Y-99085714D01*
X188604761Y-99133333D01*
X188652380Y-99228571D01*
X188652380Y-99323809D01*
X188604761Y-99419047D01*
X188557142Y-99466666D01*
X188461904Y-99514285D01*
X188271428Y-99561904D01*
X188033333Y-99561904D01*
X187842857Y-99514285D01*
X187747619Y-99466666D01*
X187700000Y-99419047D01*
X187652380Y-99323809D01*
X187747619Y-98609523D02*
X187700000Y-98561904D01*
X187652380Y-98466666D01*
X187652380Y-98228571D01*
X187700000Y-98133333D01*
X187747619Y-98085714D01*
X187842857Y-98038095D01*
X187938095Y-98038095D01*
X188080952Y-98085714D01*
X188652380Y-98657142D01*
X188652380Y-98038095D01*
%TO.C,R105*%
X164880952Y-119752380D02*
X164547619Y-119276190D01*
X164309523Y-119752380D02*
X164309523Y-118752380D01*
X164690476Y-118752380D01*
X164785714Y-118800000D01*
X164833333Y-118847619D01*
X164880952Y-118942857D01*
X164880952Y-119085714D01*
X164833333Y-119180952D01*
X164785714Y-119228571D01*
X164690476Y-119276190D01*
X164309523Y-119276190D01*
X165833333Y-119752380D02*
X165261904Y-119752380D01*
X165547619Y-119752380D02*
X165547619Y-118752380D01*
X165452380Y-118895238D01*
X165357142Y-118990476D01*
X165261904Y-119038095D01*
X166452380Y-118752380D02*
X166547619Y-118752380D01*
X166642857Y-118800000D01*
X166690476Y-118847619D01*
X166738095Y-118942857D01*
X166785714Y-119133333D01*
X166785714Y-119371428D01*
X166738095Y-119561904D01*
X166690476Y-119657142D01*
X166642857Y-119704761D01*
X166547619Y-119752380D01*
X166452380Y-119752380D01*
X166357142Y-119704761D01*
X166309523Y-119657142D01*
X166261904Y-119561904D01*
X166214285Y-119371428D01*
X166214285Y-119133333D01*
X166261904Y-118942857D01*
X166309523Y-118847619D01*
X166357142Y-118800000D01*
X166452380Y-118752380D01*
X167690476Y-118752380D02*
X167214285Y-118752380D01*
X167166666Y-119228571D01*
X167214285Y-119180952D01*
X167309523Y-119133333D01*
X167547619Y-119133333D01*
X167642857Y-119180952D01*
X167690476Y-119228571D01*
X167738095Y-119323809D01*
X167738095Y-119561904D01*
X167690476Y-119657142D01*
X167642857Y-119704761D01*
X167547619Y-119752380D01*
X167309523Y-119752380D01*
X167214285Y-119704761D01*
X167166666Y-119657142D01*
%TO.C,R106*%
X165280952Y-94352380D02*
X164947619Y-93876190D01*
X164709523Y-94352380D02*
X164709523Y-93352380D01*
X165090476Y-93352380D01*
X165185714Y-93400000D01*
X165233333Y-93447619D01*
X165280952Y-93542857D01*
X165280952Y-93685714D01*
X165233333Y-93780952D01*
X165185714Y-93828571D01*
X165090476Y-93876190D01*
X164709523Y-93876190D01*
X166233333Y-94352380D02*
X165661904Y-94352380D01*
X165947619Y-94352380D02*
X165947619Y-93352380D01*
X165852380Y-93495238D01*
X165757142Y-93590476D01*
X165661904Y-93638095D01*
X166852380Y-93352380D02*
X166947619Y-93352380D01*
X167042857Y-93400000D01*
X167090476Y-93447619D01*
X167138095Y-93542857D01*
X167185714Y-93733333D01*
X167185714Y-93971428D01*
X167138095Y-94161904D01*
X167090476Y-94257142D01*
X167042857Y-94304761D01*
X166947619Y-94352380D01*
X166852380Y-94352380D01*
X166757142Y-94304761D01*
X166709523Y-94257142D01*
X166661904Y-94161904D01*
X166614285Y-93971428D01*
X166614285Y-93733333D01*
X166661904Y-93542857D01*
X166709523Y-93447619D01*
X166757142Y-93400000D01*
X166852380Y-93352380D01*
X168042857Y-93352380D02*
X167852380Y-93352380D01*
X167757142Y-93400000D01*
X167709523Y-93447619D01*
X167614285Y-93590476D01*
X167566666Y-93780952D01*
X167566666Y-94161904D01*
X167614285Y-94257142D01*
X167661904Y-94304761D01*
X167757142Y-94352380D01*
X167947619Y-94352380D01*
X168042857Y-94304761D01*
X168090476Y-94257142D01*
X168138095Y-94161904D01*
X168138095Y-93923809D01*
X168090476Y-93828571D01*
X168042857Y-93780952D01*
X167947619Y-93733333D01*
X167757142Y-93733333D01*
X167661904Y-93780952D01*
X167614285Y-93828571D01*
X167566666Y-93923809D01*
%TO.C,U102*%
X171752380Y-114414285D02*
X172561904Y-114414285D01*
X172657142Y-114366666D01*
X172704761Y-114319047D01*
X172752380Y-114223809D01*
X172752380Y-114033333D01*
X172704761Y-113938095D01*
X172657142Y-113890476D01*
X172561904Y-113842857D01*
X171752380Y-113842857D01*
X172752380Y-112842857D02*
X172752380Y-113414285D01*
X172752380Y-113128571D02*
X171752380Y-113128571D01*
X171895238Y-113223809D01*
X171990476Y-113319047D01*
X172038095Y-113414285D01*
X171752380Y-112223809D02*
X171752380Y-112128571D01*
X171800000Y-112033333D01*
X171847619Y-111985714D01*
X171942857Y-111938095D01*
X172133333Y-111890476D01*
X172371428Y-111890476D01*
X172561904Y-111938095D01*
X172657142Y-111985714D01*
X172704761Y-112033333D01*
X172752380Y-112128571D01*
X172752380Y-112223809D01*
X172704761Y-112319047D01*
X172657142Y-112366666D01*
X172561904Y-112414285D01*
X172371428Y-112461904D01*
X172133333Y-112461904D01*
X171942857Y-112414285D01*
X171847619Y-112366666D01*
X171800000Y-112319047D01*
X171752380Y-112223809D01*
X171847619Y-111509523D02*
X171800000Y-111461904D01*
X171752380Y-111366666D01*
X171752380Y-111128571D01*
X171800000Y-111033333D01*
X171847619Y-110985714D01*
X171942857Y-110938095D01*
X172038095Y-110938095D01*
X172180952Y-110985714D01*
X172752380Y-111557142D01*
X172752380Y-110938095D01*
%TO.C,U101*%
X170352380Y-114414285D02*
X171161904Y-114414285D01*
X171257142Y-114366666D01*
X171304761Y-114319047D01*
X171352380Y-114223809D01*
X171352380Y-114033333D01*
X171304761Y-113938095D01*
X171257142Y-113890476D01*
X171161904Y-113842857D01*
X170352380Y-113842857D01*
X171352380Y-112842857D02*
X171352380Y-113414285D01*
X171352380Y-113128571D02*
X170352380Y-113128571D01*
X170495238Y-113223809D01*
X170590476Y-113319047D01*
X170638095Y-113414285D01*
X170352380Y-112223809D02*
X170352380Y-112128571D01*
X170400000Y-112033333D01*
X170447619Y-111985714D01*
X170542857Y-111938095D01*
X170733333Y-111890476D01*
X170971428Y-111890476D01*
X171161904Y-111938095D01*
X171257142Y-111985714D01*
X171304761Y-112033333D01*
X171352380Y-112128571D01*
X171352380Y-112223809D01*
X171304761Y-112319047D01*
X171257142Y-112366666D01*
X171161904Y-112414285D01*
X170971428Y-112461904D01*
X170733333Y-112461904D01*
X170542857Y-112414285D01*
X170447619Y-112366666D01*
X170400000Y-112319047D01*
X170352380Y-112223809D01*
X171352380Y-110938095D02*
X171352380Y-111509523D01*
X171352380Y-111223809D02*
X170352380Y-111223809D01*
X170495238Y-111319047D01*
X170590476Y-111414285D01*
X170638095Y-111509523D01*
%TO.C,C101*%
X164880952Y-118357142D02*
X164833333Y-118404761D01*
X164690476Y-118452380D01*
X164595238Y-118452380D01*
X164452380Y-118404761D01*
X164357142Y-118309523D01*
X164309523Y-118214285D01*
X164261904Y-118023809D01*
X164261904Y-117880952D01*
X164309523Y-117690476D01*
X164357142Y-117595238D01*
X164452380Y-117500000D01*
X164595238Y-117452380D01*
X164690476Y-117452380D01*
X164833333Y-117500000D01*
X164880952Y-117547619D01*
X165833333Y-118452380D02*
X165261904Y-118452380D01*
X165547619Y-118452380D02*
X165547619Y-117452380D01*
X165452380Y-117595238D01*
X165357142Y-117690476D01*
X165261904Y-117738095D01*
X166452380Y-117452380D02*
X166547619Y-117452380D01*
X166642857Y-117500000D01*
X166690476Y-117547619D01*
X166738095Y-117642857D01*
X166785714Y-117833333D01*
X166785714Y-118071428D01*
X166738095Y-118261904D01*
X166690476Y-118357142D01*
X166642857Y-118404761D01*
X166547619Y-118452380D01*
X166452380Y-118452380D01*
X166357142Y-118404761D01*
X166309523Y-118357142D01*
X166261904Y-118261904D01*
X166214285Y-118071428D01*
X166214285Y-117833333D01*
X166261904Y-117642857D01*
X166309523Y-117547619D01*
X166357142Y-117500000D01*
X166452380Y-117452380D01*
X167738095Y-118452380D02*
X167166666Y-118452380D01*
X167452380Y-118452380D02*
X167452380Y-117452380D01*
X167357142Y-117595238D01*
X167261904Y-117690476D01*
X167166666Y-117738095D01*
%TO.C,R104*%
X178352380Y-96319047D02*
X177876190Y-96652380D01*
X178352380Y-96890476D02*
X177352380Y-96890476D01*
X177352380Y-96509523D01*
X177400000Y-96414285D01*
X177447619Y-96366666D01*
X177542857Y-96319047D01*
X177685714Y-96319047D01*
X177780952Y-96366666D01*
X177828571Y-96414285D01*
X177876190Y-96509523D01*
X177876190Y-96890476D01*
X178352380Y-95366666D02*
X178352380Y-95938095D01*
X178352380Y-95652380D02*
X177352380Y-95652380D01*
X177495238Y-95747619D01*
X177590476Y-95842857D01*
X177638095Y-95938095D01*
X177352380Y-94747619D02*
X177352380Y-94652380D01*
X177400000Y-94557142D01*
X177447619Y-94509523D01*
X177542857Y-94461904D01*
X177733333Y-94414285D01*
X177971428Y-94414285D01*
X178161904Y-94461904D01*
X178257142Y-94509523D01*
X178304761Y-94557142D01*
X178352380Y-94652380D01*
X178352380Y-94747619D01*
X178304761Y-94842857D01*
X178257142Y-94890476D01*
X178161904Y-94938095D01*
X177971428Y-94985714D01*
X177733333Y-94985714D01*
X177542857Y-94938095D01*
X177447619Y-94890476D01*
X177400000Y-94842857D01*
X177352380Y-94747619D01*
X177685714Y-93557142D02*
X178352380Y-93557142D01*
X177304761Y-93795238D02*
X178019047Y-94033333D01*
X178019047Y-93414285D01*
%TO.C,Q103*%
X171447619Y-100847619D02*
X171400000Y-100942857D01*
X171304761Y-101038095D01*
X171161904Y-101180952D01*
X171114285Y-101276190D01*
X171114285Y-101371428D01*
X171352380Y-101323809D02*
X171304761Y-101419047D01*
X171209523Y-101514285D01*
X171019047Y-101561904D01*
X170685714Y-101561904D01*
X170495238Y-101514285D01*
X170400000Y-101419047D01*
X170352380Y-101323809D01*
X170352380Y-101133333D01*
X170400000Y-101038095D01*
X170495238Y-100942857D01*
X170685714Y-100895238D01*
X171019047Y-100895238D01*
X171209523Y-100942857D01*
X171304761Y-101038095D01*
X171352380Y-101133333D01*
X171352380Y-101323809D01*
X171352380Y-99942857D02*
X171352380Y-100514285D01*
X171352380Y-100228571D02*
X170352380Y-100228571D01*
X170495238Y-100323809D01*
X170590476Y-100419047D01*
X170638095Y-100514285D01*
X170352380Y-99323809D02*
X170352380Y-99228571D01*
X170400000Y-99133333D01*
X170447619Y-99085714D01*
X170542857Y-99038095D01*
X170733333Y-98990476D01*
X170971428Y-98990476D01*
X171161904Y-99038095D01*
X171257142Y-99085714D01*
X171304761Y-99133333D01*
X171352380Y-99228571D01*
X171352380Y-99323809D01*
X171304761Y-99419047D01*
X171257142Y-99466666D01*
X171161904Y-99514285D01*
X170971428Y-99561904D01*
X170733333Y-99561904D01*
X170542857Y-99514285D01*
X170447619Y-99466666D01*
X170400000Y-99419047D01*
X170352380Y-99323809D01*
X170352380Y-98657142D02*
X170352380Y-98038095D01*
X170733333Y-98371428D01*
X170733333Y-98228571D01*
X170780952Y-98133333D01*
X170828571Y-98085714D01*
X170923809Y-98038095D01*
X171161904Y-98038095D01*
X171257142Y-98085714D01*
X171304761Y-98133333D01*
X171352380Y-98228571D01*
X171352380Y-98514285D01*
X171304761Y-98609523D01*
X171257142Y-98657142D01*
%TO.C,Q102*%
X172747619Y-100847619D02*
X172700000Y-100942857D01*
X172604761Y-101038095D01*
X172461904Y-101180952D01*
X172414285Y-101276190D01*
X172414285Y-101371428D01*
X172652380Y-101323809D02*
X172604761Y-101419047D01*
X172509523Y-101514285D01*
X172319047Y-101561904D01*
X171985714Y-101561904D01*
X171795238Y-101514285D01*
X171700000Y-101419047D01*
X171652380Y-101323809D01*
X171652380Y-101133333D01*
X171700000Y-101038095D01*
X171795238Y-100942857D01*
X171985714Y-100895238D01*
X172319047Y-100895238D01*
X172509523Y-100942857D01*
X172604761Y-101038095D01*
X172652380Y-101133333D01*
X172652380Y-101323809D01*
X172652380Y-99942857D02*
X172652380Y-100514285D01*
X172652380Y-100228571D02*
X171652380Y-100228571D01*
X171795238Y-100323809D01*
X171890476Y-100419047D01*
X171938095Y-100514285D01*
X171652380Y-99323809D02*
X171652380Y-99228571D01*
X171700000Y-99133333D01*
X171747619Y-99085714D01*
X171842857Y-99038095D01*
X172033333Y-98990476D01*
X172271428Y-98990476D01*
X172461904Y-99038095D01*
X172557142Y-99085714D01*
X172604761Y-99133333D01*
X172652380Y-99228571D01*
X172652380Y-99323809D01*
X172604761Y-99419047D01*
X172557142Y-99466666D01*
X172461904Y-99514285D01*
X172271428Y-99561904D01*
X172033333Y-99561904D01*
X171842857Y-99514285D01*
X171747619Y-99466666D01*
X171700000Y-99419047D01*
X171652380Y-99323809D01*
X171747619Y-98609523D02*
X171700000Y-98561904D01*
X171652380Y-98466666D01*
X171652380Y-98228571D01*
X171700000Y-98133333D01*
X171747619Y-98085714D01*
X171842857Y-98038095D01*
X171938095Y-98038095D01*
X172080952Y-98085714D01*
X172652380Y-98657142D01*
X172652380Y-98038095D01*
%TO.C,R105*%
X148880952Y-119752380D02*
X148547619Y-119276190D01*
X148309523Y-119752380D02*
X148309523Y-118752380D01*
X148690476Y-118752380D01*
X148785714Y-118800000D01*
X148833333Y-118847619D01*
X148880952Y-118942857D01*
X148880952Y-119085714D01*
X148833333Y-119180952D01*
X148785714Y-119228571D01*
X148690476Y-119276190D01*
X148309523Y-119276190D01*
X149833333Y-119752380D02*
X149261904Y-119752380D01*
X149547619Y-119752380D02*
X149547619Y-118752380D01*
X149452380Y-118895238D01*
X149357142Y-118990476D01*
X149261904Y-119038095D01*
X150452380Y-118752380D02*
X150547619Y-118752380D01*
X150642857Y-118800000D01*
X150690476Y-118847619D01*
X150738095Y-118942857D01*
X150785714Y-119133333D01*
X150785714Y-119371428D01*
X150738095Y-119561904D01*
X150690476Y-119657142D01*
X150642857Y-119704761D01*
X150547619Y-119752380D01*
X150452380Y-119752380D01*
X150357142Y-119704761D01*
X150309523Y-119657142D01*
X150261904Y-119561904D01*
X150214285Y-119371428D01*
X150214285Y-119133333D01*
X150261904Y-118942857D01*
X150309523Y-118847619D01*
X150357142Y-118800000D01*
X150452380Y-118752380D01*
X151690476Y-118752380D02*
X151214285Y-118752380D01*
X151166666Y-119228571D01*
X151214285Y-119180952D01*
X151309523Y-119133333D01*
X151547619Y-119133333D01*
X151642857Y-119180952D01*
X151690476Y-119228571D01*
X151738095Y-119323809D01*
X151738095Y-119561904D01*
X151690476Y-119657142D01*
X151642857Y-119704761D01*
X151547619Y-119752380D01*
X151309523Y-119752380D01*
X151214285Y-119704761D01*
X151166666Y-119657142D01*
%TO.C,R106*%
X149280952Y-94352380D02*
X148947619Y-93876190D01*
X148709523Y-94352380D02*
X148709523Y-93352380D01*
X149090476Y-93352380D01*
X149185714Y-93400000D01*
X149233333Y-93447619D01*
X149280952Y-93542857D01*
X149280952Y-93685714D01*
X149233333Y-93780952D01*
X149185714Y-93828571D01*
X149090476Y-93876190D01*
X148709523Y-93876190D01*
X150233333Y-94352380D02*
X149661904Y-94352380D01*
X149947619Y-94352380D02*
X149947619Y-93352380D01*
X149852380Y-93495238D01*
X149757142Y-93590476D01*
X149661904Y-93638095D01*
X150852380Y-93352380D02*
X150947619Y-93352380D01*
X151042857Y-93400000D01*
X151090476Y-93447619D01*
X151138095Y-93542857D01*
X151185714Y-93733333D01*
X151185714Y-93971428D01*
X151138095Y-94161904D01*
X151090476Y-94257142D01*
X151042857Y-94304761D01*
X150947619Y-94352380D01*
X150852380Y-94352380D01*
X150757142Y-94304761D01*
X150709523Y-94257142D01*
X150661904Y-94161904D01*
X150614285Y-93971428D01*
X150614285Y-93733333D01*
X150661904Y-93542857D01*
X150709523Y-93447619D01*
X150757142Y-93400000D01*
X150852380Y-93352380D01*
X152042857Y-93352380D02*
X151852380Y-93352380D01*
X151757142Y-93400000D01*
X151709523Y-93447619D01*
X151614285Y-93590476D01*
X151566666Y-93780952D01*
X151566666Y-94161904D01*
X151614285Y-94257142D01*
X151661904Y-94304761D01*
X151757142Y-94352380D01*
X151947619Y-94352380D01*
X152042857Y-94304761D01*
X152090476Y-94257142D01*
X152138095Y-94161904D01*
X152138095Y-93923809D01*
X152090476Y-93828571D01*
X152042857Y-93780952D01*
X151947619Y-93733333D01*
X151757142Y-93733333D01*
X151661904Y-93780952D01*
X151614285Y-93828571D01*
X151566666Y-93923809D01*
%TO.C,U102*%
X155752380Y-114414285D02*
X156561904Y-114414285D01*
X156657142Y-114366666D01*
X156704761Y-114319047D01*
X156752380Y-114223809D01*
X156752380Y-114033333D01*
X156704761Y-113938095D01*
X156657142Y-113890476D01*
X156561904Y-113842857D01*
X155752380Y-113842857D01*
X156752380Y-112842857D02*
X156752380Y-113414285D01*
X156752380Y-113128571D02*
X155752380Y-113128571D01*
X155895238Y-113223809D01*
X155990476Y-113319047D01*
X156038095Y-113414285D01*
X155752380Y-112223809D02*
X155752380Y-112128571D01*
X155800000Y-112033333D01*
X155847619Y-111985714D01*
X155942857Y-111938095D01*
X156133333Y-111890476D01*
X156371428Y-111890476D01*
X156561904Y-111938095D01*
X156657142Y-111985714D01*
X156704761Y-112033333D01*
X156752380Y-112128571D01*
X156752380Y-112223809D01*
X156704761Y-112319047D01*
X156657142Y-112366666D01*
X156561904Y-112414285D01*
X156371428Y-112461904D01*
X156133333Y-112461904D01*
X155942857Y-112414285D01*
X155847619Y-112366666D01*
X155800000Y-112319047D01*
X155752380Y-112223809D01*
X155847619Y-111509523D02*
X155800000Y-111461904D01*
X155752380Y-111366666D01*
X155752380Y-111128571D01*
X155800000Y-111033333D01*
X155847619Y-110985714D01*
X155942857Y-110938095D01*
X156038095Y-110938095D01*
X156180952Y-110985714D01*
X156752380Y-111557142D01*
X156752380Y-110938095D01*
%TO.C,U101*%
X154352380Y-114414285D02*
X155161904Y-114414285D01*
X155257142Y-114366666D01*
X155304761Y-114319047D01*
X155352380Y-114223809D01*
X155352380Y-114033333D01*
X155304761Y-113938095D01*
X155257142Y-113890476D01*
X155161904Y-113842857D01*
X154352380Y-113842857D01*
X155352380Y-112842857D02*
X155352380Y-113414285D01*
X155352380Y-113128571D02*
X154352380Y-113128571D01*
X154495238Y-113223809D01*
X154590476Y-113319047D01*
X154638095Y-113414285D01*
X154352380Y-112223809D02*
X154352380Y-112128571D01*
X154400000Y-112033333D01*
X154447619Y-111985714D01*
X154542857Y-111938095D01*
X154733333Y-111890476D01*
X154971428Y-111890476D01*
X155161904Y-111938095D01*
X155257142Y-111985714D01*
X155304761Y-112033333D01*
X155352380Y-112128571D01*
X155352380Y-112223809D01*
X155304761Y-112319047D01*
X155257142Y-112366666D01*
X155161904Y-112414285D01*
X154971428Y-112461904D01*
X154733333Y-112461904D01*
X154542857Y-112414285D01*
X154447619Y-112366666D01*
X154400000Y-112319047D01*
X154352380Y-112223809D01*
X155352380Y-110938095D02*
X155352380Y-111509523D01*
X155352380Y-111223809D02*
X154352380Y-111223809D01*
X154495238Y-111319047D01*
X154590476Y-111414285D01*
X154638095Y-111509523D01*
%TO.C,C101*%
X148880952Y-118357142D02*
X148833333Y-118404761D01*
X148690476Y-118452380D01*
X148595238Y-118452380D01*
X148452380Y-118404761D01*
X148357142Y-118309523D01*
X148309523Y-118214285D01*
X148261904Y-118023809D01*
X148261904Y-117880952D01*
X148309523Y-117690476D01*
X148357142Y-117595238D01*
X148452380Y-117500000D01*
X148595238Y-117452380D01*
X148690476Y-117452380D01*
X148833333Y-117500000D01*
X148880952Y-117547619D01*
X149833333Y-118452380D02*
X149261904Y-118452380D01*
X149547619Y-118452380D02*
X149547619Y-117452380D01*
X149452380Y-117595238D01*
X149357142Y-117690476D01*
X149261904Y-117738095D01*
X150452380Y-117452380D02*
X150547619Y-117452380D01*
X150642857Y-117500000D01*
X150690476Y-117547619D01*
X150738095Y-117642857D01*
X150785714Y-117833333D01*
X150785714Y-118071428D01*
X150738095Y-118261904D01*
X150690476Y-118357142D01*
X150642857Y-118404761D01*
X150547619Y-118452380D01*
X150452380Y-118452380D01*
X150357142Y-118404761D01*
X150309523Y-118357142D01*
X150261904Y-118261904D01*
X150214285Y-118071428D01*
X150214285Y-117833333D01*
X150261904Y-117642857D01*
X150309523Y-117547619D01*
X150357142Y-117500000D01*
X150452380Y-117452380D01*
X151738095Y-118452380D02*
X151166666Y-118452380D01*
X151452380Y-118452380D02*
X151452380Y-117452380D01*
X151357142Y-117595238D01*
X151261904Y-117690476D01*
X151166666Y-117738095D01*
%TO.C,R104*%
X162352380Y-96319047D02*
X161876190Y-96652380D01*
X162352380Y-96890476D02*
X161352380Y-96890476D01*
X161352380Y-96509523D01*
X161400000Y-96414285D01*
X161447619Y-96366666D01*
X161542857Y-96319047D01*
X161685714Y-96319047D01*
X161780952Y-96366666D01*
X161828571Y-96414285D01*
X161876190Y-96509523D01*
X161876190Y-96890476D01*
X162352380Y-95366666D02*
X162352380Y-95938095D01*
X162352380Y-95652380D02*
X161352380Y-95652380D01*
X161495238Y-95747619D01*
X161590476Y-95842857D01*
X161638095Y-95938095D01*
X161352380Y-94747619D02*
X161352380Y-94652380D01*
X161400000Y-94557142D01*
X161447619Y-94509523D01*
X161542857Y-94461904D01*
X161733333Y-94414285D01*
X161971428Y-94414285D01*
X162161904Y-94461904D01*
X162257142Y-94509523D01*
X162304761Y-94557142D01*
X162352380Y-94652380D01*
X162352380Y-94747619D01*
X162304761Y-94842857D01*
X162257142Y-94890476D01*
X162161904Y-94938095D01*
X161971428Y-94985714D01*
X161733333Y-94985714D01*
X161542857Y-94938095D01*
X161447619Y-94890476D01*
X161400000Y-94842857D01*
X161352380Y-94747619D01*
X161685714Y-93557142D02*
X162352380Y-93557142D01*
X161304761Y-93795238D02*
X162019047Y-94033333D01*
X162019047Y-93414285D01*
%TO.C,Q103*%
X155447619Y-100847619D02*
X155400000Y-100942857D01*
X155304761Y-101038095D01*
X155161904Y-101180952D01*
X155114285Y-101276190D01*
X155114285Y-101371428D01*
X155352380Y-101323809D02*
X155304761Y-101419047D01*
X155209523Y-101514285D01*
X155019047Y-101561904D01*
X154685714Y-101561904D01*
X154495238Y-101514285D01*
X154400000Y-101419047D01*
X154352380Y-101323809D01*
X154352380Y-101133333D01*
X154400000Y-101038095D01*
X154495238Y-100942857D01*
X154685714Y-100895238D01*
X155019047Y-100895238D01*
X155209523Y-100942857D01*
X155304761Y-101038095D01*
X155352380Y-101133333D01*
X155352380Y-101323809D01*
X155352380Y-99942857D02*
X155352380Y-100514285D01*
X155352380Y-100228571D02*
X154352380Y-100228571D01*
X154495238Y-100323809D01*
X154590476Y-100419047D01*
X154638095Y-100514285D01*
X154352380Y-99323809D02*
X154352380Y-99228571D01*
X154400000Y-99133333D01*
X154447619Y-99085714D01*
X154542857Y-99038095D01*
X154733333Y-98990476D01*
X154971428Y-98990476D01*
X155161904Y-99038095D01*
X155257142Y-99085714D01*
X155304761Y-99133333D01*
X155352380Y-99228571D01*
X155352380Y-99323809D01*
X155304761Y-99419047D01*
X155257142Y-99466666D01*
X155161904Y-99514285D01*
X154971428Y-99561904D01*
X154733333Y-99561904D01*
X154542857Y-99514285D01*
X154447619Y-99466666D01*
X154400000Y-99419047D01*
X154352380Y-99323809D01*
X154352380Y-98657142D02*
X154352380Y-98038095D01*
X154733333Y-98371428D01*
X154733333Y-98228571D01*
X154780952Y-98133333D01*
X154828571Y-98085714D01*
X154923809Y-98038095D01*
X155161904Y-98038095D01*
X155257142Y-98085714D01*
X155304761Y-98133333D01*
X155352380Y-98228571D01*
X155352380Y-98514285D01*
X155304761Y-98609523D01*
X155257142Y-98657142D01*
%TO.C,Q102*%
X156747619Y-100847619D02*
X156700000Y-100942857D01*
X156604761Y-101038095D01*
X156461904Y-101180952D01*
X156414285Y-101276190D01*
X156414285Y-101371428D01*
X156652380Y-101323809D02*
X156604761Y-101419047D01*
X156509523Y-101514285D01*
X156319047Y-101561904D01*
X155985714Y-101561904D01*
X155795238Y-101514285D01*
X155700000Y-101419047D01*
X155652380Y-101323809D01*
X155652380Y-101133333D01*
X155700000Y-101038095D01*
X155795238Y-100942857D01*
X155985714Y-100895238D01*
X156319047Y-100895238D01*
X156509523Y-100942857D01*
X156604761Y-101038095D01*
X156652380Y-101133333D01*
X156652380Y-101323809D01*
X156652380Y-99942857D02*
X156652380Y-100514285D01*
X156652380Y-100228571D02*
X155652380Y-100228571D01*
X155795238Y-100323809D01*
X155890476Y-100419047D01*
X155938095Y-100514285D01*
X155652380Y-99323809D02*
X155652380Y-99228571D01*
X155700000Y-99133333D01*
X155747619Y-99085714D01*
X155842857Y-99038095D01*
X156033333Y-98990476D01*
X156271428Y-98990476D01*
X156461904Y-99038095D01*
X156557142Y-99085714D01*
X156604761Y-99133333D01*
X156652380Y-99228571D01*
X156652380Y-99323809D01*
X156604761Y-99419047D01*
X156557142Y-99466666D01*
X156461904Y-99514285D01*
X156271428Y-99561904D01*
X156033333Y-99561904D01*
X155842857Y-99514285D01*
X155747619Y-99466666D01*
X155700000Y-99419047D01*
X155652380Y-99323809D01*
X155747619Y-98609523D02*
X155700000Y-98561904D01*
X155652380Y-98466666D01*
X155652380Y-98228571D01*
X155700000Y-98133333D01*
X155747619Y-98085714D01*
X155842857Y-98038095D01*
X155938095Y-98038095D01*
X156080952Y-98085714D01*
X156652380Y-98657142D01*
X156652380Y-98038095D01*
%TO.C,R105*%
X132880952Y-119752380D02*
X132547619Y-119276190D01*
X132309523Y-119752380D02*
X132309523Y-118752380D01*
X132690476Y-118752380D01*
X132785714Y-118800000D01*
X132833333Y-118847619D01*
X132880952Y-118942857D01*
X132880952Y-119085714D01*
X132833333Y-119180952D01*
X132785714Y-119228571D01*
X132690476Y-119276190D01*
X132309523Y-119276190D01*
X133833333Y-119752380D02*
X133261904Y-119752380D01*
X133547619Y-119752380D02*
X133547619Y-118752380D01*
X133452380Y-118895238D01*
X133357142Y-118990476D01*
X133261904Y-119038095D01*
X134452380Y-118752380D02*
X134547619Y-118752380D01*
X134642857Y-118800000D01*
X134690476Y-118847619D01*
X134738095Y-118942857D01*
X134785714Y-119133333D01*
X134785714Y-119371428D01*
X134738095Y-119561904D01*
X134690476Y-119657142D01*
X134642857Y-119704761D01*
X134547619Y-119752380D01*
X134452380Y-119752380D01*
X134357142Y-119704761D01*
X134309523Y-119657142D01*
X134261904Y-119561904D01*
X134214285Y-119371428D01*
X134214285Y-119133333D01*
X134261904Y-118942857D01*
X134309523Y-118847619D01*
X134357142Y-118800000D01*
X134452380Y-118752380D01*
X135690476Y-118752380D02*
X135214285Y-118752380D01*
X135166666Y-119228571D01*
X135214285Y-119180952D01*
X135309523Y-119133333D01*
X135547619Y-119133333D01*
X135642857Y-119180952D01*
X135690476Y-119228571D01*
X135738095Y-119323809D01*
X135738095Y-119561904D01*
X135690476Y-119657142D01*
X135642857Y-119704761D01*
X135547619Y-119752380D01*
X135309523Y-119752380D01*
X135214285Y-119704761D01*
X135166666Y-119657142D01*
%TO.C,R106*%
X133280952Y-94352380D02*
X132947619Y-93876190D01*
X132709523Y-94352380D02*
X132709523Y-93352380D01*
X133090476Y-93352380D01*
X133185714Y-93400000D01*
X133233333Y-93447619D01*
X133280952Y-93542857D01*
X133280952Y-93685714D01*
X133233333Y-93780952D01*
X133185714Y-93828571D01*
X133090476Y-93876190D01*
X132709523Y-93876190D01*
X134233333Y-94352380D02*
X133661904Y-94352380D01*
X133947619Y-94352380D02*
X133947619Y-93352380D01*
X133852380Y-93495238D01*
X133757142Y-93590476D01*
X133661904Y-93638095D01*
X134852380Y-93352380D02*
X134947619Y-93352380D01*
X135042857Y-93400000D01*
X135090476Y-93447619D01*
X135138095Y-93542857D01*
X135185714Y-93733333D01*
X135185714Y-93971428D01*
X135138095Y-94161904D01*
X135090476Y-94257142D01*
X135042857Y-94304761D01*
X134947619Y-94352380D01*
X134852380Y-94352380D01*
X134757142Y-94304761D01*
X134709523Y-94257142D01*
X134661904Y-94161904D01*
X134614285Y-93971428D01*
X134614285Y-93733333D01*
X134661904Y-93542857D01*
X134709523Y-93447619D01*
X134757142Y-93400000D01*
X134852380Y-93352380D01*
X136042857Y-93352380D02*
X135852380Y-93352380D01*
X135757142Y-93400000D01*
X135709523Y-93447619D01*
X135614285Y-93590476D01*
X135566666Y-93780952D01*
X135566666Y-94161904D01*
X135614285Y-94257142D01*
X135661904Y-94304761D01*
X135757142Y-94352380D01*
X135947619Y-94352380D01*
X136042857Y-94304761D01*
X136090476Y-94257142D01*
X136138095Y-94161904D01*
X136138095Y-93923809D01*
X136090476Y-93828571D01*
X136042857Y-93780952D01*
X135947619Y-93733333D01*
X135757142Y-93733333D01*
X135661904Y-93780952D01*
X135614285Y-93828571D01*
X135566666Y-93923809D01*
%TO.C,U102*%
X139752380Y-114414285D02*
X140561904Y-114414285D01*
X140657142Y-114366666D01*
X140704761Y-114319047D01*
X140752380Y-114223809D01*
X140752380Y-114033333D01*
X140704761Y-113938095D01*
X140657142Y-113890476D01*
X140561904Y-113842857D01*
X139752380Y-113842857D01*
X140752380Y-112842857D02*
X140752380Y-113414285D01*
X140752380Y-113128571D02*
X139752380Y-113128571D01*
X139895238Y-113223809D01*
X139990476Y-113319047D01*
X140038095Y-113414285D01*
X139752380Y-112223809D02*
X139752380Y-112128571D01*
X139800000Y-112033333D01*
X139847619Y-111985714D01*
X139942857Y-111938095D01*
X140133333Y-111890476D01*
X140371428Y-111890476D01*
X140561904Y-111938095D01*
X140657142Y-111985714D01*
X140704761Y-112033333D01*
X140752380Y-112128571D01*
X140752380Y-112223809D01*
X140704761Y-112319047D01*
X140657142Y-112366666D01*
X140561904Y-112414285D01*
X140371428Y-112461904D01*
X140133333Y-112461904D01*
X139942857Y-112414285D01*
X139847619Y-112366666D01*
X139800000Y-112319047D01*
X139752380Y-112223809D01*
X139847619Y-111509523D02*
X139800000Y-111461904D01*
X139752380Y-111366666D01*
X139752380Y-111128571D01*
X139800000Y-111033333D01*
X139847619Y-110985714D01*
X139942857Y-110938095D01*
X140038095Y-110938095D01*
X140180952Y-110985714D01*
X140752380Y-111557142D01*
X140752380Y-110938095D01*
%TO.C,U101*%
X138352380Y-114414285D02*
X139161904Y-114414285D01*
X139257142Y-114366666D01*
X139304761Y-114319047D01*
X139352380Y-114223809D01*
X139352380Y-114033333D01*
X139304761Y-113938095D01*
X139257142Y-113890476D01*
X139161904Y-113842857D01*
X138352380Y-113842857D01*
X139352380Y-112842857D02*
X139352380Y-113414285D01*
X139352380Y-113128571D02*
X138352380Y-113128571D01*
X138495238Y-113223809D01*
X138590476Y-113319047D01*
X138638095Y-113414285D01*
X138352380Y-112223809D02*
X138352380Y-112128571D01*
X138400000Y-112033333D01*
X138447619Y-111985714D01*
X138542857Y-111938095D01*
X138733333Y-111890476D01*
X138971428Y-111890476D01*
X139161904Y-111938095D01*
X139257142Y-111985714D01*
X139304761Y-112033333D01*
X139352380Y-112128571D01*
X139352380Y-112223809D01*
X139304761Y-112319047D01*
X139257142Y-112366666D01*
X139161904Y-112414285D01*
X138971428Y-112461904D01*
X138733333Y-112461904D01*
X138542857Y-112414285D01*
X138447619Y-112366666D01*
X138400000Y-112319047D01*
X138352380Y-112223809D01*
X139352380Y-110938095D02*
X139352380Y-111509523D01*
X139352380Y-111223809D02*
X138352380Y-111223809D01*
X138495238Y-111319047D01*
X138590476Y-111414285D01*
X138638095Y-111509523D01*
%TO.C,C101*%
X132880952Y-118357142D02*
X132833333Y-118404761D01*
X132690476Y-118452380D01*
X132595238Y-118452380D01*
X132452380Y-118404761D01*
X132357142Y-118309523D01*
X132309523Y-118214285D01*
X132261904Y-118023809D01*
X132261904Y-117880952D01*
X132309523Y-117690476D01*
X132357142Y-117595238D01*
X132452380Y-117500000D01*
X132595238Y-117452380D01*
X132690476Y-117452380D01*
X132833333Y-117500000D01*
X132880952Y-117547619D01*
X133833333Y-118452380D02*
X133261904Y-118452380D01*
X133547619Y-118452380D02*
X133547619Y-117452380D01*
X133452380Y-117595238D01*
X133357142Y-117690476D01*
X133261904Y-117738095D01*
X134452380Y-117452380D02*
X134547619Y-117452380D01*
X134642857Y-117500000D01*
X134690476Y-117547619D01*
X134738095Y-117642857D01*
X134785714Y-117833333D01*
X134785714Y-118071428D01*
X134738095Y-118261904D01*
X134690476Y-118357142D01*
X134642857Y-118404761D01*
X134547619Y-118452380D01*
X134452380Y-118452380D01*
X134357142Y-118404761D01*
X134309523Y-118357142D01*
X134261904Y-118261904D01*
X134214285Y-118071428D01*
X134214285Y-117833333D01*
X134261904Y-117642857D01*
X134309523Y-117547619D01*
X134357142Y-117500000D01*
X134452380Y-117452380D01*
X135738095Y-118452380D02*
X135166666Y-118452380D01*
X135452380Y-118452380D02*
X135452380Y-117452380D01*
X135357142Y-117595238D01*
X135261904Y-117690476D01*
X135166666Y-117738095D01*
%TO.C,R104*%
X146352380Y-96319047D02*
X145876190Y-96652380D01*
X146352380Y-96890476D02*
X145352380Y-96890476D01*
X145352380Y-96509523D01*
X145400000Y-96414285D01*
X145447619Y-96366666D01*
X145542857Y-96319047D01*
X145685714Y-96319047D01*
X145780952Y-96366666D01*
X145828571Y-96414285D01*
X145876190Y-96509523D01*
X145876190Y-96890476D01*
X146352380Y-95366666D02*
X146352380Y-95938095D01*
X146352380Y-95652380D02*
X145352380Y-95652380D01*
X145495238Y-95747619D01*
X145590476Y-95842857D01*
X145638095Y-95938095D01*
X145352380Y-94747619D02*
X145352380Y-94652380D01*
X145400000Y-94557142D01*
X145447619Y-94509523D01*
X145542857Y-94461904D01*
X145733333Y-94414285D01*
X145971428Y-94414285D01*
X146161904Y-94461904D01*
X146257142Y-94509523D01*
X146304761Y-94557142D01*
X146352380Y-94652380D01*
X146352380Y-94747619D01*
X146304761Y-94842857D01*
X146257142Y-94890476D01*
X146161904Y-94938095D01*
X145971428Y-94985714D01*
X145733333Y-94985714D01*
X145542857Y-94938095D01*
X145447619Y-94890476D01*
X145400000Y-94842857D01*
X145352380Y-94747619D01*
X145685714Y-93557142D02*
X146352380Y-93557142D01*
X145304761Y-93795238D02*
X146019047Y-94033333D01*
X146019047Y-93414285D01*
%TO.C,Q103*%
X139447619Y-100847619D02*
X139400000Y-100942857D01*
X139304761Y-101038095D01*
X139161904Y-101180952D01*
X139114285Y-101276190D01*
X139114285Y-101371428D01*
X139352380Y-101323809D02*
X139304761Y-101419047D01*
X139209523Y-101514285D01*
X139019047Y-101561904D01*
X138685714Y-101561904D01*
X138495238Y-101514285D01*
X138400000Y-101419047D01*
X138352380Y-101323809D01*
X138352380Y-101133333D01*
X138400000Y-101038095D01*
X138495238Y-100942857D01*
X138685714Y-100895238D01*
X139019047Y-100895238D01*
X139209523Y-100942857D01*
X139304761Y-101038095D01*
X139352380Y-101133333D01*
X139352380Y-101323809D01*
X139352380Y-99942857D02*
X139352380Y-100514285D01*
X139352380Y-100228571D02*
X138352380Y-100228571D01*
X138495238Y-100323809D01*
X138590476Y-100419047D01*
X138638095Y-100514285D01*
X138352380Y-99323809D02*
X138352380Y-99228571D01*
X138400000Y-99133333D01*
X138447619Y-99085714D01*
X138542857Y-99038095D01*
X138733333Y-98990476D01*
X138971428Y-98990476D01*
X139161904Y-99038095D01*
X139257142Y-99085714D01*
X139304761Y-99133333D01*
X139352380Y-99228571D01*
X139352380Y-99323809D01*
X139304761Y-99419047D01*
X139257142Y-99466666D01*
X139161904Y-99514285D01*
X138971428Y-99561904D01*
X138733333Y-99561904D01*
X138542857Y-99514285D01*
X138447619Y-99466666D01*
X138400000Y-99419047D01*
X138352380Y-99323809D01*
X138352380Y-98657142D02*
X138352380Y-98038095D01*
X138733333Y-98371428D01*
X138733333Y-98228571D01*
X138780952Y-98133333D01*
X138828571Y-98085714D01*
X138923809Y-98038095D01*
X139161904Y-98038095D01*
X139257142Y-98085714D01*
X139304761Y-98133333D01*
X139352380Y-98228571D01*
X139352380Y-98514285D01*
X139304761Y-98609523D01*
X139257142Y-98657142D01*
%TO.C,Q102*%
X140747619Y-100847619D02*
X140700000Y-100942857D01*
X140604761Y-101038095D01*
X140461904Y-101180952D01*
X140414285Y-101276190D01*
X140414285Y-101371428D01*
X140652380Y-101323809D02*
X140604761Y-101419047D01*
X140509523Y-101514285D01*
X140319047Y-101561904D01*
X139985714Y-101561904D01*
X139795238Y-101514285D01*
X139700000Y-101419047D01*
X139652380Y-101323809D01*
X139652380Y-101133333D01*
X139700000Y-101038095D01*
X139795238Y-100942857D01*
X139985714Y-100895238D01*
X140319047Y-100895238D01*
X140509523Y-100942857D01*
X140604761Y-101038095D01*
X140652380Y-101133333D01*
X140652380Y-101323809D01*
X140652380Y-99942857D02*
X140652380Y-100514285D01*
X140652380Y-100228571D02*
X139652380Y-100228571D01*
X139795238Y-100323809D01*
X139890476Y-100419047D01*
X139938095Y-100514285D01*
X139652380Y-99323809D02*
X139652380Y-99228571D01*
X139700000Y-99133333D01*
X139747619Y-99085714D01*
X139842857Y-99038095D01*
X140033333Y-98990476D01*
X140271428Y-98990476D01*
X140461904Y-99038095D01*
X140557142Y-99085714D01*
X140604761Y-99133333D01*
X140652380Y-99228571D01*
X140652380Y-99323809D01*
X140604761Y-99419047D01*
X140557142Y-99466666D01*
X140461904Y-99514285D01*
X140271428Y-99561904D01*
X140033333Y-99561904D01*
X139842857Y-99514285D01*
X139747619Y-99466666D01*
X139700000Y-99419047D01*
X139652380Y-99323809D01*
X139747619Y-98609523D02*
X139700000Y-98561904D01*
X139652380Y-98466666D01*
X139652380Y-98228571D01*
X139700000Y-98133333D01*
X139747619Y-98085714D01*
X139842857Y-98038095D01*
X139938095Y-98038095D01*
X140080952Y-98085714D01*
X140652380Y-98657142D01*
X140652380Y-98038095D01*
%TO.C,R105*%
X116880952Y-119752380D02*
X116547619Y-119276190D01*
X116309523Y-119752380D02*
X116309523Y-118752380D01*
X116690476Y-118752380D01*
X116785714Y-118800000D01*
X116833333Y-118847619D01*
X116880952Y-118942857D01*
X116880952Y-119085714D01*
X116833333Y-119180952D01*
X116785714Y-119228571D01*
X116690476Y-119276190D01*
X116309523Y-119276190D01*
X117833333Y-119752380D02*
X117261904Y-119752380D01*
X117547619Y-119752380D02*
X117547619Y-118752380D01*
X117452380Y-118895238D01*
X117357142Y-118990476D01*
X117261904Y-119038095D01*
X118452380Y-118752380D02*
X118547619Y-118752380D01*
X118642857Y-118800000D01*
X118690476Y-118847619D01*
X118738095Y-118942857D01*
X118785714Y-119133333D01*
X118785714Y-119371428D01*
X118738095Y-119561904D01*
X118690476Y-119657142D01*
X118642857Y-119704761D01*
X118547619Y-119752380D01*
X118452380Y-119752380D01*
X118357142Y-119704761D01*
X118309523Y-119657142D01*
X118261904Y-119561904D01*
X118214285Y-119371428D01*
X118214285Y-119133333D01*
X118261904Y-118942857D01*
X118309523Y-118847619D01*
X118357142Y-118800000D01*
X118452380Y-118752380D01*
X119690476Y-118752380D02*
X119214285Y-118752380D01*
X119166666Y-119228571D01*
X119214285Y-119180952D01*
X119309523Y-119133333D01*
X119547619Y-119133333D01*
X119642857Y-119180952D01*
X119690476Y-119228571D01*
X119738095Y-119323809D01*
X119738095Y-119561904D01*
X119690476Y-119657142D01*
X119642857Y-119704761D01*
X119547619Y-119752380D01*
X119309523Y-119752380D01*
X119214285Y-119704761D01*
X119166666Y-119657142D01*
%TO.C,R106*%
X117280952Y-94352380D02*
X116947619Y-93876190D01*
X116709523Y-94352380D02*
X116709523Y-93352380D01*
X117090476Y-93352380D01*
X117185714Y-93400000D01*
X117233333Y-93447619D01*
X117280952Y-93542857D01*
X117280952Y-93685714D01*
X117233333Y-93780952D01*
X117185714Y-93828571D01*
X117090476Y-93876190D01*
X116709523Y-93876190D01*
X118233333Y-94352380D02*
X117661904Y-94352380D01*
X117947619Y-94352380D02*
X117947619Y-93352380D01*
X117852380Y-93495238D01*
X117757142Y-93590476D01*
X117661904Y-93638095D01*
X118852380Y-93352380D02*
X118947619Y-93352380D01*
X119042857Y-93400000D01*
X119090476Y-93447619D01*
X119138095Y-93542857D01*
X119185714Y-93733333D01*
X119185714Y-93971428D01*
X119138095Y-94161904D01*
X119090476Y-94257142D01*
X119042857Y-94304761D01*
X118947619Y-94352380D01*
X118852380Y-94352380D01*
X118757142Y-94304761D01*
X118709523Y-94257142D01*
X118661904Y-94161904D01*
X118614285Y-93971428D01*
X118614285Y-93733333D01*
X118661904Y-93542857D01*
X118709523Y-93447619D01*
X118757142Y-93400000D01*
X118852380Y-93352380D01*
X120042857Y-93352380D02*
X119852380Y-93352380D01*
X119757142Y-93400000D01*
X119709523Y-93447619D01*
X119614285Y-93590476D01*
X119566666Y-93780952D01*
X119566666Y-94161904D01*
X119614285Y-94257142D01*
X119661904Y-94304761D01*
X119757142Y-94352380D01*
X119947619Y-94352380D01*
X120042857Y-94304761D01*
X120090476Y-94257142D01*
X120138095Y-94161904D01*
X120138095Y-93923809D01*
X120090476Y-93828571D01*
X120042857Y-93780952D01*
X119947619Y-93733333D01*
X119757142Y-93733333D01*
X119661904Y-93780952D01*
X119614285Y-93828571D01*
X119566666Y-93923809D01*
%TO.C,U102*%
X123752380Y-114414285D02*
X124561904Y-114414285D01*
X124657142Y-114366666D01*
X124704761Y-114319047D01*
X124752380Y-114223809D01*
X124752380Y-114033333D01*
X124704761Y-113938095D01*
X124657142Y-113890476D01*
X124561904Y-113842857D01*
X123752380Y-113842857D01*
X124752380Y-112842857D02*
X124752380Y-113414285D01*
X124752380Y-113128571D02*
X123752380Y-113128571D01*
X123895238Y-113223809D01*
X123990476Y-113319047D01*
X124038095Y-113414285D01*
X123752380Y-112223809D02*
X123752380Y-112128571D01*
X123800000Y-112033333D01*
X123847619Y-111985714D01*
X123942857Y-111938095D01*
X124133333Y-111890476D01*
X124371428Y-111890476D01*
X124561904Y-111938095D01*
X124657142Y-111985714D01*
X124704761Y-112033333D01*
X124752380Y-112128571D01*
X124752380Y-112223809D01*
X124704761Y-112319047D01*
X124657142Y-112366666D01*
X124561904Y-112414285D01*
X124371428Y-112461904D01*
X124133333Y-112461904D01*
X123942857Y-112414285D01*
X123847619Y-112366666D01*
X123800000Y-112319047D01*
X123752380Y-112223809D01*
X123847619Y-111509523D02*
X123800000Y-111461904D01*
X123752380Y-111366666D01*
X123752380Y-111128571D01*
X123800000Y-111033333D01*
X123847619Y-110985714D01*
X123942857Y-110938095D01*
X124038095Y-110938095D01*
X124180952Y-110985714D01*
X124752380Y-111557142D01*
X124752380Y-110938095D01*
%TO.C,U101*%
X122352380Y-114414285D02*
X123161904Y-114414285D01*
X123257142Y-114366666D01*
X123304761Y-114319047D01*
X123352380Y-114223809D01*
X123352380Y-114033333D01*
X123304761Y-113938095D01*
X123257142Y-113890476D01*
X123161904Y-113842857D01*
X122352380Y-113842857D01*
X123352380Y-112842857D02*
X123352380Y-113414285D01*
X123352380Y-113128571D02*
X122352380Y-113128571D01*
X122495238Y-113223809D01*
X122590476Y-113319047D01*
X122638095Y-113414285D01*
X122352380Y-112223809D02*
X122352380Y-112128571D01*
X122400000Y-112033333D01*
X122447619Y-111985714D01*
X122542857Y-111938095D01*
X122733333Y-111890476D01*
X122971428Y-111890476D01*
X123161904Y-111938095D01*
X123257142Y-111985714D01*
X123304761Y-112033333D01*
X123352380Y-112128571D01*
X123352380Y-112223809D01*
X123304761Y-112319047D01*
X123257142Y-112366666D01*
X123161904Y-112414285D01*
X122971428Y-112461904D01*
X122733333Y-112461904D01*
X122542857Y-112414285D01*
X122447619Y-112366666D01*
X122400000Y-112319047D01*
X122352380Y-112223809D01*
X123352380Y-110938095D02*
X123352380Y-111509523D01*
X123352380Y-111223809D02*
X122352380Y-111223809D01*
X122495238Y-111319047D01*
X122590476Y-111414285D01*
X122638095Y-111509523D01*
%TO.C,C101*%
X116880952Y-118357142D02*
X116833333Y-118404761D01*
X116690476Y-118452380D01*
X116595238Y-118452380D01*
X116452380Y-118404761D01*
X116357142Y-118309523D01*
X116309523Y-118214285D01*
X116261904Y-118023809D01*
X116261904Y-117880952D01*
X116309523Y-117690476D01*
X116357142Y-117595238D01*
X116452380Y-117500000D01*
X116595238Y-117452380D01*
X116690476Y-117452380D01*
X116833333Y-117500000D01*
X116880952Y-117547619D01*
X117833333Y-118452380D02*
X117261904Y-118452380D01*
X117547619Y-118452380D02*
X117547619Y-117452380D01*
X117452380Y-117595238D01*
X117357142Y-117690476D01*
X117261904Y-117738095D01*
X118452380Y-117452380D02*
X118547619Y-117452380D01*
X118642857Y-117500000D01*
X118690476Y-117547619D01*
X118738095Y-117642857D01*
X118785714Y-117833333D01*
X118785714Y-118071428D01*
X118738095Y-118261904D01*
X118690476Y-118357142D01*
X118642857Y-118404761D01*
X118547619Y-118452380D01*
X118452380Y-118452380D01*
X118357142Y-118404761D01*
X118309523Y-118357142D01*
X118261904Y-118261904D01*
X118214285Y-118071428D01*
X118214285Y-117833333D01*
X118261904Y-117642857D01*
X118309523Y-117547619D01*
X118357142Y-117500000D01*
X118452380Y-117452380D01*
X119738095Y-118452380D02*
X119166666Y-118452380D01*
X119452380Y-118452380D02*
X119452380Y-117452380D01*
X119357142Y-117595238D01*
X119261904Y-117690476D01*
X119166666Y-117738095D01*
%TO.C,R104*%
X130352380Y-96319047D02*
X129876190Y-96652380D01*
X130352380Y-96890476D02*
X129352380Y-96890476D01*
X129352380Y-96509523D01*
X129400000Y-96414285D01*
X129447619Y-96366666D01*
X129542857Y-96319047D01*
X129685714Y-96319047D01*
X129780952Y-96366666D01*
X129828571Y-96414285D01*
X129876190Y-96509523D01*
X129876190Y-96890476D01*
X130352380Y-95366666D02*
X130352380Y-95938095D01*
X130352380Y-95652380D02*
X129352380Y-95652380D01*
X129495238Y-95747619D01*
X129590476Y-95842857D01*
X129638095Y-95938095D01*
X129352380Y-94747619D02*
X129352380Y-94652380D01*
X129400000Y-94557142D01*
X129447619Y-94509523D01*
X129542857Y-94461904D01*
X129733333Y-94414285D01*
X129971428Y-94414285D01*
X130161904Y-94461904D01*
X130257142Y-94509523D01*
X130304761Y-94557142D01*
X130352380Y-94652380D01*
X130352380Y-94747619D01*
X130304761Y-94842857D01*
X130257142Y-94890476D01*
X130161904Y-94938095D01*
X129971428Y-94985714D01*
X129733333Y-94985714D01*
X129542857Y-94938095D01*
X129447619Y-94890476D01*
X129400000Y-94842857D01*
X129352380Y-94747619D01*
X129685714Y-93557142D02*
X130352380Y-93557142D01*
X129304761Y-93795238D02*
X130019047Y-94033333D01*
X130019047Y-93414285D01*
%TO.C,Q103*%
X123447619Y-100847619D02*
X123400000Y-100942857D01*
X123304761Y-101038095D01*
X123161904Y-101180952D01*
X123114285Y-101276190D01*
X123114285Y-101371428D01*
X123352380Y-101323809D02*
X123304761Y-101419047D01*
X123209523Y-101514285D01*
X123019047Y-101561904D01*
X122685714Y-101561904D01*
X122495238Y-101514285D01*
X122400000Y-101419047D01*
X122352380Y-101323809D01*
X122352380Y-101133333D01*
X122400000Y-101038095D01*
X122495238Y-100942857D01*
X122685714Y-100895238D01*
X123019047Y-100895238D01*
X123209523Y-100942857D01*
X123304761Y-101038095D01*
X123352380Y-101133333D01*
X123352380Y-101323809D01*
X123352380Y-99942857D02*
X123352380Y-100514285D01*
X123352380Y-100228571D02*
X122352380Y-100228571D01*
X122495238Y-100323809D01*
X122590476Y-100419047D01*
X122638095Y-100514285D01*
X122352380Y-99323809D02*
X122352380Y-99228571D01*
X122400000Y-99133333D01*
X122447619Y-99085714D01*
X122542857Y-99038095D01*
X122733333Y-98990476D01*
X122971428Y-98990476D01*
X123161904Y-99038095D01*
X123257142Y-99085714D01*
X123304761Y-99133333D01*
X123352380Y-99228571D01*
X123352380Y-99323809D01*
X123304761Y-99419047D01*
X123257142Y-99466666D01*
X123161904Y-99514285D01*
X122971428Y-99561904D01*
X122733333Y-99561904D01*
X122542857Y-99514285D01*
X122447619Y-99466666D01*
X122400000Y-99419047D01*
X122352380Y-99323809D01*
X122352380Y-98657142D02*
X122352380Y-98038095D01*
X122733333Y-98371428D01*
X122733333Y-98228571D01*
X122780952Y-98133333D01*
X122828571Y-98085714D01*
X122923809Y-98038095D01*
X123161904Y-98038095D01*
X123257142Y-98085714D01*
X123304761Y-98133333D01*
X123352380Y-98228571D01*
X123352380Y-98514285D01*
X123304761Y-98609523D01*
X123257142Y-98657142D01*
%TO.C,Q102*%
X124747619Y-100847619D02*
X124700000Y-100942857D01*
X124604761Y-101038095D01*
X124461904Y-101180952D01*
X124414285Y-101276190D01*
X124414285Y-101371428D01*
X124652380Y-101323809D02*
X124604761Y-101419047D01*
X124509523Y-101514285D01*
X124319047Y-101561904D01*
X123985714Y-101561904D01*
X123795238Y-101514285D01*
X123700000Y-101419047D01*
X123652380Y-101323809D01*
X123652380Y-101133333D01*
X123700000Y-101038095D01*
X123795238Y-100942857D01*
X123985714Y-100895238D01*
X124319047Y-100895238D01*
X124509523Y-100942857D01*
X124604761Y-101038095D01*
X124652380Y-101133333D01*
X124652380Y-101323809D01*
X124652380Y-99942857D02*
X124652380Y-100514285D01*
X124652380Y-100228571D02*
X123652380Y-100228571D01*
X123795238Y-100323809D01*
X123890476Y-100419047D01*
X123938095Y-100514285D01*
X123652380Y-99323809D02*
X123652380Y-99228571D01*
X123700000Y-99133333D01*
X123747619Y-99085714D01*
X123842857Y-99038095D01*
X124033333Y-98990476D01*
X124271428Y-98990476D01*
X124461904Y-99038095D01*
X124557142Y-99085714D01*
X124604761Y-99133333D01*
X124652380Y-99228571D01*
X124652380Y-99323809D01*
X124604761Y-99419047D01*
X124557142Y-99466666D01*
X124461904Y-99514285D01*
X124271428Y-99561904D01*
X124033333Y-99561904D01*
X123842857Y-99514285D01*
X123747619Y-99466666D01*
X123700000Y-99419047D01*
X123652380Y-99323809D01*
X123747619Y-98609523D02*
X123700000Y-98561904D01*
X123652380Y-98466666D01*
X123652380Y-98228571D01*
X123700000Y-98133333D01*
X123747619Y-98085714D01*
X123842857Y-98038095D01*
X123938095Y-98038095D01*
X124080952Y-98085714D01*
X124652380Y-98657142D01*
X124652380Y-98038095D01*
%TO.C,R104*%
X114402380Y-96319047D02*
X113926190Y-96652380D01*
X114402380Y-96890476D02*
X113402380Y-96890476D01*
X113402380Y-96509523D01*
X113450000Y-96414285D01*
X113497619Y-96366666D01*
X113592857Y-96319047D01*
X113735714Y-96319047D01*
X113830952Y-96366666D01*
X113878571Y-96414285D01*
X113926190Y-96509523D01*
X113926190Y-96890476D01*
X114402380Y-95366666D02*
X114402380Y-95938095D01*
X114402380Y-95652380D02*
X113402380Y-95652380D01*
X113545238Y-95747619D01*
X113640476Y-95842857D01*
X113688095Y-95938095D01*
X113402380Y-94747619D02*
X113402380Y-94652380D01*
X113450000Y-94557142D01*
X113497619Y-94509523D01*
X113592857Y-94461904D01*
X113783333Y-94414285D01*
X114021428Y-94414285D01*
X114211904Y-94461904D01*
X114307142Y-94509523D01*
X114354761Y-94557142D01*
X114402380Y-94652380D01*
X114402380Y-94747619D01*
X114354761Y-94842857D01*
X114307142Y-94890476D01*
X114211904Y-94938095D01*
X114021428Y-94985714D01*
X113783333Y-94985714D01*
X113592857Y-94938095D01*
X113497619Y-94890476D01*
X113450000Y-94842857D01*
X113402380Y-94747619D01*
X113735714Y-93557142D02*
X114402380Y-93557142D01*
X113354761Y-93795238D02*
X114069047Y-94033333D01*
X114069047Y-93414285D01*
%TO.C,Q102*%
X108797619Y-100847619D02*
X108750000Y-100942857D01*
X108654761Y-101038095D01*
X108511904Y-101180952D01*
X108464285Y-101276190D01*
X108464285Y-101371428D01*
X108702380Y-101323809D02*
X108654761Y-101419047D01*
X108559523Y-101514285D01*
X108369047Y-101561904D01*
X108035714Y-101561904D01*
X107845238Y-101514285D01*
X107750000Y-101419047D01*
X107702380Y-101323809D01*
X107702380Y-101133333D01*
X107750000Y-101038095D01*
X107845238Y-100942857D01*
X108035714Y-100895238D01*
X108369047Y-100895238D01*
X108559523Y-100942857D01*
X108654761Y-101038095D01*
X108702380Y-101133333D01*
X108702380Y-101323809D01*
X108702380Y-99942857D02*
X108702380Y-100514285D01*
X108702380Y-100228571D02*
X107702380Y-100228571D01*
X107845238Y-100323809D01*
X107940476Y-100419047D01*
X107988095Y-100514285D01*
X107702380Y-99323809D02*
X107702380Y-99228571D01*
X107750000Y-99133333D01*
X107797619Y-99085714D01*
X107892857Y-99038095D01*
X108083333Y-98990476D01*
X108321428Y-98990476D01*
X108511904Y-99038095D01*
X108607142Y-99085714D01*
X108654761Y-99133333D01*
X108702380Y-99228571D01*
X108702380Y-99323809D01*
X108654761Y-99419047D01*
X108607142Y-99466666D01*
X108511904Y-99514285D01*
X108321428Y-99561904D01*
X108083333Y-99561904D01*
X107892857Y-99514285D01*
X107797619Y-99466666D01*
X107750000Y-99419047D01*
X107702380Y-99323809D01*
X107797619Y-98609523D02*
X107750000Y-98561904D01*
X107702380Y-98466666D01*
X107702380Y-98228571D01*
X107750000Y-98133333D01*
X107797619Y-98085714D01*
X107892857Y-98038095D01*
X107988095Y-98038095D01*
X108130952Y-98085714D01*
X108702380Y-98657142D01*
X108702380Y-98038095D01*
%TO.C,Q103*%
X107497619Y-100847619D02*
X107450000Y-100942857D01*
X107354761Y-101038095D01*
X107211904Y-101180952D01*
X107164285Y-101276190D01*
X107164285Y-101371428D01*
X107402380Y-101323809D02*
X107354761Y-101419047D01*
X107259523Y-101514285D01*
X107069047Y-101561904D01*
X106735714Y-101561904D01*
X106545238Y-101514285D01*
X106450000Y-101419047D01*
X106402380Y-101323809D01*
X106402380Y-101133333D01*
X106450000Y-101038095D01*
X106545238Y-100942857D01*
X106735714Y-100895238D01*
X107069047Y-100895238D01*
X107259523Y-100942857D01*
X107354761Y-101038095D01*
X107402380Y-101133333D01*
X107402380Y-101323809D01*
X107402380Y-99942857D02*
X107402380Y-100514285D01*
X107402380Y-100228571D02*
X106402380Y-100228571D01*
X106545238Y-100323809D01*
X106640476Y-100419047D01*
X106688095Y-100514285D01*
X106402380Y-99323809D02*
X106402380Y-99228571D01*
X106450000Y-99133333D01*
X106497619Y-99085714D01*
X106592857Y-99038095D01*
X106783333Y-98990476D01*
X107021428Y-98990476D01*
X107211904Y-99038095D01*
X107307142Y-99085714D01*
X107354761Y-99133333D01*
X107402380Y-99228571D01*
X107402380Y-99323809D01*
X107354761Y-99419047D01*
X107307142Y-99466666D01*
X107211904Y-99514285D01*
X107021428Y-99561904D01*
X106783333Y-99561904D01*
X106592857Y-99514285D01*
X106497619Y-99466666D01*
X106450000Y-99419047D01*
X106402380Y-99323809D01*
X106402380Y-98657142D02*
X106402380Y-98038095D01*
X106783333Y-98371428D01*
X106783333Y-98228571D01*
X106830952Y-98133333D01*
X106878571Y-98085714D01*
X106973809Y-98038095D01*
X107211904Y-98038095D01*
X107307142Y-98085714D01*
X107354761Y-98133333D01*
X107402380Y-98228571D01*
X107402380Y-98514285D01*
X107354761Y-98609523D01*
X107307142Y-98657142D01*
%TO.C,C101*%
X100930952Y-118357142D02*
X100883333Y-118404761D01*
X100740476Y-118452380D01*
X100645238Y-118452380D01*
X100502380Y-118404761D01*
X100407142Y-118309523D01*
X100359523Y-118214285D01*
X100311904Y-118023809D01*
X100311904Y-117880952D01*
X100359523Y-117690476D01*
X100407142Y-117595238D01*
X100502380Y-117500000D01*
X100645238Y-117452380D01*
X100740476Y-117452380D01*
X100883333Y-117500000D01*
X100930952Y-117547619D01*
X101883333Y-118452380D02*
X101311904Y-118452380D01*
X101597619Y-118452380D02*
X101597619Y-117452380D01*
X101502380Y-117595238D01*
X101407142Y-117690476D01*
X101311904Y-117738095D01*
X102502380Y-117452380D02*
X102597619Y-117452380D01*
X102692857Y-117500000D01*
X102740476Y-117547619D01*
X102788095Y-117642857D01*
X102835714Y-117833333D01*
X102835714Y-118071428D01*
X102788095Y-118261904D01*
X102740476Y-118357142D01*
X102692857Y-118404761D01*
X102597619Y-118452380D01*
X102502380Y-118452380D01*
X102407142Y-118404761D01*
X102359523Y-118357142D01*
X102311904Y-118261904D01*
X102264285Y-118071428D01*
X102264285Y-117833333D01*
X102311904Y-117642857D01*
X102359523Y-117547619D01*
X102407142Y-117500000D01*
X102502380Y-117452380D01*
X103788095Y-118452380D02*
X103216666Y-118452380D01*
X103502380Y-118452380D02*
X103502380Y-117452380D01*
X103407142Y-117595238D01*
X103311904Y-117690476D01*
X103216666Y-117738095D01*
%TO.C,U102*%
X107802380Y-114414285D02*
X108611904Y-114414285D01*
X108707142Y-114366666D01*
X108754761Y-114319047D01*
X108802380Y-114223809D01*
X108802380Y-114033333D01*
X108754761Y-113938095D01*
X108707142Y-113890476D01*
X108611904Y-113842857D01*
X107802380Y-113842857D01*
X108802380Y-112842857D02*
X108802380Y-113414285D01*
X108802380Y-113128571D02*
X107802380Y-113128571D01*
X107945238Y-113223809D01*
X108040476Y-113319047D01*
X108088095Y-113414285D01*
X107802380Y-112223809D02*
X107802380Y-112128571D01*
X107850000Y-112033333D01*
X107897619Y-111985714D01*
X107992857Y-111938095D01*
X108183333Y-111890476D01*
X108421428Y-111890476D01*
X108611904Y-111938095D01*
X108707142Y-111985714D01*
X108754761Y-112033333D01*
X108802380Y-112128571D01*
X108802380Y-112223809D01*
X108754761Y-112319047D01*
X108707142Y-112366666D01*
X108611904Y-112414285D01*
X108421428Y-112461904D01*
X108183333Y-112461904D01*
X107992857Y-112414285D01*
X107897619Y-112366666D01*
X107850000Y-112319047D01*
X107802380Y-112223809D01*
X107897619Y-111509523D02*
X107850000Y-111461904D01*
X107802380Y-111366666D01*
X107802380Y-111128571D01*
X107850000Y-111033333D01*
X107897619Y-110985714D01*
X107992857Y-110938095D01*
X108088095Y-110938095D01*
X108230952Y-110985714D01*
X108802380Y-111557142D01*
X108802380Y-110938095D01*
%TO.C,U101*%
X106402380Y-114414285D02*
X107211904Y-114414285D01*
X107307142Y-114366666D01*
X107354761Y-114319047D01*
X107402380Y-114223809D01*
X107402380Y-114033333D01*
X107354761Y-113938095D01*
X107307142Y-113890476D01*
X107211904Y-113842857D01*
X106402380Y-113842857D01*
X107402380Y-112842857D02*
X107402380Y-113414285D01*
X107402380Y-113128571D02*
X106402380Y-113128571D01*
X106545238Y-113223809D01*
X106640476Y-113319047D01*
X106688095Y-113414285D01*
X106402380Y-112223809D02*
X106402380Y-112128571D01*
X106450000Y-112033333D01*
X106497619Y-111985714D01*
X106592857Y-111938095D01*
X106783333Y-111890476D01*
X107021428Y-111890476D01*
X107211904Y-111938095D01*
X107307142Y-111985714D01*
X107354761Y-112033333D01*
X107402380Y-112128571D01*
X107402380Y-112223809D01*
X107354761Y-112319047D01*
X107307142Y-112366666D01*
X107211904Y-112414285D01*
X107021428Y-112461904D01*
X106783333Y-112461904D01*
X106592857Y-112414285D01*
X106497619Y-112366666D01*
X106450000Y-112319047D01*
X106402380Y-112223809D01*
X107402380Y-110938095D02*
X107402380Y-111509523D01*
X107402380Y-111223809D02*
X106402380Y-111223809D01*
X106545238Y-111319047D01*
X106640476Y-111414285D01*
X106688095Y-111509523D01*
%TO.C,R106*%
X101330952Y-94352380D02*
X100997619Y-93876190D01*
X100759523Y-94352380D02*
X100759523Y-93352380D01*
X101140476Y-93352380D01*
X101235714Y-93400000D01*
X101283333Y-93447619D01*
X101330952Y-93542857D01*
X101330952Y-93685714D01*
X101283333Y-93780952D01*
X101235714Y-93828571D01*
X101140476Y-93876190D01*
X100759523Y-93876190D01*
X102283333Y-94352380D02*
X101711904Y-94352380D01*
X101997619Y-94352380D02*
X101997619Y-93352380D01*
X101902380Y-93495238D01*
X101807142Y-93590476D01*
X101711904Y-93638095D01*
X102902380Y-93352380D02*
X102997619Y-93352380D01*
X103092857Y-93400000D01*
X103140476Y-93447619D01*
X103188095Y-93542857D01*
X103235714Y-93733333D01*
X103235714Y-93971428D01*
X103188095Y-94161904D01*
X103140476Y-94257142D01*
X103092857Y-94304761D01*
X102997619Y-94352380D01*
X102902380Y-94352380D01*
X102807142Y-94304761D01*
X102759523Y-94257142D01*
X102711904Y-94161904D01*
X102664285Y-93971428D01*
X102664285Y-93733333D01*
X102711904Y-93542857D01*
X102759523Y-93447619D01*
X102807142Y-93400000D01*
X102902380Y-93352380D01*
X104092857Y-93352380D02*
X103902380Y-93352380D01*
X103807142Y-93400000D01*
X103759523Y-93447619D01*
X103664285Y-93590476D01*
X103616666Y-93780952D01*
X103616666Y-94161904D01*
X103664285Y-94257142D01*
X103711904Y-94304761D01*
X103807142Y-94352380D01*
X103997619Y-94352380D01*
X104092857Y-94304761D01*
X104140476Y-94257142D01*
X104188095Y-94161904D01*
X104188095Y-93923809D01*
X104140476Y-93828571D01*
X104092857Y-93780952D01*
X103997619Y-93733333D01*
X103807142Y-93733333D01*
X103711904Y-93780952D01*
X103664285Y-93828571D01*
X103616666Y-93923809D01*
%TO.C,R105*%
X100930952Y-119752380D02*
X100597619Y-119276190D01*
X100359523Y-119752380D02*
X100359523Y-118752380D01*
X100740476Y-118752380D01*
X100835714Y-118800000D01*
X100883333Y-118847619D01*
X100930952Y-118942857D01*
X100930952Y-119085714D01*
X100883333Y-119180952D01*
X100835714Y-119228571D01*
X100740476Y-119276190D01*
X100359523Y-119276190D01*
X101883333Y-119752380D02*
X101311904Y-119752380D01*
X101597619Y-119752380D02*
X101597619Y-118752380D01*
X101502380Y-118895238D01*
X101407142Y-118990476D01*
X101311904Y-119038095D01*
X102502380Y-118752380D02*
X102597619Y-118752380D01*
X102692857Y-118800000D01*
X102740476Y-118847619D01*
X102788095Y-118942857D01*
X102835714Y-119133333D01*
X102835714Y-119371428D01*
X102788095Y-119561904D01*
X102740476Y-119657142D01*
X102692857Y-119704761D01*
X102597619Y-119752380D01*
X102502380Y-119752380D01*
X102407142Y-119704761D01*
X102359523Y-119657142D01*
X102311904Y-119561904D01*
X102264285Y-119371428D01*
X102264285Y-119133333D01*
X102311904Y-118942857D01*
X102359523Y-118847619D01*
X102407142Y-118800000D01*
X102502380Y-118752380D01*
X103740476Y-118752380D02*
X103264285Y-118752380D01*
X103216666Y-119228571D01*
X103264285Y-119180952D01*
X103359523Y-119133333D01*
X103597619Y-119133333D01*
X103692857Y-119180952D01*
X103740476Y-119228571D01*
X103788095Y-119323809D01*
X103788095Y-119561904D01*
X103740476Y-119657142D01*
X103692857Y-119704761D01*
X103597619Y-119752380D01*
X103359523Y-119752380D01*
X103264285Y-119704761D01*
X103216666Y-119657142D01*
%TD*%
M02*
